Jost-Bold.ufo
<glyph name="quotedbl" format="2">
  <advance width="517"/>
  <unicode hex="0022"/>
  <outline>
    <contour>
      <point x="106" y="700" type="line"/>
      <point x="265" y="700" type="line"/>
      <point x="160" y="382" type="line"/>
      <point x="62" y="382" type="line"/>
    </contour>
    <contour>
      <point x="316" y="700" type="line"/>
      <point x="476" y="700" type="line"/>
      <point x="371" y="382" type="line"/>
      <point x="272" y="382" type="line"/>
    </contour>
  </outline>
</glyph>
<glyph name="numbersign" format="2">
  <advance width="666"/>
  <unicode hex="0023"/>
  <outline>
    <contour>
      <point x="75" y="412" type="line"/>
      <point x="75" y="532" type="line"/>
      <point x="632" y="532" type="line"/>
      <point x="632" y="412" type="line"/>
      <point x="477" y="412" type="line" smooth="yes"/>
      <point x="448" y="418" type="line" smooth="yes"/>
      <point x="244" y="418" type="line" smooth="yes"/>
      <point x="218" y="412" type="line" smooth="yes"/>
    </contour>
    <contour>
      <point x="35" y="172" type="line"/>
      <point x="35" y="292" type="line"/>
      <point x="176" y="292" type="line" smooth="yes"/>
      <point x="208" y="286" type="line" smooth="yes"/>
      <point x="438" y="286" type="line" smooth="yes"/>
      <point x="468" y="292" type="line" smooth="yes"/>
      <point x="592" y="292" type="line"/>
      <point x="592" y="172" type="line"/>
    </contour>
    <contour>
      <point x="474" y="700" type="line"/>
      <point x="604" y="700" type="line"/>
      <point x="434" y="0" type="line"/>
      <point x="304" y="0" type="line"/>
      <point x="358" y="224" type="line" smooth="yes"/>
      <point x="370" y="250" type="line" smooth="yes"/>
      <point x="420" y="456" type="line" smooth="yes"/>
      <point x="422" y="486" type="line" smooth="yes"/>
    </contour>
    <contour>
      <point x="232" y="700" type="line"/>
      <point x="363" y="700" type="line"/>
      <point x="312" y="488" type="line" smooth="yes"/>
      <point x="298" y="456" type="line" smooth="yes"/>
      <point x="248" y="252" type="line" smooth="yes"/>
      <point x="248" y="226" type="line" smooth="yes"/>
      <point x="193" y="0" type="line"/>
      <point x="62" y="0" type="line"/>
    </contour>
  </outline>
</glyph>
<glyph name="dollar" format="2">
  <advance width="621"/>
  <unicode hex="0024"/>
  <outline>
    <contour>
      <point x="262" y="818" type="line"/>
      <point x="386" y="818" type="line"/>
      <point x="379" y="637" type="line"/>
      <point x="268" y="637" type="line"/>
    </contour>
    <contour>
      <point x="268" y="62" type="line"/>
      <point x="379" y="62" type="line"/>
      <point x="385" y="-112" type="line"/>
      <point x="262" y="-112" type="line"/>
    </contour>
    <contour>
      <point x="448" y="490" type="line"/>
      <point x="418" y="548"/>
      <point x="378" y="586"/>
      <point x="326" y="586" type="curve" smooth="yes"/>
      <point x="270" y="586"/>
      <point x="248" y="558"/>
      <point x="248" y="522" type="curve" smooth="yes"/>
      <point x="248" y="463"/>
      <point x="322" y="446"/>
      <point x="407" y="414" type="curve" smooth="yes"/>
      <point x="501" y="380"/>
      <point x="586" y="317"/>
      <point x="586" y="196" type="curve" smooth="yes"/>
      <point x="586" y="64"/>
      <point x="482" y="-10"/>
      <point x="318" y="-10" type="curve" smooth="yes"/>
      <point x="190" y="-10"/>
      <point x="78" y="72"/>
      <point x="34" y="168" type="curve"/>
      <point x="152" y="250" type="line"/>
      <point x="200" y="166"/>
      <point x="248" y="124"/>
      <point x="322" y="124" type="curve" smooth="yes"/>
      <point x="380" y="124"/>
      <point x="408" y="148"/>
      <point x="408" y="194" type="curve" smooth="yes"/>
      <point x="408" y="250"/>
      <point x="345" y="270"/>
      <point x="263" y="302" type="curve" smooth="yes"/>
      <point x="193" y="328"/>
      <point x="74" y="386"/>
      <point x="74" y="522" type="curve" smooth="yes"/>
      <point x="74" y="624"/>
      <point x="175" y="710"/>
      <point x="320" y="710" type="curve" smooth="yes"/>
      <point x="464" y="710"/>
      <point x="534" y="638"/>
      <point x="576" y="562" type="curve"/>
    </contour>
  </outline>
</glyph>
<glyph name="percent" format="2">
  <advance width="917"/>
  <unicode hex="0025"/>
  <outline>
    <contour>
      <point x="22" y="534" type="curve" smooth="yes"/>
      <point x="22" y="636"/>
      <point x="104" y="719"/>
      <point x="212" y="719" type="curve" smooth="yes"/>
      <point x="320" y="719"/>
      <point x="401" y="636"/>
      <point x="401" y="534" type="curve" smooth="yes"/>
      <point x="401" y="432"/>
      <point x="320" y="350"/>
      <point x="212" y="350" type="curve" smooth="yes"/>
      <point x="104" y="350"/>
      <point x="22" y="432"/>
    </contour>
    <contour>
      <point x="147" y="534" type="curve" smooth="yes"/>
      <point x="147" y="498"/>
      <point x="174" y="468"/>
      <point x="212" y="468" type="curve" smooth="yes"/>
      <point x="250" y="468"/>
      <point x="276" y="498"/>
      <point x="276" y="534" type="curve" smooth="yes"/>
      <point x="276" y="570"/>
      <point x="250" y="601"/>
      <point x="212" y="601" type="curve" smooth="yes"/>
      <point x="174" y="601"/>
      <point x="147" y="570"/>
    </contour>
    <contour>
      <point x="518" y="166" type="curve" smooth="yes"/>
      <point x="518" y="268"/>
      <point x="599" y="351"/>
      <point x="707" y="351" type="curve" smooth="yes"/>
      <point x="815" y="351"/>
      <point x="896" y="268"/>
      <point x="896" y="166" type="curve" smooth="yes"/>
      <point x="896" y="64"/>
      <point x="815" y="-18"/>
      <point x="707" y="-18" type="curve" smooth="yes"/>
      <point x="599" y="-18"/>
      <point x="518" y="64"/>
    </contour>
    <contour>
      <point x="642" y="166" type="curve" smooth="yes"/>
      <point x="642" y="130"/>
      <point x="669" y="100"/>
      <point x="707" y="100" type="curve" smooth="yes"/>
      <point x="745" y="100"/>
      <point x="772" y="130"/>
      <point x="772" y="166" type="curve" smooth="yes"/>
      <point x="772" y="202"/>
      <point x="745" y="232"/>
      <point x="707" y="232" type="curve" smooth="yes"/>
      <point x="669" y="232"/>
      <point x="642" y="202"/>
    </contour>
    <contour>
      <point x="650" y="700" type="line"/>
      <point x="806" y="700" type="line"/>
      <point x="268" y="0" type="line"/>
      <point x="113" y="0" type="line"/>
    </contour>
  </outline>
</glyph>
<glyph name="ampersand" format="1">
  <advance width="752"/>
  <unicode hex="0026"/>
  <outline>
    <contour>
      <point x="223" y="372" type="line" smooth="yes"/>
      <point x="179" y="426"/>
      <point x="126" y="474"/>
      <point x="126" y="544" type="curve" smooth="yes"/>
      <point x="126" y="632"/>
      <point x="208" y="718"/>
      <point x="342" y="718" type="curve" smooth="yes"/>
      <point x="472" y="718"/>
      <point x="544" y="632"/>
      <point x="544" y="548" type="curve" smooth="yes"/>
      <point x="544" y="456"/>
      <point x="484" y="418"/>
      <point x="372" y="344" type="curve" smooth="yes"/>
      <point x="301" y="298"/>
      <point x="198" y="282"/>
      <point x="198" y="201" type="curve" smooth="yes"/>
      <point x="198" y="153"/>
      <point x="236" y="114"/>
      <point x="304" y="114" type="curve" smooth="yes"/>
      <point x="418" y="114"/>
      <point x="528" y="217"/>
      <point x="608" y="341" type="curve"/>
      <point x="709" y="264" type="line"/>
      <point x="622" y="136"/>
      <point x="482" y="-13"/>
      <point x="284" y="-13" type="curve" smooth="yes"/>
      <point x="150" y="-13"/>
      <point x="40" y="62"/>
      <point x="40" y="188" type="curve" smooth="yes"/>
      <point x="40" y="348"/>
      <point x="222" y="387"/>
      <point x="292" y="420" type="curve" smooth="yes"/>
      <point x="367" y="456"/>
      <point x="406" y="498"/>
      <point x="406" y="534" type="curve" smooth="yes"/>
      <point x="406" y="566"/>
      <point x="380" y="596"/>
      <point x="340" y="596" type="curve" smooth="yes"/>
      <point x="294" y="596"/>
      <point x="273" y="566"/>
      <point x="273" y="534" type="curve" smooth="yes"/>
      <point x="273" y="494"/>
      <point x="312" y="458"/>
      <point x="366" y="400" type="curve" smooth="yes"/>
      <point x="736" y="0" type="line"/>
      <point x="562" y="0" type="line"/>
    </contour>
  </outline>
</glyph>
<glyph name="parenleft" format="2">
  <advance width="340"/>
  <unicode hex="0028"/>
  <outline>
    <contour>
      <point x="190" y="780" type="curve"/>
      <point x="326" y="780" type="line"/>
      <point x="256" y="630"/>
      <point x="217" y="460"/>
      <point x="217" y="290" type="curve" smooth="yes"/>
      <point x="217" y="120"/>
      <point x="256" y="-50"/>
      <point x="326" y="-200" type="curve"/>
      <point x="190" y="-200" type="line"/>
      <point x="110" y="-50"/>
      <point x="68" y="120"/>
      <point x="68" y="290" type="curve" smooth="yes"/>
      <point x="68" y="460"/>
      <point x="110" y="630"/>
    </contour>
  </outline>
</glyph>
<glyph name="parenright" format="2">
  <advance width="340"/>
  <unicode hex="0029"/>
  <outline>
    <contour>
      <point x="151" y="-200" type="curve"/>
      <point x="14" y="-200" type="line"/>
      <point x="84" y="-50"/>
      <point x="124" y="120"/>
      <point x="124" y="290" type="curve" smooth="yes"/>
      <point x="124" y="460"/>
      <point x="84" y="630"/>
      <point x="14" y="780" type="curve"/>
      <point x="151" y="780" type="line"/>
      <point x="231" y="630"/>
      <point x="273" y="460"/>
      <point x="273" y="290" type="curve" smooth="yes"/>
      <point x="273" y="120"/>
      <point x="231" y="-50"/>
    </contour>
  </outline>
</glyph>
<glyph name="asterisk" format="1">
  <advance width="592"/>
  <unicode hex="002A"/>
  <outline>
    <contour>
      <point x="498" y="604" type="line"/>
      <point x="542" y="472" type="line"/>
      <point x="308" y="428" type="line"/>
      <point x="284" y="500" type="line"/>
    </contour>
    <contour>
      <point x="491" y="315" type="line"/>
      <point x="378" y="234" type="line"/>
      <point x="266" y="442" type="line"/>
      <point x="326" y="486" type="line"/>
    </contour>
    <contour>
      <point x="214" y="234" type="line"/>
      <point x="101" y="315" type="line"/>
      <point x="266" y="486" type="line"/>
      <point x="326" y="442" type="line"/>
    </contour>
    <contour>
      <point x="50" y="472" type="line"/>
      <point x="94" y="604" type="line"/>
      <point x="308" y="500" type="line"/>
      <point x="284" y="428" type="line"/>
    </contour>
    <contour>
      <point x="226" y="700" type="line"/>
      <point x="366" y="700" type="line"/>
      <point x="334" y="464" type="line"/>
      <point x="258" y="464" type="line"/>
    </contour>
  </outline>
</glyph>
<glyph name="slash" format="1">
  <advance width="608"/>
  <unicode hex="002F"/>
  <outline>
    <contour>
      <point x="448" y="700" type="line"/>
      <point x="594" y="700" type="line"/>
      <point x="167" y="-150" type="line"/>
      <point x="15" y="-150" type="line"/>
    </contour>
  </outline>
</glyph>
<glyph name="zero" format="2">
  <advance width="661"/>
  <unicode hex="0030"/>
  <outline>
    <contour>
      <point x="202" y="350" type="curve" smooth="yes"/>
      <point x="202" y="218"/>
      <point x="254" y="132"/>
      <point x="331" y="132" type="curve" smooth="yes"/>
      <point x="408" y="132"/>
      <point x="460" y="218"/>
      <point x="460" y="350" type="curve" smooth="yes"/>
      <point x="460" y="482"/>
      <point x="408" y="568"/>
      <point x="331" y="568" type="curve" smooth="yes"/>
      <point x="254" y="568"/>
      <point x="202" y="482"/>
    </contour>
    <contour>
      <point x="40" y="350" type="curve" smooth="yes"/>
      <point x="40" y="578"/>
      <point x="159" y="713"/>
      <point x="331" y="713" type="curve" smooth="yes"/>
      <point x="509" y="713"/>
      <point x="622" y="578"/>
      <point x="622" y="350" type="curve" smooth="yes"/>
      <point x="622" y="122"/>
      <point x="509" y="-13"/>
      <point x="331" y="-13" type="curve" smooth="yes"/>
      <point x="159" y="-13"/>
      <point x="40" y="122"/>
    </contour>
  </outline>
</glyph>
<glyph name="one" format="2">
  <advance width="508"/>
  <unicode hex="0031"/>
  <outline>
    <contour>
      <point x="68" y="498" type="line"/>
      <point x="68" y="646" type="line"/>
      <point x="404" y="713" type="line"/>
      <point x="404" y="0" type="line"/>
      <point x="241" y="0" type="line"/>
      <point x="241" y="541" type="line"/>
    </contour>
  </outline>
</glyph>
<glyph name="four" format="1">
  <advance width="698"/>
  <unicode hex="0034"/>
  <outline>
    <contour>
      <point x="14" y="124" type="line"/>
      <point x="420" y="700" type="line"/>
      <point x="546" y="700" type="line"/>
      <point x="546" y="0" type="line"/>
      <point x="370" y="0" type="line"/>
      <point x="370" y="180" type="line"/>
      <point x="389" y="192" type="line"/>
      <point x="389" y="454" type="line"/>
      <point x="237.457" y="246" type="line"/>
      <point x="462" y="246" type="line"/>
      <point x="479" y="268" type="line"/>
      <point x="656" y="268" type="line"/>
      <point x="656" y="124" type="line"/>
    </contour>
  </outline>
</glyph>
<glyph name="seven" format="2">
  <advance width="602"/>
  <unicode hex="0037"/>
  <outline>
    <contour>
      <point x="30" y="542" type="line"/>
      <point x="30" y="700" type="line"/>
      <point x="600" y="700" type="line"/>
      <point x="262" y="0" type="line"/>
      <point x="80" y="0" type="line"/>
      <point x="353" y="542" type="line"/>
    </contour>
  </outline>
</glyph>
<glyph name="eight" format="2">
  <advance width="626"/>
  <unicode hex="0038"/>
  <outline>
    <contour>
      <point x="77" y="531" type="curve" smooth="yes"/>
      <point x="77" y="649"/>
      <point x="185" y="716"/>
      <point x="313" y="716" type="curve" smooth="yes"/>
      <point x="441" y="716"/>
      <point x="550" y="649"/>
      <point x="550" y="531" type="curve" smooth="yes"/>
      <point x="550" y="403"/>
      <point x="428" y="342"/>
      <point x="313" y="342" type="curve" smooth="yes"/>
      <point x="198" y="342"/>
      <point x="77" y="403"/>
    </contour>
    <contour>
      <point x="236" y="515" type="curve" smooth="yes"/>
      <point x="236" y="467"/>
      <point x="269" y="434"/>
      <point x="313" y="434" type="curve" smooth="yes"/>
      <point x="357" y="434"/>
      <point x="391" y="467"/>
      <point x="391" y="515" type="curve" smooth="yes"/>
      <point x="391" y="563"/>
      <point x="359" y="595"/>
      <point x="313" y="595" type="curve" smooth="yes"/>
      <point x="267" y="595"/>
      <point x="236" y="563"/>
    </contour>
    <contour>
      <point x="52" y="190" type="curve" smooth="yes"/>
      <point x="52" y="338"/>
      <point x="198" y="396"/>
      <point x="313" y="396" type="curve" smooth="yes"/>
      <point x="428" y="396"/>
      <point x="574" y="338"/>
      <point x="574" y="190" type="curve" smooth="yes"/>
      <point x="574" y="62"/>
      <point x="451" y="-16"/>
      <point x="313" y="-16" type="curve" smooth="yes"/>
      <point x="175" y="-16"/>
      <point x="52" y="62"/>
    </contour>
    <contour>
      <point x="220" y="216" type="curve" smooth="yes"/>
      <point x="220" y="154"/>
      <point x="261" y="121"/>
      <point x="313" y="121" type="curve" smooth="yes"/>
      <point x="365" y="121"/>
      <point x="407" y="154"/>
      <point x="407" y="216" type="curve" smooth="yes"/>
      <point x="407" y="268"/>
      <point x="365" y="308"/>
      <point x="313" y="308" type="curve" smooth="yes"/>
      <point x="261" y="308"/>
      <point x="220" y="268"/>
    </contour>
  </outline>
</glyph>
<glyph name="equal" format="2">
  <advance width="625"/>
  <unicode hex="003D"/>
  <outline>
    <contour>
      <point x="56" y="84" type="line"/>
      <point x="56" y="215" type="line"/>
      <point x="570" y="215" type="line"/>
      <point x="570" y="84" type="line"/>
    </contour>
    <contour>
      <point x="56" y="290" type="line"/>
      <point x="56" y="421" type="line"/>
      <point x="570" y="421" type="line"/>
      <point x="570" y="290" type="line"/>
    </contour>
  </outline>
</glyph>
<glyph name="greater" format="2">
  <advance width="640"/>
  <unicode hex="003E"/>
  <outline>
    <contour>
      <point x="360" y="260" type="line"/>
      <point x="65" y="380" type="line"/>
      <point x="65" y="528" type="line"/>
      <point x="575" y="314" type="line"/>
      <point x="575" y="214" type="line"/>
      <point x="65" y="0" type="line"/>
      <point x="65" y="148" type="line"/>
    </contour>
  </outline>
</glyph>
<glyph name="question" format="1">
  <advance width="627"/>
  <unicode hex="003F"/>
  <outline>
    <contour>
      <point x="420" y="500" type="curve" smooth="yes"/>
      <point x="420" y="558"/>
      <point x="379" y="592"/>
      <point x="308" y="592" type="curve" smooth="yes"/>
      <point x="248" y="592"/>
      <point x="188" y="560"/>
      <point x="150" y="504" type="curve"/>
      <point x="48" y="590" type="line"/>
      <point x="119" y="672"/>
      <point x="199" y="720"/>
      <point x="318" y="720" type="curve" smooth="yes"/>
      <point x="450" y="720"/>
      <point x="574" y="638"/>
      <point x="574" y="500" type="curve" smooth="yes"/>
      <point x="574" y="376.594"/>
      <point x="462.32" y="305.982"/>
      <point x="358.683" y="284.823" type="curve"/>
      <point x="354" y="201" type="line"/>
      <point x="232" y="201" type="line"/>
      <point x="212" y="380" type="line"/>
      <point x="244" y="380" type="line" smooth="yes"/>
      <point x="364" y="380"/>
      <point x="420" y="449"/>
    </contour>
    <contour>
      <point x="200" y="59" type="curve" smooth="yes"/>
      <point x="200" y="103"/>
      <point x="239" y="142"/>
      <point x="294" y="142" type="curve" smooth="yes"/>
      <point x="349" y="142"/>
      <point x="388" y="103"/>
      <point x="388" y="59" type="curve" smooth="yes"/>
      <point x="388" y="15"/>
      <point x="349" y="-24"/>
      <point x="294" y="-24" type="curve" smooth="yes"/>
      <point x="239" y="-24"/>
      <point x="200" y="15"/>
    </contour>
  </outline>
</glyph>
<glyph name="E" format="2">
  <advance width="602"/>
  <unicode hex="0045"/>
  <outline>
    <contour>
      <point x="186" y="0" type="line"/>
      <point x="186" y="139" type="line"/>
      <point x="539" y="139" type="line"/>
      <point x="539" y="0" type="line"/>
    </contour>
    <contour>
      <point x="186" y="561" type="line"/>
      <point x="186" y="700" type="line"/>
      <point x="539" y="700" type="line"/>
      <point x="539" y="561" type="line"/>
    </contour>
    <contour>
      <point x="186" y="300" type="line"/>
      <point x="186" y="436" type="line"/>
      <point x="519" y="436" type="line"/>
      <point x="519" y="300" type="line"/>
    </contour>
    <contour>
      <point x="74" y="700" type="line"/>
      <point x="236" y="700" type="line"/>
      <point x="236" y="0" type="line"/>
      <point x="74" y="0" type="line"/>
    </contour>
  </outline>
</glyph>
<glyph name="F" format="1">
  <advance width="553"/>
  <unicode hex="0046"/>
  <outline>
    <contour>
      <point x="186" y="554" type="line"/>
      <point x="186" y="700" type="line"/>
      <point x="500" y="700" type="line"/>
      <point x="500" y="554" type="line"/>
    </contour>
    <contour>
      <point x="186" y="280" type="line"/>
      <point x="186" y="417" type="line"/>
      <point x="490" y="417" type="line"/>
      <point x="490" y="280" type="line"/>
    </contour>
    <contour>
      <point x="74" y="700" type="line"/>
      <point x="237" y="700" type="line"/>
      <point x="237" y="0" type="line"/>
      <point x="74" y="0" type="line"/>
    </contour>
  </outline>
</glyph>
<glyph name="G" format="1">
  <advance width="814"/>
  <unicode hex="0047"/>
  <outline>
    <contour>
      <point x="420" y="253" type="line"/>
      <point x="420" y="383" type="line"/>
      <point x="775" y="383" type="line"/>
      <point x="787" y="161"/>
      <point x="656" y="-22"/>
      <point x="417" y="-22" type="curve" smooth="yes"/>
      <point x="194" y="-22"/>
      <point x="34" y="128"/>
      <point x="34" y="350" type="curve" smooth="yes"/>
      <point x="34" y="572"/>
      <point x="200" y="716"/>
      <point x="423" y="716" type="curve" smooth="yes"/>
      <point x="571" y="716"/>
      <point x="673" y="647"/>
      <point x="739" y="550" type="curve"/>
      <point x="588" y="472" type="line"/>
      <point x="556" y="527"/>
      <point x="505" y="568"/>
      <point x="423" y="568" type="curve" smooth="yes"/>
      <point x="306" y="568"/>
      <point x="211" y="488"/>
      <point x="211" y="350" type="curve" smooth="yes"/>
      <point x="211" y="212"/>
      <point x="300" y="125"/>
      <point x="423" y="125" type="curve" smooth="yes"/>
      <point x="526.592" y="125"/>
      <point x="581.237" y="177.915"/>
      <point x="606.261" y="253" type="curve"/>
    </contour>
  </outline>
</glyph>
<glyph name="H" format="2">
  <advance width="785"/>
  <unicode hex="0048"/>
  <outline>
    <contour>
      <point x="121" y="294" type="line"/>
      <point x="121" y="444" type="line"/>
      <point x="650" y="444" type="line"/>
      <point x="650" y="294" type="line"/>
    </contour>
    <contour>
      <point x="544" y="700" type="line"/>
      <point x="712" y="700" type="line"/>
      <point x="712" y="0" type="line"/>
      <point x="544" y="0" type="line"/>
    </contour>
    <contour>
      <point x="74" y="700" type="line"/>
      <point x="242" y="700" type="line"/>
      <point x="242" y="0" type="line"/>
      <point x="74" y="0" type="line"/>
    </contour>
  </outline>
</glyph>
<glyph name="K" format="2">
  <advance width="698"/>
  <unicode hex="004B"/>
  <outline>
    <contour>
      <point x="74" y="700" type="line"/>
      <point x="248" y="700" type="line"/>
      <point x="248" y="0" type="line"/>
      <point x="74" y="0" type="line"/>
    </contour>
    <contour>
      <point x="486" y="700" type="line"/>
      <point x="685" y="700" type="line"/>
      <point x="401" y="372" type="line"/>
      <point x="700" y="0" type="line"/>
      <point x="495" y="0" type="line"/>
      <point x="200" y="367" type="line"/>
    </contour>
  </outline>
</glyph>
<glyph name="M" format="1">
  <advance width="891"/>
  <unicode hex="004D"/>
  <outline>
    <contour>
      <point x="253.881" y="350.93" type="line"/>
      <point x="212" y="0" type="line"/>
      <point x="34" y="0" type="line"/>
      <point x="147" y="735" type="line"/>
      <point x="446" y="308" type="line"/>
      <point x="744" y="735" type="line"/>
      <point x="858" y="0" type="line"/>
      <point x="678" y="0" type="line"/>
      <point x="636.325" y="349.21" type="line"/>
      <point x="446" y="65" type="line"/>
    </contour>
  </outline>
</glyph>
<glyph name="N" format="1">
  <advance width="793"/>
  <unicode hex="004E"/>
  <outline>
    <contour>
      <point x="557" y="700" type="line"/>
      <point x="720" y="700" type="line"/>
      <point x="720" y="-35" type="line"/>
      <point x="237" y="385.556" type="line"/>
      <point x="237" y="0" type="line"/>
      <point x="74" y="0" type="line"/>
      <point x="74" y="735" type="line"/>
      <point x="557" y="313.788" type="line"/>
    </contour>
  </outline>
</glyph>
<glyph name="Q" format="2">
  <advance width="863"/>
  <unicode hex="0051"/>
  <outline>
    <contour>
      <point x="213" y="350" type="curve" smooth="yes"/>
      <point x="213" y="214"/>
      <point x="307" y="126"/>
      <point x="426" y="126" type="curve" smooth="yes"/>
      <point x="545" y="126"/>
      <point x="627" y="208"/>
      <point x="627" y="332" type="curve" smooth="yes"/>
      <point x="627" y="456"/>
      <point x="548" y="561"/>
      <point x="414" y="561" type="curve" smooth="yes"/>
      <point x="295" y="561"/>
      <point x="213" y="474"/>
    </contour>
    <contour>
      <point x="34" y="350" type="curve" smooth="yes"/>
      <point x="34" y="566"/>
      <point x="201" y="716"/>
      <point x="414" y="716" type="curve" smooth="yes"/>
      <point x="630" y="716"/>
      <point x="787" y="566"/>
      <point x="787" y="350" type="curve" smooth="yes"/>
      <point x="787" y="134"/>
      <point x="634" y="-22"/>
      <point x="414" y="-22" type="curve" smooth="yes"/>
      <point x="194" y="-22"/>
      <point x="34" y="134"/>
    </contour>
    <contour>
      <point x="356" y="300" type="line"/>
      <point x="532" y="300" type="line"/>
      <point x="869" y="-12" type="line"/>
      <point x="688" y="-12" type="line"/>
    </contour>
  </outline>
</glyph>
<glyph name="T" format="2">
  <advance width="561"/>
  <unicode hex="0054"/>
  <outline>
    <contour>
      <point x="4" y="548" type="line"/>
      <point x="4" y="700" type="line"/>
      <point x="557" y="700" type="line"/>
      <point x="557" y="548" type="line"/>
      <point x="365" y="548" type="line"/>
      <point x="365" y="0" type="line"/>
      <point x="196" y="0" type="line"/>
      <point x="196" y="548" type="line"/>
    </contour>
  </outline>
</glyph>
<glyph name="V" format="2">
  <advance width="733"/>
  <unicode hex="0056"/>
  <outline>
    <contour>
      <point x="367" y="282" type="line"/>
      <point x="538" y="700" type="line"/>
      <point x="736" y="700" type="line"/>
      <point x="367" y="-44" type="line"/>
      <point x="-1" y="700" type="line"/>
      <point x="196" y="700" type="line"/>
    </contour>
  </outline>
</glyph>
<glyph name="W" format="1">
  <advance width="1065"/>
  <unicode hex="0057"/>
  <outline>
    <contour>
      <point x="731.486" y="286.156" type="line"/>
      <point x="860" y="700" type="line"/>
      <point x="1061" y="700" type="line"/>
      <point x="758" y="-42" type="line"/>
      <point x="532" y="380" type="line"/>
      <point x="307" y="-42" type="line"/>
      <point x="4" y="700" type="line"/>
      <point x="205" y="700" type="line"/>
      <point x="333.102" y="287.48" type="line"/>
      <point x="532" y="735" type="line"/>
    </contour>
  </outline>
</glyph>
<glyph name="X" format="2">
  <advance width="684"/>
  <unicode hex="0058"/>
  <outline>
    <contour>
      <point x="458" y="700" type="line"/>
      <point x="666" y="700" type="line"/>
      <point x="448" y="358" type="line"/>
      <point x="681" y="0" type="line"/>
      <point x="472" y="0" type="line"/>
      <point x="344" y="233" type="line"/>
      <point x="212" y="0" type="line"/>
      <point x="4" y="0" type="line"/>
      <point x="244" y="358" type="line"/>
      <point x="29" y="700" type="line"/>
      <point x="237" y="700" type="line"/>
      <point x="346" y="497" type="line"/>
    </contour>
  </outline>
</glyph>
<glyph name="Y" format="1">
  <advance width="660"/>
  <unicode hex="0059"/>
  <outline>
    <contour>
      <point x="466" y="700" type="line"/>
      <point x="662" y="700" type="line"/>
      <point x="416" y="283.578" type="line"/>
      <point x="416" y="0" type="line"/>
      <point x="244" y="0" type="line"/>
      <point x="244" y="283.578" type="line"/>
      <point x="-2" y="700" type="line"/>
      <point x="194" y="700" type="line"/>
      <point x="330" y="437" type="line"/>
    </contour>
  </outline>
</glyph>
<glyph name="Z" format="2">
  <advance width="618"/>
  <unicode hex="005A"/>
  <outline>
    <contour>
      <point x="56" y="548" type="line"/>
      <point x="56" y="700" type="line"/>
      <point x="606" y="700" type="line"/>
      <point x="274" y="145" type="line"/>
      <point x="570" y="145" type="line"/>
      <point x="570" y="0" type="line"/>
      <point x="9" y="0" type="line"/>
      <point x="336" y="548" type="line"/>
    </contour>
  </outline>
</glyph>
<glyph name="bracketleft" format="1">
  <advance width="362"/>
  <unicode hex="005B"/>
  <outline>
    <contour>
      <point x="242" y="648" type="line"/>
      <point x="242" y="-88" type="line"/>
      <point x="342" y="-88" type="line"/>
      <point x="342" y="-220" type="line"/>
      <point x="90" y="-220" type="line"/>
      <point x="90" y="780" type="line"/>
      <point x="342" y="780" type="line"/>
      <point x="342" y="648" type="line"/>
    </contour>
  </outline>
</glyph>
<glyph name="bracketright" format="2">
  <advance width="361"/>
  <unicode hex="005D"/>
  <outline>
    <contour>
      <point x="121" y="-89" type="line"/>
      <point x="121" y="649" type="line"/>
      <point x="20" y="649" type="line"/>
      <point x="20" y="780" type="line"/>
      <point x="272" y="780" type="line"/>
      <point x="272" y="-220" type="line"/>
      <point x="20" y="-220" type="line"/>
      <point x="20" y="-89" type="line"/>
    </contour>
  </outline>
</glyph>
<glyph name="a" format="1">
  <advance width="544"/>
  <unicode hex="0061"/>
  <outline>
    <contour>
      <point x="176" y="138" type="curve" smooth="yes"/>
      <point x="176" y="104"/>
      <point x="202" y="89"/>
      <point x="242" y="89" type="curve" smooth="yes"/>
      <point x="297" y="89"/>
      <point x="345" y="112"/>
      <point x="345" y="186" type="curve"/>
      <point x="361" y="130" type="line"/>
      <point x="361" y="41"/>
      <point x="286" y="-10"/>
      <point x="191" y="-10" type="curve" smooth="yes"/>
      <point x="89" y="-10"/>
      <point x="24" y="41"/>
      <point x="24" y="128" type="curve" smooth="yes"/>
      <point x="24" y="222"/>
      <point x="105" y="279"/>
      <point x="223" y="279" type="curve" smooth="yes"/>
      <point x="292" y="279"/>
      <point x="358" y="252"/>
      <point x="378" y="230" type="curve"/>
      <point x="378" y="158" type="line"/>
      <point x="344" y="184"/>
      <point x="310" y="197"/>
      <point x="258" y="197" type="curve" smooth="yes"/>
      <point x="206" y="197"/>
      <point x="176" y="174"/>
    </contour>
    <contour>
      <point x="118" y="318" type="curve"/>
      <point x="66" y="420" type="line"/>
      <point x="119" y="445"/>
      <point x="193" y="473"/>
      <point x="276" y="473" type="curve" smooth="yes"/>
      <point x="400" y="473"/>
      <point x="490" y="420"/>
      <point x="490" y="324" type="curve" smooth="yes"/>
      <point x="490" y="0" type="line"/>
      <point x="345" y="0" type="line"/>
      <point x="345" y="294" type="line" smooth="yes"/>
      <point x="345" y="333"/>
      <point x="314" y="358"/>
      <point x="264" y="358" type="curve" smooth="yes"/>
      <point x="198" y="358"/>
      <point x="140" y="331"/>
    </contour>
  </outline>
</glyph>
<glyph name="e" format="1">
  <advance width="563"/>
  <unicode hex="0065"/>
  <outline>
    <contour>
      <point x="136" y="198" type="line"/>
      <point x="136" y="287" type="line"/>
      <point x="385.52" y="287" type="line"/>
      <point x="374.517" y="333.708"/>
      <point x="342.979" y="359"/>
      <point x="288" y="359" type="curve" smooth="yes"/>
      <point x="222" y="359"/>
      <point x="177" y="322"/>
      <point x="177" y="254" type="curve"/>
      <point x="175" y="230" type="line"/>
      <point x="175" y="146"/>
      <point x="232" y="105"/>
      <point x="301" y="105" type="curve" smooth="yes"/>
      <point x="345" y="105"/>
      <point x="373" y="121"/>
      <point x="390" y="158" type="curve"/>
      <point x="516" y="116" type="line"/>
      <point x="480" y="44"/>
      <point x="416" y="-10"/>
      <point x="294" y="-10" type="curve" smooth="yes"/>
      <point x="146" y="-10"/>
      <point x="37" y="91"/>
      <point x="37" y="230" type="curve" smooth="yes"/>
      <point x="37" y="247"/>
      <point x="39" y="265"/>
      <point x="42" y="281" type="curve" smooth="yes"/>
      <point x="61" y="394"/>
      <point x="161" y="470"/>
      <point x="291" y="470" type="curve" smooth="yes"/>
      <point x="422" y="470"/>
      <point x="525" y="382"/>
      <point x="525" y="237" type="curve" smooth="yes"/>
      <point x="525" y="229"/>
      <point x="525" y="214"/>
      <point x="523" y="198" type="curve"/>
    </contour>
  </outline>
</glyph>
<glyph name="h" format="1">
  <advance width="568"/>
  <unicode hex="0068"/>
  <outline>
    <contour>
      <point x="212" y="780" type="line"/>
      <point x="212" y="0" type="line"/>
      <point x="60" y="0" type="line"/>
      <point x="60" y="780" type="line"/>
    </contour>
    <contour>
      <point x="358" y="280" type="line" smooth="yes"/>
      <point x="358" y="334"/>
      <point x="341" y="364"/>
      <point x="291" y="364" type="curve" smooth="yes"/>
      <point x="243" y="364"/>
      <point x="212" y="334"/>
      <point x="212" y="280" type="curve"/>
      <point x="186" y="280" type="line"/>
      <point x="186" y="389"/>
      <point x="238" y="477"/>
      <point x="352" y="477" type="curve" smooth="yes"/>
      <point x="466" y="477"/>
      <point x="510" y="414"/>
      <point x="510" y="302" type="curve" smooth="yes"/>
      <point x="510" y="0" type="line"/>
      <point x="358" y="0" type="line"/>
    </contour>
  </outline>
</glyph>
<glyph name="q" format="2">
  <advance width="616"/>
  <unicode hex="0071"/>
  <outline>
    <contour>
      <point x="408" y="-220" type="line"/>
      <point x="408" y="460" type="line"/>
      <point x="559" y="460" type="line"/>
      <point x="559" y="-220" type="line"/>
    </contour>
    <contour>
      <point x="32" y="230" type="curve" smooth="yes"/>
      <point x="32" y="392"/>
      <point x="138" y="476"/>
      <point x="250" y="476" type="curve" smooth="yes"/>
      <point x="371" y="476"/>
      <point x="444" y="379"/>
      <point x="444" y="230" type="curve" smooth="yes"/>
      <point x="444" y="81"/>
      <point x="371" y="-16"/>
      <point x="250" y="-16" type="curve" smooth="yes"/>
      <point x="138" y="-16"/>
      <point x="32" y="68"/>
    </contour>
    <contour>
      <point x="190" y="230" type="curve" smooth="yes"/>
      <point x="190" y="158"/>
      <point x="240" y="118"/>
      <point x="300" y="118" type="curve" smooth="yes"/>
      <point x="352" y="118"/>
      <point x="408" y="155"/>
      <point x="408" y="230" type="curve" smooth="yes"/>
      <point x="408" y="305"/>
      <point x="352" y="342"/>
      <point x="300" y="342" type="curve" smooth="yes"/>
      <point x="240" y="342"/>
      <point x="190" y="302"/>
    </contour>
  </outline>
</glyph>
<glyph name="s" format="1">
  <advance width="451"/>
  <unicode hex="0073"/>
  <outline>
    <contour>
      <point x="84" y="173" type="line"/>
      <point x="147" y="128"/>
      <point x="203" y="98"/>
      <point x="237" y="98" type="curve" smooth="yes"/>
      <point x="267" y="98"/>
      <point x="281" y="109"/>
      <point x="281" y="129" type="curve" smooth="yes"/>
      <point x="281" y="157"/>
      <point x="235" y="173"/>
      <point x="183" y="192" type="curve" smooth="yes"/>
      <point x="118" y="216"/>
      <point x="53" y="254"/>
      <point x="53" y="340" type="curve" smooth="yes"/>
      <point x="53" y="412"/>
      <point x="126" y="470"/>
      <point x="223" y="470" type="curve" smooth="yes"/>
      <point x="302" y="470"/>
      <point x="371" y="440"/>
      <point x="417" y="400" type="curve"/>
      <point x="362" y="307" type="line"/>
      <point x="317" y="342"/>
      <point x="272" y="362"/>
      <point x="235" y="362" type="curve" smooth="yes"/>
      <point x="202" y="362"/>
      <point x="190" y="350"/>
      <point x="190" y="334" type="curve" smooth="yes"/>
      <point x="190" y="306"/>
      <point x="243" y="295"/>
      <point x="300" y="273" type="curve" smooth="yes"/>
      <point x="365" y="248"/>
      <point x="427" y="218"/>
      <point x="427" y="130" type="curve" smooth="yes"/>
      <point x="427" y="35"/>
      <point x="360" y="-19"/>
      <point x="250" y="-19" type="curve" smooth="yes"/>
      <point x="154" y="-19"/>
      <point x="73" y="21"/>
      <point x="19" y="79" type="curve"/>
    </contour>
  </outline>
</glyph>
<glyph name="w" format="1">
  <advance width="761"/>
  <unicode hex="0077"/>
  <outline>
    <contour>
      <point x="-8" y="460" type="line"/>
      <point x="152" y="460" type="line"/>
      <point x="246.117" y="225.534" type="line"/>
      <point x="378" y="495" type="line"/>
      <point x="514.566" y="224.32" type="line"/>
      <point x="610" y="460" type="line"/>
      <point x="768" y="460" type="line"/>
      <point x="532" y="-28" type="line"/>
      <point x="378.497" y="245.635" type="line"/>
      <point x="230" y="-28" type="line"/>
    </contour>
  </outline>
</glyph>
<glyph name="y" format="1">
  <advance width="521"/>
  <unicode hex="0079"/>
  <outline>
    <contour>
      <point x="530" y="460" type="line"/>
      <point x="230" y="-220" type="line"/>
      <point x="78" y="-220" type="line"/>
      <point x="190" y="37" type="line"/>
      <point x="-10" y="460" type="line"/>
      <point x="158" y="460" type="line"/>
      <point x="306" y="90" type="line"/>
      <point x="228" y="92" type="line"/>
      <point x="375" y="460" type="line"/>
    </contour>
  </outline>
</glyph>
<glyph name="z" format="2">
  <advance width="521"/>
  <unicode hex="007A"/>
  <outline>
    <contour>
      <point x="257" y="323" type="line"/>
      <point x="58" y="323" type="line"/>
      <point x="58" y="460" type="line"/>
      <point x="507" y="460" type="line"/>
      <point x="278" y="137" type="line"/>
      <point x="475" y="137" type="line"/>
      <point x="475" y="0" type="line"/>
      <point x="15" y="0" type="line"/>
    </contour>
  </outline>
</glyph>
<glyph name="braceright" format="2">
  <advance width="397"/>
  <unicode hex="007D"/>
  <outline>
    <contour>
      <point x="136" y="-30" type="curve" smooth="yes"/>
      <point x="136" y="90" type="line" smooth="yes"/>
      <point x="136" y="179"/>
      <point x="140" y="300"/>
      <point x="280" y="300" type="curve"/>
      <point x="280" y="280" type="line"/>
      <point x="140" y="280"/>
      <point x="136" y="401"/>
      <point x="136" y="490" type="curve" smooth="yes"/>
      <point x="136" y="610" type="line" smooth="yes"/>
      <point x="136" y="636"/>
      <point x="118" y="660"/>
      <point x="88" y="660" type="curve" smooth="yes"/>
      <point x="54" y="660" type="line"/>
      <point x="54" y="780" type="line"/>
      <point x="144" y="780" type="line" smooth="yes"/>
      <point x="225" y="780"/>
      <point x="304" y="739"/>
      <point x="304" y="640" type="curve" smooth="yes"/>
      <point x="304" y="454" type="line" smooth="yes"/>
      <point x="304" y="378"/>
      <point x="322" y="354"/>
      <point x="364" y="344" type="curve"/>
      <point x="364" y="236" type="line"/>
      <point x="322" y="226"/>
      <point x="304" y="202"/>
      <point x="304" y="126" type="curve" smooth="yes"/>
      <point x="304" y="-60" type="line" smooth="yes"/>
      <point x="304" y="-159"/>
      <point x="225" y="-200"/>
      <point x="144" y="-200" type="curve" smooth="yes"/>
      <point x="54" y="-200" type="line"/>
      <point x="54" y="-80" type="line"/>
      <point x="88" y="-80" type="line" smooth="yes"/>
      <point x="118" y="-80"/>
      <point x="136" y="-56"/>
    </contour>
  </outline>
</glyph>
<glyph name="exclamdown" format="2">
  <advance width="343"/>
  <unicode hex="00A1"/>
  <outline>
    <contour>
      <point x="265" y="-230" type="line"/>
      <point x="78" y="-230" type="line"/>
      <point x="111" y="240" type="line"/>
      <point x="233" y="240" type="line"/>
    </contour>
    <contour>
      <point x="266" y="409" type="curve" smooth="yes"/>
      <point x="266" y="359"/>
      <point x="226" y="323"/>
      <point x="172" y="323" type="curve" smooth="yes"/>
      <point x="118" y="323"/>
      <point x="78" y="359"/>
      <point x="78" y="409" type="curve" smooth="yes"/>
      <point x="78" y="459"/>
      <point x="118" y="494"/>
      <point x="172" y="494" type="curve" smooth="yes"/>
      <point x="226" y="494"/>
      <point x="266" y="459"/>
    </contour>
  </outline>
</glyph>
<glyph name="cent" format="2">
  <advance width="580"/>
  <unicode hex="00A2"/>
  <outline>
    <contour>
      <point x="237" y="38" type="line"/>
      <point x="347" y="38" type="line"/>
      <point x="356" y="-112" type="line"/>
      <point x="227" y="-112" type="line"/>
    </contour>
    <contour>
      <point x="205" y="230" type="curve" smooth="yes"/>
      <point x="205" y="152"/>
      <point x="262" y="110"/>
      <point x="328" y="110" type="curve" smooth="yes"/>
      <point x="390" y="110"/>
      <point x="437" y="141"/>
      <point x="464" y="180" type="curve"/>
      <point x="464" y="30" type="line"/>
      <point x="432" y="4"/>
      <point x="379" y="-10"/>
      <point x="316" y="-10" type="curve" smooth="yes"/>
      <point x="162" y="-10"/>
      <point x="50" y="85"/>
      <point x="50" y="230" type="curve" smooth="yes"/>
      <point x="50" y="375"/>
      <point x="162" y="470"/>
      <point x="316" y="470" type="curve" smooth="yes"/>
      <point x="379" y="470"/>
      <point x="432" y="454"/>
      <point x="464" y="430" type="curve"/>
      <point x="464" y="280" type="line"/>
      <point x="437" y="319"/>
      <point x="390" y="350"/>
      <point x="328" y="350" type="curve" smooth="yes"/>
      <point x="262" y="350"/>
      <point x="205" y="302"/>
    </contour>
    <contour>
      <point x="227" y="578" type="line"/>
      <point x="356" y="578" type="line"/>
      <point x="347" y="428" type="line"/>
      <point x="237" y="428" type="line"/>
    </contour>
  </outline>
</glyph>
<glyph name="sterling" format="1">
  <advance width="611"/>
  <unicode hex="00A3"/>
  <outline>
    <contour>
      <point x="67" y="370" type="line"/>
      <point x="446" y="370" type="line"/>
      <point x="446" y="270" type="line"/>
      <point x="67" y="270" type="line"/>
    </contour>
    <contour>
      <point x="434" y="467" type="line"/>
      <point x="430" y="521"/>
      <point x="407" y="576"/>
      <point x="333" y="576" type="curve" smooth="yes"/>
      <point x="285" y="576"/>
      <point x="243" y="552"/>
      <point x="243" y="495" type="curve" smooth="yes"/>
      <point x="243" y="410"/>
      <point x="335" y="382"/>
      <point x="335" y="270" type="curve" smooth="yes"/>
      <point x="335" y="164"/>
      <point x="214" y="70"/>
      <point x="140" y="50" type="curve"/>
      <point x="191" y="139" type="line"/>
      <point x="539" y="139" type="line"/>
      <point x="539" y="0" type="line"/>
      <point x="52" y="0" type="line"/>
      <point x="150" y="102"/>
      <point x="189" y="186"/>
      <point x="189" y="286" type="curve" smooth="yes"/>
      <point x="189" y="380"/>
      <point x="85" y="404"/>
      <point x="85" y="521" type="curve" smooth="yes"/>
      <point x="85" y="640"/>
      <point x="196" y="710"/>
      <point x="327" y="710" type="curve" smooth="yes"/>
      <point x="479" y="710"/>
      <point x="566" y="603"/>
      <point x="571" y="517" type="curve"/>
    </contour>
  </outline>
</glyph>
<glyph name="currency" format="1">
  <advance width="576"/>
  <unicode hex="00A4"/>
  <outline>
    <contour>
      <point x="23" y="503" type="line"/>
      <point x="86" y="565" type="line"/>
      <point x="185" y="465" type="line"/>
      <point x="124" y="404" type="line"/>
    </contour>
    <contour>
      <point x="86" y="35" type="line"/>
      <point x="23" y="97" type="line"/>
      <point x="124" y="196" type="line"/>
      <point x="185" y="135" type="line"/>
    </contour>
    <contour>
      <point x="454" y="404" type="line"/>
      <point x="392" y="465" type="line"/>
      <point x="492" y="565" type="line"/>
      <point x="553" y="503" type="line"/>
    </contour>
    <contour>
      <point x="392" y="135" type="line"/>
      <point x="454" y="196" type="line"/>
      <point x="553" y="97" type="line"/>
      <point x="492" y="35" type="line"/>
    </contour>
    <contour>
      <point x="51" y="300" type="curve" smooth="yes"/>
      <point x="51" y="439"/>
      <point x="154" y="540"/>
      <point x="289" y="540" type="curve" smooth="yes"/>
      <point x="424" y="540"/>
      <point x="527" y="439"/>
      <point x="527" y="300" type="curve" smooth="yes"/>
      <point x="527" y="161"/>
      <point x="424" y="60"/>
      <point x="289" y="60" type="curve" smooth="yes"/>
      <point x="154" y="60"/>
      <point x="51" y="161"/>
    </contour>
    <contour>
      <point x="188" y="300" type="curve" smooth="yes"/>
      <point x="188" y="238"/>
      <point x="230" y="197"/>
      <point x="289" y="197" type="curve" smooth="yes"/>
      <point x="348" y="197"/>
      <point x="390" y="238"/>
      <point x="390" y="300" type="curve" smooth="yes"/>
      <point x="390" y="362"/>
      <point x="348" y="403"/>
      <point x="289" y="403" type="curve" smooth="yes"/>
      <point x="230" y="403"/>
      <point x="188" y="362"/>
    </contour>
  </outline>
</glyph>
<glyph name="brokenbar" format="1">
  <advance width="352"/>
  <unicode hex="00A6"/>
  <outline>
    <contour>
      <point x="100" y="695" type="line"/>
      <point x="252" y="695" type="line"/>
      <point x="252" y="430" type="line"/>
      <point x="100" y="430" type="line"/>
    </contour>
    <contour>
      <point x="252" y="270" type="line"/>
      <point x="252" y="5" type="line"/>
      <point x="100" y="5" type="line"/>
      <point x="100" y="270" type="line"/>
    </contour>
  </outline>
</glyph>
<glyph name="section" format="1">
  <advance width="576"/>
  <unicode hex="00A7"/>
  <outline>
    <contour>
      <point x="400" y="549" type="line"/>
      <point x="373" y="580"/>
      <point x="325" y="599"/>
      <point x="294" y="599" type="curve" smooth="yes"/>
      <point x="260" y="599"/>
      <point x="243" y="587"/>
      <point x="243" y="569" type="curve" smooth="yes"/>
      <point x="243" y="543"/>
      <point x="289" y="534"/>
      <point x="343" y="519" type="curve" smooth="yes"/>
      <point x="419" y="498"/>
      <point x="480" y="451"/>
      <point x="480" y="378" type="curve" smooth="yes"/>
      <point x="480" y="275"/>
      <point x="376" y="229"/>
      <point x="268" y="229" type="curve"/>
      <point x="268" y="271" type="line"/>
      <point x="306" y="277"/>
      <point x="343" y="303"/>
      <point x="343" y="344" type="curve" smooth="yes"/>
      <point x="343" y="398"/>
      <point x="273" y="416"/>
      <point x="221" y="436" type="curve" smooth="yes"/>
      <point x="163" y="459"/>
      <point x="99" y="495"/>
      <point x="99" y="578" type="curve" smooth="yes"/>
      <point x="99" y="674"/>
      <point x="194" y="724"/>
      <point x="284" y="724" type="curve" smooth="yes"/>
      <point x="364" y="724"/>
      <point x="443" y="689"/>
      <point x="471" y="648" type="curve"/>
    </contour>
    <contour>
      <point x="128" y="173" type="line"/>
      <point x="177" y="123"/>
      <point x="240" y="102"/>
      <point x="278" y="102" type="curve" smooth="yes"/>
      <point x="316" y="102"/>
      <point x="333" y="116"/>
      <point x="333" y="137" type="curve" smooth="yes"/>
      <point x="333" y="168"/>
      <point x="290" y="180"/>
      <point x="235" y="195" type="curve" smooth="yes"/>
      <point x="160" y="216"/>
      <point x="84" y="257"/>
      <point x="84" y="334" type="curve" smooth="yes"/>
      <point x="84" y="429"/>
      <point x="189" y="480"/>
      <point x="303" y="480" type="curve"/>
      <point x="303" y="442" type="line"/>
      <point x="262" y="428"/>
      <point x="226" y="410"/>
      <point x="226" y="369" type="curve" smooth="yes"/>
      <point x="226" y="309"/>
      <point x="306" y="299"/>
      <point x="357" y="278" type="curve" smooth="yes"/>
      <point x="422" y="251"/>
      <point x="484" y="209"/>
      <point x="484" y="130" type="curve" smooth="yes"/>
      <point x="484" y="25"/>
      <point x="384" y="-22"/>
      <point x="285" y="-22" type="curve" smooth="yes"/>
      <point x="175" y="-22"/>
      <point x="100" y="20"/>
      <point x="55" y="76" type="curve"/>
    </contour>
  </outline>
</glyph>
<glyph name="dieresis" format="2">
  <advance width="510"/>
  <unicode hex="00A8"/>
  <outline>
    <contour>
      <point x="289" y="632" type="curve" smooth="yes"/>
      <point x="289" y="680"/>
      <point x="329" y="714"/>
      <point x="377" y="714" type="curve" smooth="yes"/>
      <point x="425" y="714"/>
      <point x="465" y="680"/>
      <point x="465" y="632" type="curve" smooth="yes"/>
      <point x="465" y="584"/>
      <point x="425" y="550"/>
      <point x="377" y="550" type="curve" smooth="yes"/>
      <point x="329" y="550"/>
      <point x="289" y="584"/>
    </contour>
    <contour>
      <point x="46" y="632" type="curve" smooth="yes"/>
      <point x="46" y="680"/>
      <point x="86" y="714"/>
      <point x="134" y="714" type="curve" smooth="yes"/>
      <point x="182" y="714"/>
      <point x="222" y="680"/>
      <point x="222" y="632" type="curve" smooth="yes"/>
      <point x="222" y="584"/>
      <point x="182" y="550"/>
      <point x="134" y="550" type="curve" smooth="yes"/>
      <point x="86" y="550"/>
      <point x="46" y="584"/>
    </contour>
  </outline>
</glyph>
<glyph name="copyright" format="1">
  <advance width="800"/>
  <unicode hex="00A9"/>
  <outline>
    <contour>
      <point x="289" y="350" type="curve" smooth="yes"/>
      <point x="289" y="272"/>
      <point x="345" y="227"/>
      <point x="415" y="227" type="curve" smooth="yes"/>
      <point x="474" y="227"/>
      <point x="513" y="252"/>
      <point x="540" y="282" type="curve"/>
      <point x="540" y="173" type="line"/>
      <point x="506" y="147"/>
      <point x="470" y="130"/>
      <point x="409" y="130" type="curve" smooth="yes"/>
      <point x="274" y="130"/>
      <point x="178" y="219"/>
      <point x="178" y="350" type="curve" smooth="yes"/>
      <point x="178" y="481"/>
      <point x="274" y="570"/>
      <point x="409" y="570" type="curve" smooth="yes"/>
      <point x="470" y="570"/>
      <point x="506" y="553"/>
      <point x="540" y="527" type="curve"/>
      <point x="540" y="418" type="line"/>
      <point x="513" y="448"/>
      <point x="474" y="473"/>
      <point x="415" y="473" type="curve" smooth="yes"/>
      <point x="345" y="473"/>
      <point x="289" y="428"/>
    </contour>
    <contour>
      <point x="95" y="350" type="curve" smooth="yes"/>
      <point x="95" y="172"/>
      <point x="227" y="40"/>
      <point x="400" y="40" type="curve" smooth="yes"/>
      <point x="573" y="40"/>
      <point x="705" y="172"/>
      <point x="705" y="350" type="curve" smooth="yes"/>
      <point x="705" y="528"/>
      <point x="573" y="660"/>
      <point x="400" y="660" type="curve" smooth="yes"/>
      <point x="227" y="660"/>
      <point x="95" y="528"/>
    </contour>
    <contour>
      <point x="40" y="350" type="curve" smooth="yes"/>
      <point x="40" y="559"/>
      <point x="196" y="710"/>
      <point x="400" y="710" type="curve" smooth="yes"/>
      <point x="604" y="710"/>
      <point x="760" y="559"/>
      <point x="760" y="350" type="curve" smooth="yes"/>
      <point x="760" y="141"/>
      <point x="604" y="-10"/>
      <point x="400" y="-10" type="curve" smooth="yes"/>
      <point x="196" y="-10"/>
      <point x="40" y="141"/>
    </contour>
  </outline>
</glyph>
<glyph name="ordfeminine" format="1">
  <advance width="270"/>
  <unicode hex="00AA"/>
  <outline>
    <contour>
      <point x="94" y="530" type="curve" smooth="yes"/>
      <point x="94" y="514"/>
      <point x="106" y="505"/>
      <point x="127" y="505" type="curve" smooth="yes"/>
      <point x="153" y="505"/>
      <point x="178" y="516"/>
      <point x="178" y="553" type="curve"/>
      <point x="186" y="525" type="line"/>
      <point x="186" y="481"/>
      <point x="149" y="455"/>
      <point x="101" y="455" type="curve" smooth="yes"/>
      <point x="53" y="455"/>
      <point x="18" y="482"/>
      <point x="18" y="528" type="curve" smooth="yes"/>
      <point x="18" y="574"/>
      <point x="61" y="603"/>
      <point x="117" y="603" type="curve" smooth="yes"/>
      <point x="152" y="603"/>
      <point x="184" y="589"/>
      <point x="194" y="579" type="curve"/>
      <point x="194" y="543" type="line"/>
      <point x="177" y="556"/>
      <point x="160" y="563"/>
      <point x="134" y="563" type="curve" smooth="yes"/>
      <point x="110" y="563"/>
      <point x="94" y="548"/>
    </contour>
    <contour>
      <point x="64" y="625" type="curve"/>
      <point x="38" y="679" type="line"/>
      <point x="64" y="691"/>
      <point x="102" y="705"/>
      <point x="144" y="705" type="curve" smooth="yes"/>
      <point x="206" y="705"/>
      <point x="250" y="679"/>
      <point x="250" y="631" type="curve" smooth="yes"/>
      <point x="250" y="460" type="line"/>
      <point x="178" y="460" type="line"/>
      <point x="178" y="611" type="line" smooth="yes"/>
      <point x="178" y="631"/>
      <point x="162" y="645"/>
      <point x="137" y="645" type="curve" smooth="yes"/>
      <point x="104" y="645"/>
      <point x="75" y="632"/>
    </contour>
  </outline>
</glyph>
<glyph name="logicalnot" format="1">
  <advance width="650"/>
  <unicode hex="00AC"/>
  <outline>
    <contour>
      <point x="65" y="272" type="line"/>
      <point x="65" y="403" type="line"/>
      <point x="585" y="403" type="line"/>
      <point x="585" y="175" type="line"/>
      <point x="479" y="175" type="line"/>
      <point x="479" y="272" type="line"/>
    </contour>
  </outline>
</glyph>
<glyph name="plusminus" format="1">
  <advance width="633"/>
  <unicode hex="00B1"/>
  <outline>
    <contour>
      <point x="65" y="6" type="line"/>
      <point x="65" y="136" type="line"/>
      <point x="569" y="136" type="line"/>
      <point x="569" y="6" type="line"/>
    </contour>
    <contour>
      <point x="65" y="333" type="line"/>
      <point x="65" y="468" type="line"/>
      <point x="569" y="468" type="line"/>
      <point x="569" y="333" type="line"/>
    </contour>
    <contour>
      <point x="240" y="620" type="line"/>
      <point x="393" y="620" type="line"/>
      <point x="393" y="181" type="line"/>
      <point x="240" y="181" type="line"/>
    </contour>
  </outline>
</glyph>
<glyph name="uni00B2" format="2">
  <advance width="407"/>
  <unicode hex="00B2"/>
  <outline>
    <contour>
      <point x="25" y="282" type="line"/>
      <point x="212" y="476" type="line" smooth="yes"/>
      <point x="246" y="512"/>
      <point x="266" y="536"/>
      <point x="266" y="570" type="curve" smooth="yes"/>
      <point x="266" y="597"/>
      <point x="248" y="624"/>
      <point x="210" y="624" type="curve" smooth="yes"/>
      <point x="170" y="624"/>
      <point x="144" y="592"/>
      <point x="144" y="546" type="curve"/>
      <point x="45" y="546" type="line"/>
      <point x="45" y="635"/>
      <point x="104" y="710"/>
      <point x="214" y="710" type="curve" smooth="yes"/>
      <point x="318" y="710"/>
      <point x="370" y="640"/>
      <point x="370" y="575" type="curve" smooth="yes"/>
      <point x="370" y="531"/>
      <point x="346" y="493"/>
      <point x="310" y="462" type="curve" smooth="yes"/>
      <point x="213" y="374" type="line"/>
      <point x="381" y="374" type="line"/>
      <point x="381" y="282" type="line"/>
    </contour>
  </outline>
</glyph>
<glyph name="uni00B3" format="1">
  <advance width="364"/>
  <unicode hex="00B3"/>
  <outline>
    <contour>
      <point x="154" y="483" type="curve"/>
      <point x="154" y="529" type="line"/>
      <point x="201" y="529"/>
      <point x="232" y="555"/>
      <point x="232" y="586" type="curve" smooth="yes"/>
      <point x="232" y="611"/>
      <point x="216" y="627"/>
      <point x="184" y="627" type="curve" smooth="yes"/>
      <point x="152" y="627"/>
      <point x="129" y="607"/>
      <point x="129" y="577" type="curve"/>
      <point x="36" y="577" type="line"/>
      <point x="36" y="651"/>
      <point x="95" y="708"/>
      <point x="184" y="708" type="curve" smooth="yes"/>
      <point x="278" y="708"/>
      <point x="332" y="657"/>
      <point x="332" y="592" type="curve" smooth="yes"/>
      <point x="332" y="520"/>
      <point x="254" y="483"/>
    </contour>
    <contour>
      <point x="179" y="270" type="curve" smooth="yes"/>
      <point x="78" y="270"/>
      <point x="18" y="339"/>
      <point x="18" y="413" type="curve"/>
      <point x="118" y="413" type="line"/>
      <point x="118" y="371"/>
      <point x="148" y="352"/>
      <point x="183" y="352" type="curve" smooth="yes"/>
      <point x="218" y="352"/>
      <point x="244" y="367"/>
      <point x="244" y="404" type="curve" smooth="yes"/>
      <point x="244" y="439"/>
      <point x="215" y="464"/>
      <point x="154" y="464" type="curve"/>
      <point x="154" y="515" type="line"/>
      <point x="265" y="515"/>
      <point x="344" y="480"/>
      <point x="344" y="395" type="curve" smooth="yes"/>
      <point x="344" y="322"/>
      <point x="282" y="270"/>
    </contour>
  </outline>
</glyph>
<glyph name="acute" format="2">
  <advance width="375"/>
  <unicode hex="00B4"/>
  <outline>
    <contour>
      <point x="318" y="654" type="line"/>
      <point x="138" y="504" type="line"/>
      <point x="54" y="546" type="line"/>
      <point x="204" y="706" type="line"/>
    </contour>
  </outline>
</glyph>
<glyph name="periodcentered" format="1">
  <advance width="322"/>
  <unicode hex="00B7"/>
  <outline>
    <contour>
      <point x="67" y="268" type="curve" smooth="yes"/>
      <point x="67" y="318"/>
      <point x="106" y="360"/>
      <point x="161" y="360" type="curve" smooth="yes"/>
      <point x="216" y="360"/>
      <point x="255" y="318"/>
      <point x="255" y="268" type="curve" smooth="yes"/>
      <point x="255" y="218"/>
      <point x="216" y="176"/>
      <point x="161" y="176" type="curve" smooth="yes"/>
      <point x="106" y="176"/>
      <point x="67" y="218"/>
    </contour>
  </outline>
</glyph>
<glyph name="cedilla" format="2">
  <advance width="393"/>
  <unicode hex="00B8"/>
  <outline>
    <contour>
      <point x="184" y="72" type="line"/>
      <point x="294" y="68" type="line"/>
      <point x="208" y="-54" type="line"/>
      <point x="219" y="-52"/>
      <point x="231" y="-50"/>
      <point x="244" y="-50" type="curve" smooth="yes"/>
      <point x="284" y="-50"/>
      <point x="335" y="-82"/>
      <point x="335" y="-148" type="curve" smooth="yes"/>
      <point x="335" y="-220"/>
      <point x="268" y="-257"/>
      <point x="204" y="-257" type="curve" smooth="yes"/>
      <point x="148" y="-257"/>
      <point x="106" y="-248"/>
      <point x="60" y="-218" type="curve"/>
      <point x="106" y="-150" type="line"/>
      <point x="131" y="-168"/>
      <point x="164" y="-174"/>
      <point x="184" y="-174" type="curve" smooth="yes"/>
      <point x="218" y="-174"/>
      <point x="238" y="-164"/>
      <point x="238" y="-140" type="curve" smooth="yes"/>
      <point x="238" y="-114"/>
      <point x="209" y="-108"/>
      <point x="178" y="-108" type="curve" smooth="yes"/>
      <point x="168" y="-108"/>
      <point x="131" y="-110"/>
      <point x="96" y="-124" type="curve"/>
    </contour>
  </outline>
</glyph>
<glyph name="guillemotright" format="2">
  <advance width="540"/>
  <unicode hex="00BB"/>
  <outline>
    <contour>
      <point x="189" y="251" type="line"/>
      <point x="39" y="445" type="line"/>
      <point x="132" y="508" type="line"/>
      <point x="310" y="255" type="line"/>
      <point x="132" y="2" type="line"/>
      <point x="39" y="65" type="line"/>
    </contour>
    <contour>
      <point x="392" y="251" type="line"/>
      <point x="242" y="445" type="line"/>
      <point x="336" y="508" type="line"/>
      <point x="513" y="255" type="line"/>
      <point x="336" y="2" type="line"/>
      <point x="242" y="65" type="line"/>
    </contour>
  </outline>
</glyph>
<glyph name="onehalf" format="1">
  <advance width="893"/>
  <unicode hex="00BD"/>
  <outline>
    <contour>
      <point x="630" y="700" type="line"/>
      <point x="726" y="700" type="line"/>
      <point x="206" y="0" type="line"/>
      <point x="110" y="0" type="line"/>
    </contour>
    <contour>
      <point x="24" y="573" type="line"/>
      <point x="24" y="661" type="line"/>
      <point x="225" y="702" type="line"/>
      <point x="225" y="274" type="line"/>
      <point x="128" y="274" type="line"/>
      <point x="128" y="599" type="line"/>
    </contour>
    <contour>
      <point x="505" y="2" type="line"/>
      <point x="693" y="196" type="line" smooth="yes"/>
      <point x="727" y="232"/>
      <point x="747" y="257"/>
      <point x="747" y="290" type="curve" smooth="yes"/>
      <point x="747" y="317"/>
      <point x="730" y="344"/>
      <point x="691" y="344" type="curve" smooth="yes"/>
      <point x="652" y="344"/>
      <point x="625" y="312"/>
      <point x="625" y="267" type="curve"/>
      <point x="526" y="267" type="line"/>
      <point x="526" y="356"/>
      <point x="585" y="431"/>
      <point x="694" y="431" type="curve" smooth="yes"/>
      <point x="798" y="431"/>
      <point x="851" y="360"/>
      <point x="851" y="295" type="curve" smooth="yes"/>
      <point x="851" y="250"/>
      <point x="827" y="213"/>
      <point x="791" y="182" type="curve" smooth="yes"/>
      <point x="693" y="95" type="line"/>
      <point x="861" y="95" type="line"/>
      <point x="861" y="2" type="line"/>
    </contour>
  </outline>
</glyph>
<glyph name="threequarters" format="1">
  <advance width="878"/>
  <unicode hex="00BE"/>
  <outline>
    <contour>
      <point x="694" y="700" type="line"/>
      <point x="790" y="700" type="line"/>
      <point x="270" y="0" type="line"/>
      <point x="174" y="0" type="line"/>
    </contour>
    <contour>
      <point x="162" y="483" type="curve"/>
      <point x="162" y="529" type="line"/>
      <point x="209" y="529"/>
      <point x="240" y="555"/>
      <point x="240" y="586" type="curve" smooth="yes"/>
      <point x="240" y="611"/>
      <point x="224" y="627"/>
      <point x="192" y="627" type="curve" smooth="yes"/>
      <point x="160" y="627"/>
      <point x="137" y="607"/>
      <point x="137" y="577" type="curve"/>
      <point x="44" y="577" type="line"/>
      <point x="44" y="651"/>
      <point x="103" y="708"/>
      <point x="192" y="708" type="curve" smooth="yes"/>
      <point x="286" y="708"/>
      <point x="340" y="657"/>
      <point x="340" y="592" type="curve" smooth="yes"/>
      <point x="340" y="520"/>
      <point x="262" y="483"/>
    </contour>
    <contour>
      <point x="188" y="270" type="curve" smooth="yes"/>
      <point x="87" y="270"/>
      <point x="26" y="339"/>
      <point x="26" y="413" type="curve"/>
      <point x="126" y="413" type="line"/>
      <point x="126" y="371"/>
      <point x="156" y="352"/>
      <point x="191" y="352" type="curve" smooth="yes"/>
      <point x="226" y="352"/>
      <point x="252" y="367"/>
      <point x="252" y="404" type="curve" smooth="yes"/>
      <point x="252" y="439"/>
      <point x="223" y="464"/>
      <point x="162" y="464" type="curve"/>
      <point x="162" y="515" type="line"/>
      <point x="273" y="515"/>
      <point x="352" y="480"/>
      <point x="352" y="395" type="curve" smooth="yes"/>
      <point x="352" y="322"/>
      <point x="291" y="270"/>
    </contour>
    <contour>
      <point x="464" y="75" type="line"/>
      <point x="547" y="148" type="line"/>
      <point x="733" y="148" type="line" smooth="yes"/>
      <point x="743" y="161" type="line" smooth="yes"/>
      <point x="849" y="161" type="line"/>
      <point x="849" y="75" type="line"/>
    </contour>
    <contour>
      <point x="567" y="104" type="line"/>
      <point x="464" y="75" type="line"/>
      <point x="709" y="420" type="line"/>
      <point x="783" y="420" type="line"/>
      <point x="783" y="0" type="line"/>
      <point x="679" y="0" type="line"/>
      <point x="679" y="97" type="line" smooth="yes"/>
      <point x="690" y="103" type="line" smooth="yes"/>
      <point x="690" y="274" type="line"/>
    </contour>
  </outline>
</glyph>
<glyph name="questiondown" format="1">
  <advance width="626"/>
  <unicode hex="00BF"/>
  <outline>
    <contour>
      <point x="206" y="200" type="curve" smooth="yes"/>
      <point x="206" y="142"/>
      <point x="248" y="108"/>
      <point x="319" y="108" type="curve" smooth="yes"/>
      <point x="380" y="108"/>
      <point x="440" y="139"/>
      <point x="477" y="195" type="curve"/>
      <point x="579" y="111" type="line"/>
      <point x="508" y="29"/>
      <point x="428" y="-19"/>
      <point x="309" y="-19" type="curve" smooth="yes"/>
      <point x="178" y="-19"/>
      <point x="54" y="62"/>
      <point x="54" y="200" type="curve" smooth="yes"/>
      <point x="54" y="322"/>
      <point x="161" y="397"/>
      <point x="268" y="415" type="curve"/>
      <point x="273" y="499" type="line"/>
      <point x="395" y="499" type="line"/>
      <point x="415" y="321" type="line"/>
      <point x="383" y="321" type="line" smooth="yes"/>
      <point x="263" y="321"/>
      <point x="206" y="251"/>
    </contour>
    <contour>
      <point x="427" y="641" type="curve" smooth="yes"/>
      <point x="427" y="597"/>
      <point x="388" y="558"/>
      <point x="333" y="558" type="curve" smooth="yes"/>
      <point x="278" y="558"/>
      <point x="239" y="597"/>
      <point x="239" y="641" type="curve" smooth="yes"/>
      <point x="239" y="685"/>
      <point x="278" y="724"/>
      <point x="333" y="724" type="curve" smooth="yes"/>
      <point x="388" y="724"/>
      <point x="427" y="685"/>
    </contour>
  </outline>
</glyph>
<glyph name="Aacute" format="2">
  <advance width="733"/>
  <unicode hex="00C1"/>
  <outline>
    <contour>
      <point x="184" y="136" type="line"/>
      <point x="196" y="264" type="line"/>
      <point x="543" y="264" type="line"/>
      <point x="554" y="136" type="line"/>
    </contour>
    <contour>
      <point x="367" y="443" type="line"/>
      <point x="269" y="218" type="line"/>
      <point x="277" y="180" type="line"/>
      <point x="190" y="0" type="line"/>
      <point x="-1" y="0" type="line"/>
      <point x="367" y="744" type="line"/>
      <point x="736" y="0" type="line"/>
      <point x="544" y="0" type="line"/>
      <point x="460" y="173" type="line"/>
      <point x="466" y="216" type="line"/>
    </contour>
    <contour>
      <point x="525" y="954" type="line"/>
      <point x="345" y="804" type="line"/>
      <point x="260" y="846" type="line"/>
      <point x="410" y="1006" type="line"/>
    </contour>
  </outline>
</glyph>
<glyph name="Acircumflex" format="2">
  <advance width="733"/>
  <unicode hex="00C2"/>
  <outline>
    <contour>
      <point x="184" y="136" type="line"/>
      <point x="196" y="264" type="line"/>
      <point x="543" y="264" type="line"/>
      <point x="554" y="136" type="line"/>
    </contour>
    <contour>
      <point x="367" y="443" type="line"/>
      <point x="269" y="218" type="line"/>
      <point x="277" y="180" type="line"/>
      <point x="190" y="0" type="line"/>
      <point x="-1" y="0" type="line"/>
      <point x="367" y="744" type="line"/>
      <point x="736" y="0" type="line"/>
      <point x="544" y="0" type="line"/>
      <point x="460" y="173" type="line"/>
      <point x="466" y="216" type="line"/>
    </contour>
    <contour>
      <point x="367" y="874" type="line"/>
      <point x="276" y="789" type="line"/>
      <point x="170" y="860" type="line"/>
      <point x="367" y="1000" type="line"/>
      <point x="564" y="860" type="line"/>
      <point x="458" y="789" type="line"/>
    </contour>
  </outline>
</glyph>
<glyph name="Atilde" format="1">
  <advance width="734"/>
  <unicode hex="00C3"/>
  <outline>
    <contour>
      <point x="184" y="136" type="line"/>
      <point x="196" y="264" type="line"/>
      <point x="543" y="264" type="line"/>
      <point x="554" y="136" type="line"/>
    </contour>
    <contour>
      <point x="367" y="443" type="line"/>
      <point x="269" y="218" type="line"/>
      <point x="277" y="180" type="line"/>
      <point x="190" y="0" type="line"/>
      <point x="-1" y="0" type="line"/>
      <point x="367" y="744" type="line"/>
      <point x="736" y="0" type="line"/>
      <point x="544" y="0" type="line"/>
      <point x="460" y="173" type="line"/>
      <point x="466" y="216" type="line"/>
    </contour>
    <contour>
      <point x="171" y="862" type="line"/>
      <point x="181" y="911"/>
      <point x="227" y="957"/>
      <point x="291" y="957" type="curve" smooth="yes"/>
      <point x="357" y="957"/>
      <point x="371" y="905"/>
      <point x="427" y="905" type="curve" smooth="yes"/>
      <point x="452" y="905"/>
      <point x="472" y="926"/>
      <point x="492" y="958" type="curve"/>
      <point x="563" y="884" type="line"/>
      <point x="547" y="847"/>
      <point x="491" y="798"/>
      <point x="429" y="798" type="curve" smooth="yes"/>
      <point x="374" y="798"/>
      <point x="339" y="851"/>
      <point x="290" y="851" type="curve" smooth="yes"/>
      <point x="252" y="851"/>
      <point x="243" y="815"/>
      <point x="243" y="800" type="curve"/>
    </contour>
  </outline>
</glyph>
<glyph name="Adieresis" format="1">
  <advance width="734"/>
  <unicode hex="00C4"/>
  <outline>
    <contour>
      <point x="184" y="136" type="line"/>
      <point x="196" y="264" type="line"/>
      <point x="543" y="264" type="line"/>
      <point x="554" y="136" type="line"/>
    </contour>
    <contour>
      <point x="367" y="443" type="line"/>
      <point x="269" y="218" type="line"/>
      <point x="277" y="180" type="line"/>
      <point x="190" y="0" type="line"/>
      <point x="-1" y="0" type="line"/>
      <point x="367" y="744" type="line"/>
      <point x="736" y="0" type="line"/>
      <point x="544" y="0" type="line"/>
      <point x="460" y="173" type="line"/>
      <point x="466" y="216" type="line"/>
    </contour>
    <contour>
      <point x="420" y="830" type="curve" smooth="yes"/>
      <point x="420" y="878"/>
      <point x="459" y="912"/>
      <point x="508" y="912" type="curve" smooth="yes"/>
      <point x="557" y="912"/>
      <point x="595" y="878"/>
      <point x="595" y="830" type="curve" smooth="yes"/>
      <point x="595" y="782"/>
      <point x="557" y="748"/>
      <point x="508" y="748" type="curve" smooth="yes"/>
      <point x="459" y="748"/>
      <point x="420" y="782"/>
    </contour>
    <contour>
      <point x="133" y="836" type="curve" smooth="yes"/>
      <point x="133" y="884"/>
      <point x="172" y="918"/>
      <point x="221" y="918" type="curve" smooth="yes"/>
      <point x="270" y="918"/>
      <point x="309" y="884"/>
      <point x="309" y="836" type="curve" smooth="yes"/>
      <point x="309" y="788"/>
      <point x="270" y="755"/>
      <point x="221" y="755" type="curve" smooth="yes"/>
      <point x="172" y="755"/>
      <point x="133" y="788"/>
    </contour>
  </outline>
</glyph>
<glyph name="Aring" format="1">
  <advance width="734"/>
  <unicode hex="00C5"/>
  <outline>
    <contour>
      <point x="184" y="136" type="line"/>
      <point x="196" y="264" type="line"/>
      <point x="543" y="264" type="line"/>
      <point x="554" y="136" type="line"/>
    </contour>
    <contour>
      <point x="367" y="443" type="line"/>
      <point x="269" y="218" type="line"/>
      <point x="277" y="180" type="line"/>
      <point x="190" y="0" type="line"/>
      <point x="-1" y="0" type="line"/>
      <point x="367" y="744" type="line"/>
      <point x="736" y="0" type="line"/>
      <point x="544" y="0" type="line"/>
      <point x="460" y="173" type="line"/>
      <point x="466" y="216" type="line"/>
    </contour>
    <contour>
      <point x="242" y="800" type="curve" smooth="yes"/>
      <point x="242" y="869"/>
      <point x="298" y="916"/>
      <point x="367" y="916" type="curve" smooth="yes"/>
      <point x="436" y="916"/>
      <point x="492" y="869"/>
      <point x="492" y="800" type="curve" smooth="yes"/>
      <point x="492" y="731"/>
      <point x="436" y="685"/>
      <point x="367" y="685" type="curve" smooth="yes"/>
      <point x="298" y="685"/>
      <point x="242" y="731"/>
    </contour>
    <contour>
      <point x="321" y="800" type="curve" smooth="yes"/>
      <point x="321" y="770"/>
      <point x="342" y="753"/>
      <point x="367" y="753" type="curve" smooth="yes"/>
      <point x="392" y="753"/>
      <point x="413" y="770"/>
      <point x="413" y="800" type="curve" smooth="yes"/>
      <point x="413" y="830"/>
      <point x="392" y="849"/>
      <point x="367" y="849" type="curve" smooth="yes"/>
      <point x="342" y="849"/>
      <point x="321" y="830"/>
    </contour>
  </outline>
</glyph>
<glyph name="AE" format="2">
  <advance width="1083"/>
  <unicode hex="00C6"/>
  <outline>
    <contour>
      <point x="270" y="151" type="line"/>
      <point x="276" y="306" type="line"/>
      <point x="576" y="306" type="line"/>
      <point x="576" y="151" type="line"/>
    </contour>
    <contour>
      <point x="438" y="700" type="line"/>
      <point x="600" y="660" type="line"/>
      <point x="228" y="0" type="line"/>
      <point x="14" y="0" type="line"/>
    </contour>
    <contour>
      <point x="630" y="0" type="line"/>
      <point x="630" y="139" type="line"/>
      <point x="1014" y="139" type="line"/>
      <point x="1014" y="0" type="line"/>
    </contour>
    <contour>
      <point x="638" y="561" type="line"/>
      <point x="438" y="700" type="line"/>
      <point x="1014" y="700" type="line"/>
      <point x="1014" y="561" type="line"/>
    </contour>
    <contour>
      <point x="630" y="300" type="line"/>
      <point x="630" y="436" type="line"/>
      <point x="994" y="436" type="line"/>
      <point x="994" y="300" type="line"/>
    </contour>
    <contour>
      <point x="549" y="700" type="line"/>
      <point x="730" y="700" type="line"/>
      <point x="730" y="0" type="line"/>
      <point x="549" y="0" type="line"/>
    </contour>
  </outline>
</glyph>
<glyph name="Ccedilla" format="1">
  <advance width="700"/>
  <unicode hex="00C7"/>
  <outline>
    <contour>
      <point x="218" y="350" type="curve" smooth="yes"/>
      <point x="218" y="221"/>
      <point x="315" y="144"/>
      <point x="428" y="144" type="curve" smooth="yes"/>
      <point x="527" y="144"/>
      <point x="591" y="187"/>
      <point x="637" y="237" type="curve"/>
      <point x="637" y="55" type="line"/>
      <point x="580" y="12"/>
      <point x="520" y="-16"/>
      <point x="418" y="-16" type="curve" smooth="yes"/>
      <point x="193" y="-16"/>
      <point x="34" y="132"/>
      <point x="34" y="350" type="curve" smooth="yes"/>
      <point x="34" y="568"/>
      <point x="193" y="716"/>
      <point x="418" y="716" type="curve" smooth="yes"/>
      <point x="520" y="716"/>
      <point x="580" y="688"/>
      <point x="637" y="645" type="curve"/>
      <point x="637" y="463" type="line"/>
      <point x="591" y="513"/>
      <point x="527" y="556"/>
      <point x="428" y="556" type="curve" smooth="yes"/>
      <point x="315" y="556"/>
      <point x="218" y="479"/>
    </contour>
    <contour>
      <point x="358" y="48" type="line"/>
      <point x="468" y="45" type="line"/>
      <point x="382" y="-77" type="line"/>
      <point x="393" y="-74"/>
      <point x="405" y="-74"/>
      <point x="418" y="-74" type="curve" smooth="yes"/>
      <point x="458" y="-74"/>
      <point x="509" y="-105"/>
      <point x="509" y="-171" type="curve" smooth="yes"/>
      <point x="509" y="-243"/>
      <point x="442" y="-280"/>
      <point x="379" y="-280" type="curve" smooth="yes"/>
      <point x="323" y="-280"/>
      <point x="282" y="-271"/>
      <point x="235" y="-241" type="curve"/>
      <point x="280" y="-172" type="line"/>
      <point x="305" y="-190"/>
      <point x="339" y="-197"/>
      <point x="359" y="-197" type="curve" smooth="yes"/>
      <point x="393" y="-197"/>
      <point x="413" y="-186"/>
      <point x="413" y="-162" type="curve" smooth="yes"/>
      <point x="413" y="-136"/>
      <point x="384" y="-130"/>
      <point x="353" y="-130" type="curve" smooth="yes"/>
      <point x="343" y="-130"/>
      <point x="305" y="-132"/>
      <point x="270" y="-146" type="curve"/>
    </contour>
  </outline>
</glyph>
<glyph name="Egrave" format="2">
  <advance width="602"/>
  <unicode hex="00C8"/>
  <outline>
    <contour>
      <point x="186" y="0" type="line"/>
      <point x="186" y="139" type="line"/>
      <point x="539" y="139" type="line"/>
      <point x="539" y="0" type="line"/>
    </contour>
    <contour>
      <point x="186" y="561" type="line"/>
      <point x="186" y="700" type="line"/>
      <point x="539" y="700" type="line"/>
      <point x="539" y="561" type="line"/>
    </contour>
    <contour>
      <point x="186" y="300" type="line"/>
      <point x="186" y="436" type="line"/>
      <point x="519" y="436" type="line"/>
      <point x="519" y="300" type="line"/>
    </contour>
    <contour>
      <point x="74" y="700" type="line"/>
      <point x="236" y="700" type="line"/>
      <point x="236" y="0" type="line"/>
      <point x="74" y="0" type="line"/>
    </contour>
    <contour>
      <point x="146" y="932" type="line"/>
      <point x="260" y="984" type="line"/>
      <point x="410" y="824" type="line"/>
      <point x="326" y="782" type="line"/>
    </contour>
  </outline>
</glyph>
<glyph name="Eacute" format="2">
  <advance width="602"/>
  <unicode hex="00C9"/>
  <outline>
    <contour>
      <point x="186" y="0" type="line"/>
      <point x="186" y="139" type="line"/>
      <point x="539" y="139" type="line"/>
      <point x="539" y="0" type="line"/>
    </contour>
    <contour>
      <point x="186" y="561" type="line"/>
      <point x="186" y="700" type="line"/>
      <point x="539" y="700" type="line"/>
      <point x="539" y="561" type="line"/>
    </contour>
    <contour>
      <point x="186" y="300" type="line"/>
      <point x="186" y="436" type="line"/>
      <point x="519" y="436" type="line"/>
      <point x="519" y="300" type="line"/>
    </contour>
    <contour>
      <point x="74" y="700" type="line"/>
      <point x="236" y="700" type="line"/>
      <point x="236" y="0" type="line"/>
      <point x="74" y="0" type="line"/>
    </contour>
    <contour>
      <point x="464" y="932" type="line"/>
      <point x="284" y="782" type="line"/>
      <point x="200" y="824" type="line"/>
      <point x="350" y="984" type="line"/>
    </contour>
  </outline>
</glyph>
<glyph name="Ecircumflex" format="1">
  <advance width="602"/>
  <unicode hex="00CA"/>
  <outline>
    <contour>
      <point x="186" y="0" type="line"/>
      <point x="186" y="139" type="line"/>
      <point x="539" y="139" type="line"/>
      <point x="539" y="0" type="line"/>
    </contour>
    <contour>
      <point x="186" y="561" type="line"/>
      <point x="186" y="700" type="line"/>
      <point x="539" y="700" type="line"/>
      <point x="539" y="561" type="line"/>
    </contour>
    <contour>
      <point x="186" y="300" type="line"/>
      <point x="186" y="436" type="line"/>
      <point x="519" y="436" type="line"/>
      <point x="519" y="300" type="line"/>
    </contour>
    <contour>
      <point x="74" y="700" type="line"/>
      <point x="236" y="700" type="line"/>
      <point x="236" y="0" type="line"/>
      <point x="74" y="0" type="line"/>
    </contour>
    <contour>
      <point x="310" y="884" type="line"/>
      <point x="200" y="789" type="line"/>
      <point x="150" y="829" type="line"/>
      <point x="310" y="969" type="line"/>
      <point x="470" y="829" type="line"/>
      <point x="420" y="789" type="line"/>
    </contour>
  </outline>
</glyph>
<glyph name="Edieresis" format="1">
  <advance width="602"/>
  <unicode hex="00CB"/>
  <outline>
    <contour>
      <point x="186" y="0" type="line"/>
      <point x="186" y="139" type="line"/>
      <point x="539" y="139" type="line"/>
      <point x="539" y="0" type="line"/>
    </contour>
    <contour>
      <point x="186" y="561" type="line"/>
      <point x="186" y="700" type="line"/>
      <point x="539" y="700" type="line"/>
      <point x="539" y="561" type="line"/>
    </contour>
    <contour>
      <point x="186" y="300" type="line"/>
      <point x="186" y="436" type="line"/>
      <point x="519" y="436" type="line"/>
      <point x="519" y="300" type="line"/>
    </contour>
    <contour>
      <point x="74" y="700" type="line"/>
      <point x="236" y="700" type="line"/>
      <point x="236" y="0" type="line"/>
      <point x="74" y="0" type="line"/>
    </contour>
    <contour>
      <point x="344" y="865" type="curve" smooth="yes"/>
      <point x="344" y="913"/>
      <point x="383" y="947"/>
      <point x="432" y="947" type="curve" smooth="yes"/>
      <point x="481" y="947"/>
      <point x="520" y="913"/>
      <point x="520" y="865" type="curve" smooth="yes"/>
      <point x="520" y="817"/>
      <point x="481" y="784"/>
      <point x="432" y="784" type="curve" smooth="yes"/>
      <point x="383" y="784"/>
      <point x="344" y="817"/>
    </contour>
    <contour>
      <point x="101" y="865" type="curve" smooth="yes"/>
      <point x="101" y="913"/>
      <point x="140" y="947"/>
      <point x="189" y="947" type="curve" smooth="yes"/>
      <point x="238" y="947"/>
      <point x="277" y="913"/>
      <point x="277" y="865" type="curve" smooth="yes"/>
      <point x="277" y="817"/>
      <point x="238" y="784"/>
      <point x="189" y="784" type="curve" smooth="yes"/>
      <point x="140" y="784"/>
      <point x="101" y="817"/>
    </contour>
  </outline>
</glyph>
<glyph name="Iacute" format="2">
  <advance width="318"/>
  <unicode hex="00CD"/>
  <outline>
    <contour>
      <point x="74" y="700" type="line"/>
      <point x="246" y="700" type="line"/>
      <point x="246" y="0" type="line"/>
      <point x="74" y="0" type="line"/>
    </contour>
    <contour>
      <point x="312" y="932" type="line"/>
      <point x="132" y="782" type="line"/>
      <point x="46" y="824" type="line"/>
      <point x="196" y="984" type="line"/>
    </contour>
  </outline>
</glyph>
<glyph name="Icircumflex" format="2">
  <advance width="318"/>
  <unicode hex="00CE"/>
  <outline>
    <contour>
      <point x="74" y="700" type="line"/>
      <point x="246" y="700" type="line"/>
      <point x="246" y="0" type="line"/>
      <point x="74" y="0" type="line"/>
    </contour>
    <contour>
      <point x="153" y="884" type="line"/>
      <point x="43" y="788" type="line"/>
      <point x="-7" y="828" type="line"/>
      <point x="153" y="968" type="line"/>
      <point x="313" y="828" type="line"/>
      <point x="263" y="788" type="line"/>
    </contour>
  </outline>
</glyph>
<glyph name="Idieresis" format="2">
  <advance width="318"/>
  <unicode hex="00CF"/>
  <outline>
    <contour>
      <point x="74" y="700" type="line"/>
      <point x="246" y="700" type="line"/>
      <point x="246" y="0" type="line"/>
      <point x="74" y="0" type="line"/>
    </contour>
    <contour>
      <point x="194" y="858" type="curve" smooth="yes"/>
      <point x="194" y="906"/>
      <point x="234" y="940"/>
      <point x="282" y="940" type="curve" smooth="yes"/>
      <point x="330" y="940"/>
      <point x="370" y="906"/>
      <point x="370" y="858" type="curve" smooth="yes"/>
      <point x="370" y="810"/>
      <point x="330" y="776"/>
      <point x="282" y="776" type="curve" smooth="yes"/>
      <point x="234" y="776"/>
      <point x="194" y="810"/>
    </contour>
    <contour>
      <point x="-50" y="858" type="curve" smooth="yes"/>
      <point x="-50" y="906"/>
      <point x="-10" y="940"/>
      <point x="38" y="940" type="curve" smooth="yes"/>
      <point x="86" y="940"/>
      <point x="126" y="906"/>
      <point x="126" y="858" type="curve" smooth="yes"/>
      <point x="126" y="810"/>
      <point x="86" y="776"/>
      <point x="38" y="776" type="curve" smooth="yes"/>
      <point x="-10" y="776"/>
      <point x="-50" y="810"/>
    </contour>
  </outline>
</glyph>
<glyph name="Ntilde" format="1">
  <advance width="793"/>
  <unicode hex="00D1"/>
  <outline>
    <contour>
      <point x="557" y="700" type="line"/>
      <point x="720" y="700" type="line"/>
      <point x="720" y="-35" type="line"/>
      <point x="237" y="385.556" type="line"/>
      <point x="237" y="0" type="line"/>
      <point x="74" y="0" type="line"/>
      <point x="74" y="735" type="line"/>
      <point x="557" y="313.788" type="line"/>
    </contour>
    <contour>
      <point x="168" y="839" type="line"/>
      <point x="178" y="888"/>
      <point x="224" y="934"/>
      <point x="288" y="934" type="curve" smooth="yes"/>
      <point x="354" y="934"/>
      <point x="368" y="882"/>
      <point x="424" y="882" type="curve" smooth="yes"/>
      <point x="449" y="882"/>
      <point x="469" y="903"/>
      <point x="489" y="935" type="curve"/>
      <point x="560" y="861" type="line"/>
      <point x="544" y="824"/>
      <point x="488" y="775"/>
      <point x="426" y="775" type="curve" smooth="yes"/>
      <point x="371" y="775"/>
      <point x="336" y="829"/>
      <point x="287" y="829" type="curve" smooth="yes"/>
      <point x="249" y="829"/>
      <point x="240" y="793"/>
      <point x="240" y="778" type="curve"/>
    </contour>
  </outline>
</glyph>
<glyph name="Ocircumflex" format="1">
  <advance width="821"/>
  <unicode hex="00D4"/>
  <outline>
    <contour>
      <point x="212" y="350" type="curve" smooth="yes"/>
      <point x="212" y="226"/>
      <point x="291" y="139"/>
      <point x="410" y="139" type="curve" smooth="yes"/>
      <point x="529" y="139"/>
      <point x="609" y="226"/>
      <point x="609" y="350" type="curve" smooth="yes"/>
      <point x="609" y="474"/>
      <point x="532" y="561"/>
      <point x="410" y="561" type="curve" smooth="yes"/>
      <point x="291" y="561"/>
      <point x="212" y="474"/>
    </contour>
    <contour>
      <point x="34" y="350" type="curve" smooth="yes"/>
      <point x="34" y="566"/>
      <point x="197" y="716"/>
      <point x="410" y="716" type="curve" smooth="yes"/>
      <point x="626" y="716"/>
      <point x="787" y="566"/>
      <point x="787" y="350" type="curve" smooth="yes"/>
      <point x="787" y="134"/>
      <point x="630" y="-22"/>
      <point x="410" y="-22" type="curve" smooth="yes"/>
      <point x="190" y="-22"/>
      <point x="34" y="134"/>
    </contour>
    <contour>
      <point x="420" y="884" type="line"/>
      <point x="310" y="789" type="line"/>
      <point x="260" y="829" type="line"/>
      <point x="420" y="969" type="line"/>
      <point x="580" y="829" type="line"/>
      <point x="530" y="789" type="line"/>
    </contour>
  </outline>
</glyph>
<glyph name="Otilde" format="1">
  <advance width="821"/>
  <unicode hex="00D5"/>
  <outline>
    <contour>
      <point x="212" y="350" type="curve" smooth="yes"/>
      <point x="212" y="226"/>
      <point x="291" y="139"/>
      <point x="410" y="139" type="curve" smooth="yes"/>
      <point x="529" y="139"/>
      <point x="609" y="226"/>
      <point x="609" y="350" type="curve" smooth="yes"/>
      <point x="609" y="474"/>
      <point x="532" y="561"/>
      <point x="410" y="561" type="curve" smooth="yes"/>
      <point x="291" y="561"/>
      <point x="212" y="474"/>
    </contour>
    <contour>
      <point x="34" y="350" type="curve" smooth="yes"/>
      <point x="34" y="566"/>
      <point x="197" y="716"/>
      <point x="410" y="716" type="curve" smooth="yes"/>
      <point x="626" y="716"/>
      <point x="787" y="566"/>
      <point x="787" y="350" type="curve" smooth="yes"/>
      <point x="787" y="134"/>
      <point x="630" y="-22"/>
      <point x="410" y="-22" type="curve" smooth="yes"/>
      <point x="190" y="-22"/>
      <point x="34" y="134"/>
    </contour>
    <contour>
      <point x="249" y="842" type="line"/>
      <point x="259" y="891"/>
      <point x="308" y="924"/>
      <point x="353" y="924" type="curve" smooth="yes"/>
      <point x="418" y="924"/>
      <point x="423" y="877"/>
      <point x="477" y="877" type="curve" smooth="yes"/>
      <point x="496" y="877"/>
      <point x="513" y="893"/>
      <point x="533" y="925" type="curve"/>
      <point x="579" y="882" type="line"/>
      <point x="563" y="845"/>
      <point x="523" y="809"/>
      <point x="473" y="809" type="curve" smooth="yes"/>
      <point x="418" y="809"/>
      <point x="397" y="856"/>
      <point x="352" y="856" type="curve" smooth="yes"/>
      <point x="311" y="856"/>
      <point x="302" y="820"/>
      <point x="302" y="805" type="curve"/>
    </contour>
  </outline>
</glyph>
<glyph name="Odieresis" format="1">
  <advance width="821"/>
  <unicode hex="00D6"/>
  <outline>
    <contour>
      <point x="212" y="350" type="curve" smooth="yes"/>
      <point x="212" y="226"/>
      <point x="291" y="139"/>
      <point x="410" y="139" type="curve" smooth="yes"/>
      <point x="529" y="139"/>
      <point x="609" y="226"/>
      <point x="609" y="350" type="curve" smooth="yes"/>
      <point x="609" y="474"/>
      <point x="532" y="561"/>
      <point x="410" y="561" type="curve" smooth="yes"/>
      <point x="291" y="561"/>
      <point x="212" y="474"/>
    </contour>
    <contour>
      <point x="34" y="350" type="curve" smooth="yes"/>
      <point x="34" y="566"/>
      <point x="197" y="716"/>
      <point x="410" y="716" type="curve" smooth="yes"/>
      <point x="626" y="716"/>
      <point x="787" y="566"/>
      <point x="787" y="350" type="curve" smooth="yes"/>
      <point x="787" y="134"/>
      <point x="630" y="-22"/>
      <point x="410" y="-22" type="curve" smooth="yes"/>
      <point x="190" y="-22"/>
      <point x="34" y="134"/>
    </contour>
    <contour>
      <point x="444" y="858" type="curve" smooth="yes"/>
      <point x="444" y="906"/>
      <point x="483" y="940"/>
      <point x="532" y="940" type="curve" smooth="yes"/>
      <point x="581" y="940"/>
      <point x="620" y="906"/>
      <point x="620" y="858" type="curve" smooth="yes"/>
      <point x="620" y="810"/>
      <point x="581" y="776"/>
      <point x="532" y="776" type="curve" smooth="yes"/>
      <point x="483" y="776"/>
      <point x="444" y="810"/>
    </contour>
    <contour>
      <point x="201" y="858" type="curve" smooth="yes"/>
      <point x="201" y="906"/>
      <point x="240" y="940"/>
      <point x="289" y="940" type="curve" smooth="yes"/>
      <point x="338" y="940"/>
      <point x="377" y="906"/>
      <point x="377" y="858" type="curve" smooth="yes"/>
      <point x="377" y="810"/>
      <point x="338" y="776"/>
      <point x="289" y="776" type="curve" smooth="yes"/>
      <point x="240" y="776"/>
      <point x="201" y="810"/>
    </contour>
  </outline>
</glyph>
<glyph name="multiply" format="2">
  <advance width="596"/>
  <unicode hex="00D7"/>
  <outline>
    <contour>
      <point x="140" y="4" type="line"/>
      <point x="46" y="96" type="line"/>
      <point x="210" y="255" type="line"/>
      <point x="46" y="414" type="line"/>
      <point x="140" y="506" type="line"/>
      <point x="298" y="344" type="line"/>
      <point x="456" y="506" type="line"/>
      <point x="550" y="414" type="line"/>
      <point x="386" y="255" type="line"/>
      <point x="550" y="96" type="line"/>
      <point x="456" y="4" type="line"/>
      <point x="298" y="166" type="line"/>
    </contour>
  </outline>
</glyph>
<glyph name="Oslash" format="2">
  <advance width="790"/>
  <unicode hex="00D8"/>
  <outline>
    <contour>
      <point x="213" y="350" type="curve" smooth="yes"/>
      <point x="213" y="223"/>
      <point x="291" y="139"/>
      <point x="410" y="139" type="curve" smooth="yes"/>
      <point x="529" y="139"/>
      <point x="608" y="223"/>
      <point x="608" y="350" type="curve" smooth="yes"/>
      <point x="608" y="477"/>
      <point x="529" y="561"/>
      <point x="410" y="561" type="curve" smooth="yes"/>
      <point x="291" y="561"/>
      <point x="213" y="477"/>
    </contour>
    <contour>
      <point x="34" y="350" type="curve" smooth="yes"/>
      <point x="34" y="566"/>
      <point x="194" y="716"/>
      <point x="410" y="716" type="curve" smooth="yes"/>
      <point x="626" y="716"/>
      <point x="787" y="566"/>
      <point x="787" y="350" type="curve" smooth="yes"/>
      <point x="787" y="134"/>
      <point x="626" y="-22"/>
      <point x="410" y="-22" type="curve" smooth="yes"/>
      <point x="194" y="-22"/>
      <point x="34" y="134"/>
    </contour>
    <contour>
      <point x="697" y="756" type="line"/>
      <point x="768" y="704" type="line"/>
      <point x="120" y="-56" type="line"/>
      <point x="49" y="-4" type="line"/>
    </contour>
  </outline>
</glyph>
<glyph name="Ugrave" format="1">
  <advance width="700"/>
  <unicode hex="00D9"/>
  <outline>
    <contour>
      <point x="69" y="700" type="line"/>
      <point x="238" y="700" type="line"/>
      <point x="238" y="242" type="line" smooth="yes"/>
      <point x="238" y="171"/>
      <point x="275" y="123"/>
      <point x="350" y="123" type="curve" smooth="yes"/>
      <point x="425" y="123"/>
      <point x="463" y="171"/>
      <point x="463" y="242" type="curve" smooth="yes"/>
      <point x="463" y="700" type="line"/>
      <point x="632" y="700" type="line"/>
      <point x="632" y="230" type="line" smooth="yes"/>
      <point x="632" y="54"/>
      <point x="507" y="-29"/>
      <point x="350" y="-29" type="curve" smooth="yes"/>
      <point x="193" y="-29"/>
      <point x="69" y="54"/>
      <point x="69" y="230" type="curve" smooth="yes"/>
    </contour>
    <contour>
      <point x="189" y="926" type="line"/>
      <point x="304" y="979" type="line"/>
      <point x="454" y="819" type="line"/>
      <point x="369" y="776" type="line"/>
    </contour>
  </outline>
</glyph>
<glyph name="Uacute" format="1">
  <advance width="700"/>
  <unicode hex="00DA"/>
  <outline>
    <contour>
      <point x="69" y="700" type="line"/>
      <point x="238" y="700" type="line"/>
      <point x="238" y="242" type="line" smooth="yes"/>
      <point x="238" y="171"/>
      <point x="275" y="123"/>
      <point x="350" y="123" type="curve" smooth="yes"/>
      <point x="425" y="123"/>
      <point x="463" y="171"/>
      <point x="463" y="242" type="curve" smooth="yes"/>
      <point x="463" y="700" type="line"/>
      <point x="632" y="700" type="line"/>
      <point x="632" y="230" type="line" smooth="yes"/>
      <point x="632" y="54"/>
      <point x="507" y="-29"/>
      <point x="350" y="-29" type="curve" smooth="yes"/>
      <point x="193" y="-29"/>
      <point x="69" y="54"/>
      <point x="69" y="230" type="curve" smooth="yes"/>
    </contour>
    <contour>
      <point x="511" y="926" type="line"/>
      <point x="331" y="776" type="line"/>
      <point x="246" y="819" type="line"/>
      <point x="396" y="979" type="line"/>
    </contour>
  </outline>
</glyph>
<glyph name="Ucircumflex" format="1">
  <advance width="700"/>
  <unicode hex="00DB"/>
  <outline>
    <contour>
      <point x="69" y="700" type="line"/>
      <point x="238" y="700" type="line"/>
      <point x="238" y="242" type="line" smooth="yes"/>
      <point x="238" y="171"/>
      <point x="275" y="123"/>
      <point x="350" y="123" type="curve" smooth="yes"/>
      <point x="425" y="123"/>
      <point x="463" y="171"/>
      <point x="463" y="242" type="curve" smooth="yes"/>
      <point x="463" y="700" type="line"/>
      <point x="632" y="700" type="line"/>
      <point x="632" y="230" type="line" smooth="yes"/>
      <point x="632" y="54"/>
      <point x="507" y="-29"/>
      <point x="350" y="-29" type="curve" smooth="yes"/>
      <point x="193" y="-29"/>
      <point x="69" y="54"/>
      <point x="69" y="230" type="curve" smooth="yes"/>
    </contour>
    <contour>
      <point x="350" y="862" type="line"/>
      <point x="259" y="776" type="line"/>
      <point x="153" y="847" type="line"/>
      <point x="350" y="987" type="line"/>
      <point x="547" y="847" type="line"/>
      <point x="442" y="776" type="line"/>
    </contour>
  </outline>
</glyph>
<glyph name="Udieresis" format="1">
  <advance width="700"/>
  <unicode hex="00DC"/>
  <outline>
    <contour>
      <point x="69" y="700" type="line"/>
      <point x="238" y="700" type="line"/>
      <point x="238" y="242" type="line" smooth="yes"/>
      <point x="238" y="171"/>
      <point x="275" y="123"/>
      <point x="350" y="123" type="curve" smooth="yes"/>
      <point x="425" y="123"/>
      <point x="463" y="171"/>
      <point x="463" y="242" type="curve" smooth="yes"/>
      <point x="463" y="700" type="line"/>
      <point x="632" y="700" type="line"/>
      <point x="632" y="230" type="line" smooth="yes"/>
      <point x="632" y="54"/>
      <point x="507" y="-29"/>
      <point x="350" y="-29" type="curve" smooth="yes"/>
      <point x="193" y="-29"/>
      <point x="69" y="54"/>
      <point x="69" y="230" type="curve" smooth="yes"/>
    </contour>
    <contour>
      <point x="403" y="858" type="curve" smooth="yes"/>
      <point x="403" y="906"/>
      <point x="441" y="940"/>
      <point x="490" y="940" type="curve" smooth="yes"/>
      <point x="539" y="940"/>
      <point x="578" y="906"/>
      <point x="578" y="858" type="curve" smooth="yes"/>
      <point x="578" y="810"/>
      <point x="539" y="776"/>
      <point x="490" y="776" type="curve" smooth="yes"/>
      <point x="441" y="776"/>
      <point x="403" y="810"/>
    </contour>
    <contour>
      <point x="122" y="858" type="curve" smooth="yes"/>
      <point x="122" y="906"/>
      <point x="161" y="940"/>
      <point x="210" y="940" type="curve" smooth="yes"/>
      <point x="259" y="940"/>
      <point x="298" y="906"/>
      <point x="298" y="858" type="curve" smooth="yes"/>
      <point x="298" y="810"/>
      <point x="259" y="776"/>
      <point x="210" y="776" type="curve" smooth="yes"/>
      <point x="161" y="776"/>
      <point x="122" y="810"/>
    </contour>
  </outline>
</glyph>
<glyph name="Yacute" format="1">
  <advance width="659"/>
  <unicode hex="00DD"/>
  <outline>
    <contour>
      <point x="491" y="926" type="line"/>
      <point x="311" y="776" type="line"/>
      <point x="226" y="819" type="line"/>
      <point x="376" y="979" type="line"/>
    </contour>
    <contour>
      <point x="467" y="700" type="line"/>
      <point x="661" y="700" type="line"/>
      <point x="416" y="285" type="line"/>
      <point x="416" y="0" type="line"/>
      <point x="244" y="0" type="line"/>
      <point x="244" y="284" type="line"/>
      <point x="-1" y="700" type="line"/>
      <point x="193" y="700" type="line"/>
      <point x="330" y="437" type="line"/>
    </contour>
  </outline>
</glyph>
<glyph name="Thorn" format="1">
  <advance width="612"/>
  <unicode hex="00DE"/>
  <outline>
    <contour>
      <point x="80" y="700" type="line"/>
      <point x="227" y="700" type="line"/>
      <point x="227" y="0" type="line"/>
      <point x="80" y="0" type="line"/>
    </contour>
    <contour>
      <point x="174" y="446" type="line"/>
      <point x="174" y="579" type="line"/>
      <point x="310" y="579" type="line" smooth="yes"/>
      <point x="488" y="579"/>
      <point x="582" y="494"/>
      <point x="582" y="353" type="curve" smooth="yes"/>
      <point x="582" y="212"/>
      <point x="488" y="128"/>
      <point x="310" y="128" type="curve" smooth="yes"/>
      <point x="174" y="128" type="line"/>
      <point x="174" y="260" type="line"/>
      <point x="310" y="260" type="line" smooth="yes"/>
      <point x="387" y="260"/>
      <point x="432" y="286"/>
      <point x="432" y="353" type="curve" smooth="yes"/>
      <point x="432" y="420"/>
      <point x="387" y="446"/>
      <point x="310" y="446" type="curve" smooth="yes"/>
    </contour>
  </outline>
</glyph>
<glyph name="germandbls" format="1">
  <advance width="591"/>
  <unicode hex="00DF"/>
  <outline>
    <contour>
      <point x="281" y="127" type="line"/>
      <point x="361" y="127"/>
      <point x="416" y="179"/>
      <point x="416" y="254" type="curve" smooth="yes"/>
      <point x="416" y="315"/>
      <point x="378" y="368"/>
      <point x="268" y="368" type="curve"/>
      <point x="268" y="472" type="line"/>
      <point x="435" y="472"/>
      <point x="568" y="376"/>
      <point x="568" y="225" type="curve" smooth="yes"/>
      <point x="568" y="74"/>
      <point x="453" y="-10"/>
      <point x="281" y="-10" type="curve"/>
    </contour>
    <contour>
      <point x="268" y="413" type="curve"/>
      <point x="268" y="505" type="line"/>
      <point x="353" y="505"/>
      <point x="376" y="540"/>
      <point x="376" y="584" type="curve" smooth="yes"/>
      <point x="376" y="631"/>
      <point x="345" y="659"/>
      <point x="286" y="659" type="curve" smooth="yes"/>
      <point x="232" y="659"/>
      <point x="200" y="632"/>
      <point x="200" y="587" type="curve" smooth="yes"/>
      <point x="200" y="0" type="line"/>
      <point x="55" y="0" type="line"/>
      <point x="55" y="606" type="line" smooth="yes"/>
      <point x="55" y="727"/>
      <point x="162" y="796"/>
      <point x="286" y="796" type="curve" smooth="yes"/>
      <point x="440" y="796"/>
      <point x="522" y="715"/>
      <point x="522" y="606" type="curve" smooth="yes"/>
      <point x="522" y="487"/>
      <point x="435" y="413"/>
    </contour>
  </outline>
</glyph>
<glyph name="atilde" format="1">
  <advance width="543"/>
  <unicode hex="00E3"/>
  <outline>
    <contour>
      <point x="176" y="137" type="curve" smooth="yes"/>
      <point x="176" y="104"/>
      <point x="202" y="89"/>
      <point x="242" y="89" type="curve" smooth="yes"/>
      <point x="297" y="89"/>
      <point x="345" y="112"/>
      <point x="345" y="186" type="curve"/>
      <point x="361" y="130" type="line"/>
      <point x="361" y="41"/>
      <point x="286" y="-10"/>
      <point x="191" y="-10" type="curve" smooth="yes"/>
      <point x="90" y="-10"/>
      <point x="24" y="41"/>
      <point x="24" y="128" type="curve" smooth="yes"/>
      <point x="24" y="223"/>
      <point x="106" y="279"/>
      <point x="223" y="279" type="curve" smooth="yes"/>
      <point x="292" y="279"/>
      <point x="358" y="251"/>
      <point x="378" y="230" type="curve"/>
      <point x="378" y="159" type="line"/>
      <point x="344" y="185"/>
      <point x="310" y="197"/>
      <point x="258" y="197" type="curve" smooth="yes"/>
      <point x="206" y="197"/>
      <point x="176" y="173"/>
    </contour>
    <contour>
      <point x="117" y="319" type="curve"/>
      <point x="66" y="420" type="line"/>
      <point x="119" y="445"/>
      <point x="193" y="473"/>
      <point x="276" y="473" type="curve" smooth="yes"/>
      <point x="400" y="473"/>
      <point x="490" y="419"/>
      <point x="490" y="324" type="curve" smooth="yes"/>
      <point x="490" y="0" type="line"/>
      <point x="345" y="0" type="line"/>
      <point x="345" y="294" type="line" smooth="yes"/>
      <point x="345" y="333"/>
      <point x="314" y="358"/>
      <point x="264" y="358" type="curve" smooth="yes"/>
      <point x="198" y="358"/>
      <point x="139" y="332"/>
    </contour>
    <contour>
      <point x="80" y="599" type="line"/>
      <point x="90" y="648"/>
      <point x="135" y="693"/>
      <point x="199" y="693" type="curve" smooth="yes"/>
      <point x="265" y="693"/>
      <point x="280" y="641"/>
      <point x="336" y="641" type="curve" smooth="yes"/>
      <point x="361" y="641"/>
      <point x="381" y="662"/>
      <point x="401" y="694" type="curve"/>
      <point x="472" y="620" type="line"/>
      <point x="456" y="583"/>
      <point x="400" y="535"/>
      <point x="338" y="535" type="curve" smooth="yes"/>
      <point x="283" y="535"/>
      <point x="247" y="588"/>
      <point x="198" y="588" type="curve" smooth="yes"/>
      <point x="160" y="588"/>
      <point x="152" y="552"/>
      <point x="152" y="537" type="curve"/>
    </contour>
  </outline>
</glyph>
<glyph name="aring" format="1">
  <advance width="543"/>
  <unicode hex="00E5"/>
  <outline>
    <contour>
      <point x="176" y="137" type="curve" smooth="yes"/>
      <point x="176" y="104"/>
      <point x="202" y="89"/>
      <point x="242" y="89" type="curve" smooth="yes"/>
      <point x="297" y="89"/>
      <point x="345" y="112"/>
      <point x="345" y="186" type="curve"/>
      <point x="361" y="130" type="line"/>
      <point x="361" y="41"/>
      <point x="286" y="-10"/>
      <point x="191" y="-10" type="curve" smooth="yes"/>
      <point x="90" y="-10"/>
      <point x="24" y="41"/>
      <point x="24" y="128" type="curve" smooth="yes"/>
      <point x="24" y="223"/>
      <point x="106" y="279"/>
      <point x="223" y="279" type="curve" smooth="yes"/>
      <point x="292" y="279"/>
      <point x="358" y="251"/>
      <point x="378" y="230" type="curve"/>
      <point x="378" y="159" type="line"/>
      <point x="344" y="185"/>
      <point x="310" y="197"/>
      <point x="258" y="197" type="curve" smooth="yes"/>
      <point x="206" y="197"/>
      <point x="176" y="173"/>
    </contour>
    <contour>
      <point x="117" y="319" type="curve"/>
      <point x="66" y="420" type="line"/>
      <point x="119" y="445"/>
      <point x="193" y="473"/>
      <point x="276" y="473" type="curve" smooth="yes"/>
      <point x="400" y="473"/>
      <point x="490" y="419"/>
      <point x="490" y="324" type="curve" smooth="yes"/>
      <point x="490" y="0" type="line"/>
      <point x="345" y="0" type="line"/>
      <point x="345" y="294" type="line" smooth="yes"/>
      <point x="345" y="333"/>
      <point x="314" y="358"/>
      <point x="264" y="358" type="curve" smooth="yes"/>
      <point x="198" y="358"/>
      <point x="139" y="332"/>
    </contour>
    <contour>
      <point x="151" y="649" type="curve" smooth="yes"/>
      <point x="151" y="718"/>
      <point x="206" y="764"/>
      <point x="275" y="764" type="curve" smooth="yes"/>
      <point x="344" y="764"/>
      <point x="401" y="718"/>
      <point x="401" y="649" type="curve" smooth="yes"/>
      <point x="401" y="580"/>
      <point x="344" y="533"/>
      <point x="275" y="533" type="curve" smooth="yes"/>
      <point x="206" y="533"/>
      <point x="151" y="580"/>
    </contour>
    <contour>
      <point x="229" y="649" type="curve" smooth="yes"/>
      <point x="229" y="619"/>
      <point x="250" y="601"/>
      <point x="275" y="601" type="curve" smooth="yes"/>
      <point x="300" y="601"/>
      <point x="322" y="619"/>
      <point x="322" y="649" type="curve" smooth="yes"/>
      <point x="322" y="679"/>
      <point x="300" y="697"/>
      <point x="275" y="697" type="curve" smooth="yes"/>
      <point x="250" y="697"/>
      <point x="229" y="679"/>
    </contour>
  </outline>
</glyph>
<glyph name="ae" format="1">
  <advance width="895"/>
  <unicode hex="00E6"/>
  <outline>
    <contour>
      <point x="176" y="137" type="curve" smooth="yes"/>
      <point x="176" y="104"/>
      <point x="202" y="89"/>
      <point x="242" y="89" type="curve" smooth="yes"/>
      <point x="297" y="89"/>
      <point x="345" y="112"/>
      <point x="345" y="186" type="curve"/>
      <point x="416" y="130" type="line"/>
      <point x="416" y="41"/>
      <point x="343" y="-10"/>
      <point x="217" y="-10" type="curve" smooth="yes"/>
      <point x="96" y="-10"/>
      <point x="24" y="41"/>
      <point x="24" y="128" type="curve" smooth="yes"/>
      <point x="24" y="223"/>
      <point x="106" y="279"/>
      <point x="223" y="279" type="curve" smooth="yes"/>
      <point x="292" y="279"/>
      <point x="358" y="251"/>
      <point x="378" y="230" type="curve"/>
      <point x="378" y="159" type="line"/>
      <point x="344" y="185"/>
      <point x="310" y="197"/>
      <point x="258" y="197" type="curve" smooth="yes"/>
      <point x="206" y="197"/>
      <point x="176" y="173"/>
    </contour>
    <contour>
      <point x="117" y="319" type="curve"/>
      <point x="66" y="420" type="line"/>
      <point x="119" y="445"/>
      <point x="193" y="473"/>
      <point x="276" y="473" type="curve" smooth="yes"/>
      <point x="400" y="473"/>
      <point x="439" y="419"/>
      <point x="439" y="324" type="curve" smooth="yes"/>
      <point x="439" y="130" type="line"/>
      <point x="345" y="130" type="line"/>
      <point x="345" y="290" type="line" smooth="yes"/>
      <point x="345" y="329"/>
      <point x="314" y="358"/>
      <point x="264" y="358" type="curve" smooth="yes"/>
      <point x="198" y="358"/>
      <point x="139" y="332"/>
    </contour>
    <contour>
      <point x="418" y="198" type="line"/>
      <point x="418" y="282" type="line"/>
      <point x="843" y="282" type="line"/>
      <point x="860" y="198" type="line"/>
    </contour>
    <contour>
      <point x="702" y="244" type="line" smooth="yes"/>
      <point x="702" y="324"/>
      <point x="675" y="369"/>
      <point x="610" y="369" type="curve" smooth="yes"/>
      <point x="549" y="369"/>
      <point x="509" y="328"/>
      <point x="509" y="254" type="curve"/>
      <point x="507" y="230" type="line"/>
      <point x="507" y="136"/>
      <point x="554" y="99"/>
      <point x="613" y="99" type="curve" smooth="yes"/>
      <point x="668" y="99"/>
      <point x="706" y="121"/>
      <point x="728" y="159" type="curve"/>
      <point x="863" y="126" type="line"/>
      <point x="817" y="44"/>
      <point x="747" y="-10"/>
      <point x="616" y="-10" type="curve" smooth="yes"/>
      <point x="448" y="-10"/>
      <point x="389" y="91"/>
      <point x="389" y="230" type="curve" smooth="yes"/>
      <point x="389" y="247"/>
      <point x="394" y="263"/>
      <point x="397" y="279" type="curve" smooth="yes"/>
      <point x="416" y="392"/>
      <point x="498" y="470"/>
      <point x="636" y="470" type="curve" smooth="yes"/>
      <point x="771" y="470"/>
      <point x="861" y="382"/>
      <point x="861" y="237" type="curve" smooth="yes"/>
      <point x="861" y="229"/>
      <point x="862" y="214"/>
      <point x="860" y="198" type="curve"/>
      <point x="702" y="218" type="line"/>
    </contour>
  </outline>
</glyph>
<glyph name="ccedilla" format="1">
  <advance width="493"/>
  <unicode hex="00E7"/>
  <outline>
    <contour>
      <point x="185" y="230" type="curve" smooth="yes"/>
      <point x="185" y="156"/>
      <point x="240" y="110"/>
      <point x="308" y="110" type="curve" smooth="yes"/>
      <point x="363" y="110"/>
      <point x="417" y="135"/>
      <point x="444" y="179" type="curve"/>
      <point x="444" y="32" type="line"/>
      <point x="412" y="6"/>
      <point x="365" y="-10"/>
      <point x="296" y="-10" type="curve" smooth="yes"/>
      <point x="142" y="-10"/>
      <point x="30" y="85"/>
      <point x="30" y="230" type="curve" smooth="yes"/>
      <point x="30" y="375"/>
      <point x="142" y="470"/>
      <point x="296" y="470" type="curve" smooth="yes"/>
      <point x="365" y="470"/>
      <point x="412" y="453"/>
      <point x="444" y="430" type="curve"/>
      <point x="444" y="282" type="line"/>
      <point x="417" y="326"/>
      <point x="357" y="350"/>
      <point x="308" y="350" type="curve" smooth="yes"/>
      <point x="240" y="350"/>
      <point x="185" y="298"/>
    </contour>
    <contour>
      <point x="238" y="61" type="line"/>
      <point x="347" y="57" type="line"/>
      <point x="261" y="-65" type="line"/>
      <point x="272" y="-62"/>
      <point x="284" y="-61"/>
      <point x="297" y="-61" type="curve" smooth="yes"/>
      <point x="337" y="-61"/>
      <point x="389" y="-93"/>
      <point x="389" y="-159" type="curve" smooth="yes"/>
      <point x="389" y="-231"/>
      <point x="321" y="-268"/>
      <point x="258" y="-268" type="curve" smooth="yes"/>
      <point x="202" y="-268"/>
      <point x="161" y="-258"/>
      <point x="114" y="-228" type="curve"/>
      <point x="160" y="-160" type="line"/>
      <point x="185" y="-178"/>
      <point x="218" y="-185"/>
      <point x="238" y="-185" type="curve" smooth="yes"/>
      <point x="272" y="-185"/>
      <point x="292" y="-174"/>
      <point x="292" y="-150" type="curve" smooth="yes"/>
      <point x="292" y="-124"/>
      <point x="263" y="-118"/>
      <point x="232" y="-118" type="curve" smooth="yes"/>
      <point x="222" y="-118"/>
      <point x="185" y="-120"/>
      <point x="150" y="-134" type="curve"/>
    </contour>
  </outline>
</glyph>
<glyph name="igrave" format="1">
  <advance width="276"/>
  <unicode hex="00EC"/>
  <outline>
    <contour>
      <point x="65" y="460" type="line"/>
      <point x="211" y="460" type="line"/>
      <point x="211" y="0" type="line"/>
      <point x="65" y="0" type="line"/>
    </contour>
    <contour>
      <point x="-42" y="688" type="line"/>
      <point x="73" y="741" type="line"/>
      <point x="223" y="581" type="line"/>
      <point x="138" y="538" type="line"/>
    </contour>
  </outline>
</glyph>
<glyph name="iacute" format="1">
  <advance width="276"/>
  <unicode hex="00ED"/>
  <outline>
    <contour>
      <point x="65" y="460" type="line"/>
      <point x="211" y="460" type="line"/>
      <point x="211" y="0" type="line"/>
      <point x="65" y="0" type="line"/>
    </contour>
    <contour>
      <point x="310" y="688" type="line"/>
      <point x="130" y="538" type="line"/>
      <point x="45" y="581" type="line"/>
      <point x="195" y="741" type="line"/>
    </contour>
  </outline>
</glyph>
<glyph name="icircumflex" format="1">
  <advance width="276"/>
  <unicode hex="00EE"/>
  <outline>
    <contour>
      <point x="65" y="460" type="line"/>
      <point x="211" y="460" type="line"/>
      <point x="211" y="0" type="line"/>
      <point x="65" y="0" type="line"/>
    </contour>
    <contour>
      <point x="137" y="620" type="line"/>
      <point x="46" y="534" type="line"/>
      <point x="-60" y="605" type="line"/>
      <point x="137" y="745" type="line"/>
      <point x="335" y="605" type="line"/>
      <point x="229" y="534" type="line"/>
    </contour>
  </outline>
</glyph>
<glyph name="idieresis" format="1">
  <advance width="276"/>
  <unicode hex="00EF"/>
  <outline>
    <contour>
      <point x="65" y="460" type="line"/>
      <point x="211" y="460" type="line"/>
      <point x="211" y="0" type="line"/>
      <point x="65" y="0" type="line"/>
    </contour>
    <contour>
      <point x="172" y="624" type="curve" smooth="yes"/>
      <point x="172" y="672"/>
      <point x="211" y="705"/>
      <point x="260" y="705" type="curve" smooth="yes"/>
      <point x="309" y="705"/>
      <point x="348" y="672"/>
      <point x="348" y="624" type="curve" smooth="yes"/>
      <point x="348" y="576"/>
      <point x="309" y="542"/>
      <point x="260" y="542" type="curve" smooth="yes"/>
      <point x="211" y="542"/>
      <point x="172" y="576"/>
    </contour>
    <contour>
      <point x="-72" y="624" type="curve" smooth="yes"/>
      <point x="-72" y="672"/>
      <point x="-33" y="705"/>
      <point x="16" y="705" type="curve" smooth="yes"/>
      <point x="65" y="705"/>
      <point x="104" y="672"/>
      <point x="104" y="624" type="curve" smooth="yes"/>
      <point x="104" y="576"/>
      <point x="65" y="542"/>
      <point x="16" y="542" type="curve" smooth="yes"/>
      <point x="-33" y="542"/>
      <point x="-72" y="576"/>
    </contour>
  </outline>
</glyph>
<glyph name="eth" format="1">
  <advance width="669"/>
  <unicode hex="00F0"/>
  <outline>
    <contour>
      <point x="452" y="246" type="curve" smooth="yes"/>
      <point x="452" y="317"/>
      <point x="401" y="365"/>
      <point x="334" y="365" type="curve" smooth="yes"/>
      <point x="267" y="365"/>
      <point x="217" y="317"/>
      <point x="217" y="246" type="curve" smooth="yes"/>
      <point x="217" y="175"/>
      <point x="267" y="128"/>
      <point x="334" y="128" type="curve" smooth="yes"/>
      <point x="401" y="128"/>
      <point x="452" y="175"/>
    </contour>
    <contour>
      <point x="336" y="697" type="line"/>
      <point x="538" y="440" type="line" smooth="yes"/>
      <point x="584" y="384"/>
      <point x="619" y="322"/>
      <point x="619" y="246" type="curve" smooth="yes"/>
      <point x="619" y="74"/>
      <point x="491" y="-16"/>
      <point x="334" y="-16" type="curve" smooth="yes"/>
      <point x="177" y="-16"/>
      <point x="50" y="74"/>
      <point x="50" y="246" type="curve" smooth="yes"/>
      <point x="50" y="387"/>
      <point x="161" y="473"/>
      <point x="266" y="473" type="curve" smooth="yes"/>
      <point x="316" y="473"/>
      <point x="345" y="465"/>
      <point x="383" y="429" type="curve"/>
      <point x="349" y="444" type="line"/>
      <point x="122" y="697" type="line"/>
    </contour>
    <contour>
      <point x="136" y="520" type="line"/>
      <point x="136" y="597" type="line"/>
      <point x="573" y="597" type="line"/>
      <point x="573" y="520" type="line"/>
    </contour>
  </outline>
</glyph>
<glyph name="ntilde" format="2">
  <advance width="574"/>
  <unicode hex="00F1"/>
  <outline>
    <contour>
      <point x="211" y="460" type="line"/>
      <point x="211" y="0" type="line"/>
      <point x="60" y="0" type="line"/>
      <point x="60" y="460" type="line"/>
    </contour>
    <contour>
      <point x="358" y="280" type="line" smooth="yes"/>
      <point x="358" y="334"/>
      <point x="340" y="365"/>
      <point x="290" y="365" type="curve" smooth="yes"/>
      <point x="242" y="365"/>
      <point x="211" y="334"/>
      <point x="211" y="280" type="curve"/>
      <point x="181" y="274" type="line"/>
      <point x="181" y="383"/>
      <point x="237" y="470"/>
      <point x="351" y="470" type="curve" smooth="yes"/>
      <point x="465" y="470"/>
      <point x="515" y="409"/>
      <point x="515" y="296" type="curve" smooth="yes"/>
      <point x="515" y="0" type="line"/>
      <point x="358" y="0" type="line"/>
    </contour>
    <contour>
      <point x="92" y="596" type="line"/>
      <point x="102" y="645"/>
      <point x="146" y="690"/>
      <point x="210" y="690" type="curve" smooth="yes"/>
      <point x="276" y="690"/>
      <point x="292" y="639"/>
      <point x="348" y="639" type="curve" smooth="yes"/>
      <point x="373" y="639"/>
      <point x="393" y="660"/>
      <point x="413" y="692" type="curve"/>
      <point x="484" y="618" type="line"/>
      <point x="468" y="581"/>
      <point x="412" y="532"/>
      <point x="350" y="532" type="curve" smooth="yes"/>
      <point x="295" y="532"/>
      <point x="260" y="586"/>
      <point x="210" y="586" type="curve" smooth="yes"/>
      <point x="172" y="586"/>
      <point x="162" y="549"/>
      <point x="162" y="534" type="curve"/>
    </contour>
  </outline>
</glyph>
<glyph name="oacute" format="2">
  <advance width="589"/>
  <unicode hex="00F3"/>
  <outline>
    <contour>
      <point x="32" y="230" type="curve" smooth="yes"/>
      <point x="32" y="375"/>
      <point x="144" y="470"/>
      <point x="294" y="470" type="curve" smooth="yes"/>
      <point x="444" y="470"/>
      <point x="557" y="375"/>
      <point x="557" y="230" type="curve" smooth="yes"/>
      <point x="557" y="85"/>
      <point x="444" y="-10"/>
      <point x="294" y="-10" type="curve" smooth="yes"/>
      <point x="144" y="-10"/>
      <point x="32" y="85"/>
    </contour>
    <contour>
      <point x="188" y="230" type="curve" smooth="yes"/>
      <point x="188" y="158"/>
      <point x="235" y="115"/>
      <point x="294" y="115" type="curve" smooth="yes"/>
      <point x="353" y="115"/>
      <point x="402" y="158"/>
      <point x="402" y="230" type="curve" smooth="yes"/>
      <point x="402" y="302"/>
      <point x="353" y="346"/>
      <point x="294" y="346" type="curve" smooth="yes"/>
      <point x="235" y="346"/>
      <point x="188" y="302"/>
    </contour>
    <contour>
      <point x="454" y="688" type="line"/>
      <point x="274" y="538" type="line"/>
      <point x="190" y="580" type="line"/>
      <point x="340" y="740" type="line"/>
    </contour>
  </outline>
</glyph>
<glyph name="ocircumflex" format="1">
  <advance width="589"/>
  <unicode hex="00F4"/>
  <outline>
    <contour>
      <point x="32" y="230" type="curve" smooth="yes"/>
      <point x="32" y="375"/>
      <point x="145" y="471"/>
      <point x="295" y="471" type="curve" smooth="yes"/>
      <point x="445" y="471"/>
      <point x="558" y="375"/>
      <point x="558" y="230" type="curve" smooth="yes"/>
      <point x="558" y="85"/>
      <point x="445" y="-10"/>
      <point x="295" y="-10" type="curve" smooth="yes"/>
      <point x="145" y="-10"/>
      <point x="32" y="85"/>
    </contour>
    <contour>
      <point x="187" y="230" type="curve" smooth="yes"/>
      <point x="187" y="159"/>
      <point x="236" y="115"/>
      <point x="295" y="115" type="curve" smooth="yes"/>
      <point x="354" y="115"/>
      <point x="402" y="159"/>
      <point x="402" y="230" type="curve" smooth="yes"/>
      <point x="402" y="301"/>
      <point x="354" y="346"/>
      <point x="295" y="346" type="curve" smooth="yes"/>
      <point x="236" y="346"/>
      <point x="187" y="301"/>
    </contour>
    <contour>
      <point x="295" y="624" type="line"/>
      <point x="203" y="538" type="line"/>
      <point x="98" y="609" type="line"/>
      <point x="295" y="749" type="line"/>
      <point x="492" y="609" type="line"/>
      <point x="386" y="538" type="line"/>
    </contour>
  </outline>
</glyph>
<glyph name="otilde" format="1">
  <advance width="589"/>
  <unicode hex="00F5"/>
  <outline>
    <contour>
      <point x="32" y="230" type="curve" smooth="yes"/>
      <point x="32" y="375"/>
      <point x="145" y="471"/>
      <point x="295" y="471" type="curve" smooth="yes"/>
      <point x="445" y="471"/>
      <point x="558" y="375"/>
      <point x="558" y="230" type="curve" smooth="yes"/>
      <point x="558" y="85"/>
      <point x="445" y="-10"/>
      <point x="295" y="-10" type="curve" smooth="yes"/>
      <point x="145" y="-10"/>
      <point x="32" y="85"/>
    </contour>
    <contour>
      <point x="187" y="230" type="curve" smooth="yes"/>
      <point x="187" y="159"/>
      <point x="236" y="115"/>
      <point x="295" y="115" type="curve" smooth="yes"/>
      <point x="354" y="115"/>
      <point x="402" y="159"/>
      <point x="402" y="230" type="curve" smooth="yes"/>
      <point x="402" y="301"/>
      <point x="354" y="346"/>
      <point x="295" y="346" type="curve" smooth="yes"/>
      <point x="236" y="346"/>
      <point x="187" y="301"/>
    </contour>
    <contour>
      <point x="99" y="596" type="line"/>
      <point x="109" y="645"/>
      <point x="154" y="691"/>
      <point x="218" y="691" type="curve" smooth="yes"/>
      <point x="284" y="691"/>
      <point x="299" y="639"/>
      <point x="355" y="639" type="curve" smooth="yes"/>
      <point x="380" y="639"/>
      <point x="400" y="660"/>
      <point x="420" y="692" type="curve"/>
      <point x="491" y="618" type="line"/>
      <point x="475" y="581"/>
      <point x="419" y="532"/>
      <point x="357" y="532" type="curve" smooth="yes"/>
      <point x="302" y="532"/>
      <point x="266" y="585"/>
      <point x="217" y="585" type="curve" smooth="yes"/>
      <point x="179" y="585"/>
      <point x="170" y="549"/>
      <point x="170" y="534" type="curve"/>
    </contour>
  </outline>
</glyph>
<glyph name="odieresis" format="1">
  <advance width="589"/>
  <unicode hex="00F6"/>
  <outline>
    <contour>
      <point x="32" y="230" type="curve" smooth="yes"/>
      <point x="32" y="375"/>
      <point x="145" y="471"/>
      <point x="295" y="471" type="curve" smooth="yes"/>
      <point x="445" y="471"/>
      <point x="558" y="375"/>
      <point x="558" y="230" type="curve" smooth="yes"/>
      <point x="558" y="85"/>
      <point x="445" y="-10"/>
      <point x="295" y="-10" type="curve" smooth="yes"/>
      <point x="145" y="-10"/>
      <point x="32" y="85"/>
    </contour>
    <contour>
      <point x="187" y="230" type="curve" smooth="yes"/>
      <point x="187" y="159"/>
      <point x="236" y="115"/>
      <point x="295" y="115" type="curve" smooth="yes"/>
      <point x="354" y="115"/>
      <point x="402" y="159"/>
      <point x="402" y="230" type="curve" smooth="yes"/>
      <point x="402" y="301"/>
      <point x="354" y="346"/>
      <point x="295" y="346" type="curve" smooth="yes"/>
      <point x="236" y="346"/>
      <point x="187" y="301"/>
    </contour>
    <contour>
      <point x="329" y="624" type="curve" smooth="yes"/>
      <point x="329" y="672"/>
      <point x="367" y="705"/>
      <point x="416" y="705" type="curve" smooth="yes"/>
      <point x="465" y="705"/>
      <point x="504" y="672"/>
      <point x="504" y="624" type="curve" smooth="yes"/>
      <point x="504" y="576"/>
      <point x="465" y="542"/>
      <point x="416" y="542" type="curve" smooth="yes"/>
      <point x="367" y="542"/>
      <point x="329" y="576"/>
    </contour>
    <contour>
      <point x="85" y="624" type="curve" smooth="yes"/>
      <point x="85" y="672"/>
      <point x="124" y="705"/>
      <point x="173" y="705" type="curve" smooth="yes"/>
      <point x="222" y="705"/>
      <point x="261" y="672"/>
      <point x="261" y="624" type="curve" smooth="yes"/>
      <point x="261" y="576"/>
      <point x="222" y="542"/>
      <point x="173" y="542" type="curve" smooth="yes"/>
      <point x="124" y="542"/>
      <point x="85" y="576"/>
    </contour>
  </outline>
</glyph>
<glyph name="divide" format="1">
  <advance width="639"/>
  <unicode hex="00F7"/>
  <outline>
    <contour>
      <point x="225" y="552" type="curve" smooth="yes"/>
      <point x="225" y="602"/>
      <point x="264" y="644"/>
      <point x="319" y="644" type="curve" smooth="yes"/>
      <point x="374" y="644"/>
      <point x="413" y="602"/>
      <point x="413" y="552" type="curve" smooth="yes"/>
      <point x="413" y="502"/>
      <point x="374" y="460"/>
      <point x="319" y="460" type="curve" smooth="yes"/>
      <point x="264" y="460"/>
      <point x="225" y="502"/>
    </contour>
    <contour>
      <point x="225" y="98" type="curve" smooth="yes"/>
      <point x="225" y="148"/>
      <point x="264" y="190"/>
      <point x="319" y="190" type="curve" smooth="yes"/>
      <point x="374" y="190"/>
      <point x="413" y="148"/>
      <point x="413" y="98" type="curve" smooth="yes"/>
      <point x="413" y="48"/>
      <point x="374" y="6"/>
      <point x="319" y="6" type="curve" smooth="yes"/>
      <point x="264" y="6"/>
      <point x="225" y="48"/>
    </contour>
    <contour>
      <point x="26" y="259" type="line"/>
      <point x="26" y="395" type="line"/>
      <point x="613" y="395" type="line"/>
      <point x="613" y="259" type="line"/>
    </contour>
  </outline>
</glyph>
<glyph name="oslash" format="1">
  <advance width="546"/>
  <unicode hex="00F8"/>
  <outline>
    <contour>
      <point x="32" y="230" type="curve" smooth="yes"/>
      <point x="32" y="381"/>
      <point x="148" y="470"/>
      <point x="295" y="470" type="curve" smooth="yes"/>
      <point x="442" y="470"/>
      <point x="558" y="381"/>
      <point x="558" y="230" type="curve" smooth="yes"/>
      <point x="558" y="79"/>
      <point x="442" y="-10"/>
      <point x="295" y="-10" type="curve" smooth="yes"/>
      <point x="148" y="-10"/>
      <point x="32" y="79"/>
    </contour>
    <contour>
      <point x="175" y="230" type="curve" smooth="yes"/>
      <point x="175" y="153"/>
      <point x="230" y="108"/>
      <point x="295" y="108" type="curve" smooth="yes"/>
      <point x="360" y="108"/>
      <point x="414" y="153"/>
      <point x="414" y="230" type="curve" smooth="yes"/>
      <point x="414" y="301"/>
      <point x="360" y="352"/>
      <point x="295" y="352" type="curve" smooth="yes"/>
      <point x="230" y="352"/>
      <point x="175" y="301"/>
    </contour>
    <contour>
      <point x="456" y="506" type="line"/>
      <point x="513" y="474" type="line"/>
      <point x="123" y="-50" type="line"/>
      <point x="66" y="-18" type="line"/>
    </contour>
  </outline>
</glyph>
<glyph name="ugrave" format="1">
  <advance width="574"/>
  <unicode hex="00F9"/>
  <outline>
    <contour>
      <point x="364" y="0" type="line"/>
      <point x="364" y="460" type="line"/>
      <point x="515" y="460" type="line"/>
      <point x="515" y="0" type="line"/>
    </contour>
    <contour>
      <point x="217" y="180" type="line" smooth="yes"/>
      <point x="217" y="126"/>
      <point x="234" y="95"/>
      <point x="284" y="95" type="curve" smooth="yes"/>
      <point x="332" y="95"/>
      <point x="364" y="126"/>
      <point x="364" y="180" type="curve"/>
      <point x="394" y="186" type="line"/>
      <point x="394" y="77"/>
      <point x="338" y="-11"/>
      <point x="224" y="-11" type="curve" smooth="yes"/>
      <point x="110" y="-11"/>
      <point x="60" y="51"/>
      <point x="60" y="164" type="curve" smooth="yes"/>
      <point x="60" y="460" type="line"/>
      <point x="217" y="460" type="line"/>
    </contour>
    <contour>
      <point x="142" y="688" type="line"/>
      <point x="258" y="741" type="line"/>
      <point x="408" y="581" type="line"/>
      <point x="322" y="538" type="line"/>
    </contour>
  </outline>
</glyph>
<glyph name="uacute" format="1">
  <advance width="574"/>
  <unicode hex="00FA"/>
  <outline>
    <contour>
      <point x="364" y="0" type="line"/>
      <point x="364" y="460" type="line"/>
      <point x="515" y="460" type="line"/>
      <point x="515" y="0" type="line"/>
    </contour>
    <contour>
      <point x="217" y="180" type="line" smooth="yes"/>
      <point x="217" y="126"/>
      <point x="234" y="95"/>
      <point x="284" y="95" type="curve" smooth="yes"/>
      <point x="332" y="95"/>
      <point x="364" y="126"/>
      <point x="364" y="180" type="curve"/>
      <point x="394" y="186" type="line"/>
      <point x="394" y="77"/>
      <point x="338" y="-11"/>
      <point x="224" y="-11" type="curve" smooth="yes"/>
      <point x="110" y="-11"/>
      <point x="60" y="51"/>
      <point x="60" y="164" type="curve" smooth="yes"/>
      <point x="60" y="460" type="line"/>
      <point x="217" y="460" type="line"/>
    </contour>
    <contour>
      <point x="432" y="688" type="line"/>
      <point x="252" y="538" type="line"/>
      <point x="167" y="581" type="line"/>
      <point x="317" y="741" type="line"/>
    </contour>
  </outline>
</glyph>
<glyph name="udieresis" format="1">
  <advance width="574"/>
  <unicode hex="00FC"/>
  <outline>
    <contour>
      <point x="364" y="0" type="line"/>
      <point x="364" y="460" type="line"/>
      <point x="515" y="460" type="line"/>
      <point x="515" y="0" type="line"/>
    </contour>
    <contour>
      <point x="217" y="180" type="line" smooth="yes"/>
      <point x="217" y="126"/>
      <point x="234" y="95"/>
      <point x="284" y="95" type="curve" smooth="yes"/>
      <point x="332" y="95"/>
      <point x="364" y="126"/>
      <point x="364" y="180" type="curve"/>
      <point x="394" y="186" type="line"/>
      <point x="394" y="77"/>
      <point x="338" y="-11"/>
      <point x="224" y="-11" type="curve" smooth="yes"/>
      <point x="110" y="-11"/>
      <point x="60" y="51"/>
      <point x="60" y="164" type="curve" smooth="yes"/>
      <point x="60" y="460" type="line"/>
      <point x="217" y="460" type="line"/>
    </contour>
    <contour>
      <point x="322" y="620" type="curve" smooth="yes"/>
      <point x="322" y="668"/>
      <point x="360" y="702"/>
      <point x="409" y="702" type="curve" smooth="yes"/>
      <point x="458" y="702"/>
      <point x="497" y="668"/>
      <point x="497" y="620" type="curve" smooth="yes"/>
      <point x="497" y="572"/>
      <point x="458" y="538"/>
      <point x="409" y="538" type="curve" smooth="yes"/>
      <point x="360" y="538"/>
      <point x="322" y="572"/>
    </contour>
    <contour>
      <point x="78" y="620" type="curve" smooth="yes"/>
      <point x="78" y="668"/>
      <point x="117" y="702"/>
      <point x="166" y="702" type="curve" smooth="yes"/>
      <point x="215" y="702"/>
      <point x="254" y="668"/>
      <point x="254" y="620" type="curve" smooth="yes"/>
      <point x="254" y="572"/>
      <point x="215" y="538"/>
      <point x="166" y="538" type="curve" smooth="yes"/>
      <point x="117" y="538"/>
      <point x="78" y="572"/>
    </contour>
  </outline>
</glyph>
<glyph name="yacute" format="1">
  <advance width="520"/>
  <unicode hex="00FD"/>
  <outline>
    <contour>
      <point x="530" y="460" type="line"/>
      <point x="230" y="-220" type="line"/>
      <point x="78" y="-220" type="line"/>
      <point x="190" y="37" type="line"/>
      <point x="-9" y="460" type="line"/>
      <point x="157" y="460" type="line"/>
      <point x="305" y="91" type="line"/>
      <point x="228" y="92" type="line"/>
      <point x="375" y="460" type="line"/>
    </contour>
    <contour>
      <point x="421" y="688" type="line"/>
      <point x="241" y="538" type="line"/>
      <point x="156" y="581" type="line"/>
      <point x="306" y="741" type="line"/>
    </contour>
  </outline>
</glyph>
<glyph name="thorn" format="1">
  <advance width="616"/>
  <unicode hex="00FE"/>
  <outline>
    <contour>
      <point x="209" y="-220" type="line"/>
      <point x="58" y="-220" type="line"/>
      <point x="58" y="780" type="line"/>
      <point x="209" y="780" type="line"/>
    </contour>
    <contour>
      <point x="585" y="230" type="curve" smooth="yes"/>
      <point x="585" y="75"/>
      <point x="479" y="-10"/>
      <point x="366" y="-10" type="curve" smooth="yes"/>
      <point x="251" y="-10"/>
      <point x="167" y="81"/>
      <point x="167" y="230" type="curve" smooth="yes"/>
      <point x="167" y="379"/>
      <point x="251" y="470"/>
      <point x="366" y="470" type="curve" smooth="yes"/>
      <point x="479" y="470"/>
      <point x="585" y="385"/>
    </contour>
    <contour>
      <point x="426" y="230" type="curve" smooth="yes"/>
      <point x="426" y="302"/>
      <point x="376" y="348"/>
      <point x="316" y="348" type="curve" smooth="yes"/>
      <point x="265" y="348"/>
      <point x="209" y="305"/>
      <point x="209" y="230" type="curve" smooth="yes"/>
      <point x="209" y="155"/>
      <point x="265" y="112"/>
      <point x="316" y="112" type="curve" smooth="yes"/>
      <point x="376" y="112"/>
      <point x="426" y="158"/>
    </contour>
  </outline>
</glyph>
<glyph name="ydieresis" format="2">
  <advance width="520"/>
  <unicode hex="00FF"/>
  <outline>
    <contour>
      <point x="530" y="460" type="line"/>
      <point x="230" y="-220" type="line"/>
      <point x="78" y="-220" type="line"/>
      <point x="190" y="38" type="line"/>
      <point x="-9" y="460" type="line"/>
      <point x="157" y="460" type="line"/>
      <point x="306" y="91" type="line"/>
      <point x="228" y="92" type="line"/>
      <point x="374" y="460" type="line"/>
    </contour>
    <contour>
      <point x="294" y="612" type="curve" smooth="yes"/>
      <point x="294" y="660"/>
      <point x="334" y="694"/>
      <point x="382" y="694" type="curve" smooth="yes"/>
      <point x="430" y="694"/>
      <point x="470" y="660"/>
      <point x="470" y="612" type="curve" smooth="yes"/>
      <point x="470" y="564"/>
      <point x="430" y="530"/>
      <point x="382" y="530" type="curve" smooth="yes"/>
      <point x="334" y="530"/>
      <point x="294" y="564"/>
    </contour>
    <contour>
      <point x="50" y="612" type="curve" smooth="yes"/>
      <point x="50" y="660"/>
      <point x="90" y="694"/>
      <point x="138" y="694" type="curve" smooth="yes"/>
      <point x="186" y="694"/>
      <point x="226" y="660"/>
      <point x="226" y="612" type="curve" smooth="yes"/>
      <point x="226" y="564"/>
      <point x="186" y="530"/>
      <point x="138" y="530" type="curve" smooth="yes"/>
      <point x="90" y="530"/>
      <point x="50" y="564"/>
    </contour>
  </outline>
</glyph>
<glyph name="Abreve" format="1">
  <advance width="734"/>
  <unicode hex="0102"/>
  <outline>
    <contour>
      <point x="184" y="136" type="line"/>
      <point x="196" y="264" type="line"/>
      <point x="543" y="264" type="line"/>
      <point x="554" y="136" type="line"/>
    </contour>
    <contour>
      <point x="367" y="443" type="line"/>
      <point x="269" y="218" type="line"/>
      <point x="277" y="180" type="line"/>
      <point x="190" y="0" type="line"/>
      <point x="-1" y="0" type="line"/>
      <point x="367" y="744" type="line"/>
      <point x="736" y="0" type="line"/>
      <point x="544" y="0" type="line"/>
      <point x="460" y="173" type="line"/>
      <point x="466" y="216" type="line"/>
    </contour>
    <contour>
      <point x="203" y="950" type="curve"/>
      <point x="302" y="950" type="line"/>
      <point x="302" y="915"/>
      <point x="328" y="891"/>
      <point x="367" y="891" type="curve" smooth="yes"/>
      <point x="406" y="891"/>
      <point x="432" y="915"/>
      <point x="432" y="950" type="curve"/>
      <point x="531" y="950" type="line"/>
      <point x="531" y="869"/>
      <point x="472" y="804"/>
      <point x="367" y="804" type="curve" smooth="yes"/>
      <point x="262" y="804"/>
      <point x="203" y="869"/>
    </contour>
  </outline>
</glyph>
<glyph name="abreve" format="1">
  <advance width="543"/>
  <unicode hex="0103"/>
  <outline>
    <contour>
      <point x="176" y="137" type="curve" smooth="yes"/>
      <point x="176" y="104"/>
      <point x="202" y="89"/>
      <point x="242" y="89" type="curve" smooth="yes"/>
      <point x="297" y="89"/>
      <point x="345" y="112"/>
      <point x="345" y="186" type="curve"/>
      <point x="361" y="130" type="line"/>
      <point x="361" y="41"/>
      <point x="286" y="-10"/>
      <point x="191" y="-10" type="curve" smooth="yes"/>
      <point x="90" y="-10"/>
      <point x="24" y="41"/>
      <point x="24" y="128" type="curve" smooth="yes"/>
      <point x="24" y="223"/>
      <point x="106" y="279"/>
      <point x="223" y="279" type="curve" smooth="yes"/>
      <point x="292" y="279"/>
      <point x="358" y="251"/>
      <point x="378" y="230" type="curve"/>
      <point x="378" y="159" type="line"/>
      <point x="344" y="185"/>
      <point x="310" y="197"/>
      <point x="258" y="197" type="curve" smooth="yes"/>
      <point x="206" y="197"/>
      <point x="176" y="173"/>
    </contour>
    <contour>
      <point x="117" y="319" type="curve"/>
      <point x="66" y="420" type="line"/>
      <point x="119" y="445"/>
      <point x="193" y="473"/>
      <point x="276" y="473" type="curve" smooth="yes"/>
      <point x="400" y="473"/>
      <point x="490" y="419"/>
      <point x="490" y="324" type="curve" smooth="yes"/>
      <point x="490" y="0" type="line"/>
      <point x="345" y="0" type="line"/>
      <point x="345" y="294" type="line" smooth="yes"/>
      <point x="345" y="333"/>
      <point x="314" y="358"/>
      <point x="264" y="358" type="curve" smooth="yes"/>
      <point x="198" y="358"/>
      <point x="139" y="332"/>
    </contour>
    <contour>
      <point x="112" y="679" type="curve"/>
      <point x="211" y="679" type="line"/>
      <point x="211" y="644"/>
      <point x="237" y="620"/>
      <point x="276" y="620" type="curve" smooth="yes"/>
      <point x="315" y="620"/>
      <point x="341" y="644"/>
      <point x="341" y="679" type="curve"/>
      <point x="440" y="679" type="line"/>
      <point x="440" y="598"/>
      <point x="381" y="533"/>
      <point x="276" y="533" type="curve" smooth="yes"/>
      <point x="171" y="533"/>
      <point x="112" y="598"/>
    </contour>
  </outline>
</glyph>
<glyph name="Aogonek" format="2">
  <advance width="733"/>
  <unicode hex="0104"/>
  <outline>
    <contour>
      <point x="184" y="136" type="line"/>
      <point x="196" y="264" type="line"/>
      <point x="543" y="264" type="line"/>
      <point x="554" y="136" type="line"/>
    </contour>
    <contour>
      <point x="367" y="443" type="line"/>
      <point x="269" y="218" type="line"/>
      <point x="277" y="180" type="line"/>
      <point x="190" y="0" type="line"/>
      <point x="-1" y="0" type="line"/>
      <point x="367" y="744" type="line"/>
      <point x="736" y="0" type="line"/>
      <point x="544" y="0" type="line"/>
      <point x="460" y="173" type="line"/>
      <point x="466" y="216" type="line"/>
    </contour>
    <contour>
      <point x="691" y="-112" type="curve"/>
      <point x="724" y="-180" type="line"/>
      <point x="709" y="-200"/>
      <point x="680" y="-220"/>
      <point x="624" y="-220" type="curve" smooth="yes"/>
      <point x="558" y="-220"/>
      <point x="506" y="-185"/>
      <point x="506" y="-120" type="curve" smooth="yes"/>
      <point x="506" y="-55"/>
      <point x="575" y="-11"/>
      <point x="645" y="25" type="curve"/>
      <point x="686" y="0" type="line"/>
      <point x="634" y="-28"/>
      <point x="605" y="-63"/>
      <point x="605" y="-94" type="curve" smooth="yes"/>
      <point x="605" y="-118"/>
      <point x="617" y="-132"/>
      <point x="641" y="-132" type="curve" smooth="yes"/>
      <point x="661" y="-132"/>
      <point x="677" y="-125"/>
    </contour>
  </outline>
</glyph>
<glyph name="aogonek" format="2">
  <advance width="543"/>
  <unicode hex="0105"/>
  <outline>
    <contour>
      <point x="176" y="138" type="curve" smooth="yes"/>
      <point x="176" y="104"/>
      <point x="206" y="88"/>
      <point x="242" y="88" type="curve" smooth="yes"/>
      <point x="298" y="88"/>
      <point x="345" y="112"/>
      <point x="345" y="186" type="curve"/>
      <point x="361" y="130" type="line"/>
      <point x="361" y="41"/>
      <point x="286" y="-10"/>
      <point x="191" y="-10" type="curve" smooth="yes"/>
      <point x="93" y="-10"/>
      <point x="24" y="39"/>
      <point x="24" y="130" type="curve" smooth="yes"/>
      <point x="24" y="221"/>
      <point x="102" y="279"/>
      <point x="223" y="279" type="curve" smooth="yes"/>
      <point x="293" y="279"/>
      <point x="358" y="252"/>
      <point x="378" y="230" type="curve"/>
      <point x="378" y="159" type="line"/>
      <point x="344" y="185"/>
      <point x="310" y="198"/>
      <point x="258" y="198" type="curve" smooth="yes"/>
      <point x="206" y="198"/>
      <point x="176" y="174"/>
    </contour>
    <contour>
      <point x="117" y="319" type="curve"/>
      <point x="66" y="420" type="line"/>
      <point x="118" y="445"/>
      <point x="193" y="473"/>
      <point x="276" y="473" type="curve" smooth="yes"/>
      <point x="400" y="473"/>
      <point x="490" y="419"/>
      <point x="490" y="324" type="curve" smooth="yes"/>
      <point x="490" y="0" type="line"/>
      <point x="345" y="0" type="line"/>
      <point x="345" y="294" type="line" smooth="yes"/>
      <point x="345" y="333"/>
      <point x="314" y="358"/>
      <point x="264" y="358" type="curve" smooth="yes"/>
      <point x="198" y="358"/>
      <point x="139" y="332"/>
    </contour>
    <contour>
      <point x="464" y="-112" type="curve"/>
      <point x="497" y="-180" type="line"/>
      <point x="482" y="-200"/>
      <point x="452" y="-220"/>
      <point x="396" y="-220" type="curve" smooth="yes"/>
      <point x="330" y="-220"/>
      <point x="280" y="-185"/>
      <point x="280" y="-120" type="curve" smooth="yes"/>
      <point x="280" y="-55"/>
      <point x="348" y="-11"/>
      <point x="418" y="25" type="curve"/>
      <point x="459" y="0" type="line"/>
      <point x="407" y="-28"/>
      <point x="378" y="-63"/>
      <point x="378" y="-94" type="curve" smooth="yes"/>
      <point x="378" y="-118"/>
      <point x="390" y="-132"/>
      <point x="414" y="-132" type="curve" smooth="yes"/>
      <point x="434" y="-132"/>
      <point x="450" y="-125"/>
    </contour>
  </outline>
</glyph>
<glyph name="Cacute" format="1">
  <advance width="700"/>
  <unicode hex="0106"/>
  <outline>
    <contour>
      <point x="218" y="350" type="curve" smooth="yes"/>
      <point x="218" y="221"/>
      <point x="315" y="144"/>
      <point x="428" y="144" type="curve" smooth="yes"/>
      <point x="527" y="144"/>
      <point x="591" y="187"/>
      <point x="637" y="237" type="curve"/>
      <point x="637" y="55" type="line"/>
      <point x="580" y="12"/>
      <point x="520" y="-16"/>
      <point x="418" y="-16" type="curve" smooth="yes"/>
      <point x="193" y="-16"/>
      <point x="34" y="132"/>
      <point x="34" y="350" type="curve" smooth="yes"/>
      <point x="34" y="568"/>
      <point x="193" y="716"/>
      <point x="418" y="716" type="curve" smooth="yes"/>
      <point x="520" y="716"/>
      <point x="580" y="688"/>
      <point x="637" y="645" type="curve"/>
      <point x="637" y="463" type="line"/>
      <point x="591" y="513"/>
      <point x="527" y="556"/>
      <point x="428" y="556" type="curve" smooth="yes"/>
      <point x="315" y="556"/>
      <point x="218" y="479"/>
    </contour>
    <contour>
      <point x="548" y="926" type="line"/>
      <point x="368" y="776" type="line"/>
      <point x="283" y="819" type="line"/>
      <point x="433" y="979" type="line"/>
    </contour>
  </outline>
</glyph>
<glyph name="Ccircumflex" format="1">
  <advance width="700"/>
  <unicode hex="0108"/>
  <outline>
    <contour>
      <point x="218" y="350" type="curve" smooth="yes"/>
      <point x="218" y="221"/>
      <point x="315" y="144"/>
      <point x="428" y="144" type="curve" smooth="yes"/>
      <point x="527" y="144"/>
      <point x="591" y="187"/>
      <point x="637" y="237" type="curve"/>
      <point x="637" y="55" type="line"/>
      <point x="580" y="12"/>
      <point x="520" y="-16"/>
      <point x="418" y="-16" type="curve" smooth="yes"/>
      <point x="193" y="-16"/>
      <point x="34" y="132"/>
      <point x="34" y="350" type="curve" smooth="yes"/>
      <point x="34" y="568"/>
      <point x="193" y="716"/>
      <point x="418" y="716" type="curve" smooth="yes"/>
      <point x="520" y="716"/>
      <point x="580" y="688"/>
      <point x="637" y="645" type="curve"/>
      <point x="637" y="463" type="line"/>
      <point x="591" y="513"/>
      <point x="527" y="556"/>
      <point x="428" y="556" type="curve" smooth="yes"/>
      <point x="315" y="556"/>
      <point x="218" y="479"/>
    </contour>
    <contour>
      <point x="418" y="862" type="line"/>
      <point x="326" y="776" type="line"/>
      <point x="221" y="847" type="line"/>
      <point x="418" y="987" type="line"/>
      <point x="615" y="847" type="line"/>
      <point x="509" y="776" type="line"/>
    </contour>
  </outline>
</glyph>
<glyph name="Cdotaccent" format="1">
  <advance width="700"/>
  <unicode hex="010A"/>
  <outline>
    <contour>
      <point x="218" y="350" type="curve" smooth="yes"/>
      <point x="218" y="221"/>
      <point x="315" y="144"/>
      <point x="428" y="144" type="curve" smooth="yes"/>
      <point x="527" y="144"/>
      <point x="591" y="187"/>
      <point x="637" y="237" type="curve"/>
      <point x="637" y="55" type="line"/>
      <point x="580" y="12"/>
      <point x="520" y="-16"/>
      <point x="418" y="-16" type="curve" smooth="yes"/>
      <point x="193" y="-16"/>
      <point x="34" y="132"/>
      <point x="34" y="350" type="curve" smooth="yes"/>
      <point x="34" y="568"/>
      <point x="193" y="716"/>
      <point x="418" y="716" type="curve" smooth="yes"/>
      <point x="520" y="716"/>
      <point x="580" y="688"/>
      <point x="637" y="645" type="curve"/>
      <point x="637" y="463" type="line"/>
      <point x="591" y="513"/>
      <point x="527" y="556"/>
      <point x="428" y="556" type="curve" smooth="yes"/>
      <point x="315" y="556"/>
      <point x="218" y="479"/>
    </contour>
    <contour>
      <point x="305" y="858" type="curve" smooth="yes"/>
      <point x="305" y="906"/>
      <point x="344" y="940"/>
      <point x="393" y="940" type="curve" smooth="yes"/>
      <point x="442" y="940"/>
      <point x="481" y="906"/>
      <point x="481" y="858" type="curve" smooth="yes"/>
      <point x="481" y="810"/>
      <point x="442" y="776"/>
      <point x="393" y="776" type="curve" smooth="yes"/>
      <point x="344" y="776"/>
      <point x="305" y="810"/>
    </contour>
  </outline>
</glyph>
<glyph name="cdotaccent" format="1">
  <advance width="493"/>
  <unicode hex="010B"/>
  <outline>
    <contour>
      <point x="185" y="230" type="curve" smooth="yes"/>
      <point x="185" y="156"/>
      <point x="240" y="110"/>
      <point x="308" y="110" type="curve" smooth="yes"/>
      <point x="363" y="110"/>
      <point x="417" y="135"/>
      <point x="444" y="179" type="curve"/>
      <point x="444" y="32" type="line"/>
      <point x="412" y="6"/>
      <point x="365" y="-10"/>
      <point x="296" y="-10" type="curve" smooth="yes"/>
      <point x="142" y="-10"/>
      <point x="30" y="85"/>
      <point x="30" y="230" type="curve" smooth="yes"/>
      <point x="30" y="375"/>
      <point x="142" y="470"/>
      <point x="296" y="470" type="curve" smooth="yes"/>
      <point x="365" y="470"/>
      <point x="412" y="453"/>
      <point x="444" y="430" type="curve"/>
      <point x="444" y="282" type="line"/>
      <point x="417" y="326"/>
      <point x="357" y="350"/>
      <point x="308" y="350" type="curve" smooth="yes"/>
      <point x="240" y="350"/>
      <point x="185" y="298"/>
    </contour>
    <contour>
      <point x="183" y="618" type="curve" smooth="yes"/>
      <point x="183" y="666"/>
      <point x="222" y="700"/>
      <point x="271" y="700" type="curve" smooth="yes"/>
      <point x="320" y="700"/>
      <point x="359" y="666"/>
      <point x="359" y="618" type="curve" smooth="yes"/>
      <point x="359" y="570"/>
      <point x="320" y="537"/>
      <point x="271" y="537" type="curve" smooth="yes"/>
      <point x="222" y="537"/>
      <point x="183" y="570"/>
    </contour>
  </outline>
</glyph>
<glyph name="Ccaron" format="1">
  <advance width="700"/>
  <unicode hex="010C"/>
  <outline>
    <contour>
      <point x="218" y="350" type="curve" smooth="yes"/>
      <point x="218" y="221"/>
      <point x="315" y="144"/>
      <point x="428" y="144" type="curve" smooth="yes"/>
      <point x="527" y="144"/>
      <point x="591" y="187"/>
      <point x="637" y="237" type="curve"/>
      <point x="637" y="55" type="line"/>
      <point x="580" y="12"/>
      <point x="520" y="-16"/>
      <point x="418" y="-16" type="curve" smooth="yes"/>
      <point x="193" y="-16"/>
      <point x="34" y="132"/>
      <point x="34" y="350" type="curve" smooth="yes"/>
      <point x="34" y="568"/>
      <point x="193" y="716"/>
      <point x="418" y="716" type="curve" smooth="yes"/>
      <point x="520" y="716"/>
      <point x="580" y="688"/>
      <point x="637" y="645" type="curve"/>
      <point x="637" y="463" type="line"/>
      <point x="591" y="513"/>
      <point x="527" y="556"/>
      <point x="428" y="556" type="curve" smooth="yes"/>
      <point x="315" y="556"/>
      <point x="218" y="479"/>
    </contour>
    <contour>
      <point x="418" y="902" type="line"/>
      <point x="509" y="987" type="line"/>
      <point x="615" y="916" type="line"/>
      <point x="418" y="776" type="line"/>
      <point x="221" y="916" type="line"/>
      <point x="326" y="987" type="line"/>
    </contour>
  </outline>
</glyph>
<glyph name="ccaron" format="1">
  <advance width="493"/>
  <unicode hex="010D"/>
  <outline>
    <contour>
      <point x="185" y="230" type="curve" smooth="yes"/>
      <point x="185" y="156"/>
      <point x="240" y="110"/>
      <point x="308" y="110" type="curve" smooth="yes"/>
      <point x="363" y="110"/>
      <point x="417" y="135"/>
      <point x="444" y="179" type="curve"/>
      <point x="444" y="32" type="line"/>
      <point x="412" y="6"/>
      <point x="365" y="-10"/>
      <point x="296" y="-10" type="curve" smooth="yes"/>
      <point x="142" y="-10"/>
      <point x="30" y="85"/>
      <point x="30" y="230" type="curve" smooth="yes"/>
      <point x="30" y="375"/>
      <point x="142" y="470"/>
      <point x="296" y="470" type="curve" smooth="yes"/>
      <point x="365" y="470"/>
      <point x="412" y="453"/>
      <point x="444" y="430" type="curve"/>
      <point x="444" y="282" type="line"/>
      <point x="417" y="326"/>
      <point x="357" y="350"/>
      <point x="308" y="350" type="curve" smooth="yes"/>
      <point x="240" y="350"/>
      <point x="185" y="298"/>
    </contour>
    <contour>
      <point x="265" y="656" type="line"/>
      <point x="356" y="742" type="line"/>
      <point x="462" y="671" type="line"/>
      <point x="265" y="531" type="line"/>
      <point x="68" y="671" type="line"/>
      <point x="174" y="742" type="line"/>
    </contour>
  </outline>
</glyph>
<glyph name="Dcaron" format="2">
  <advance width="732"/>
  <unicode hex="010E"/>
  <outline>
    <contour>
      <point x="74" y="700" type="line"/>
      <point x="248" y="700" type="line"/>
      <point x="248" y="0" type="line"/>
      <point x="74" y="0" type="line"/>
    </contour>
    <contour>
      <point x="324" y="0" type="curve" smooth="yes"/>
      <point x="186" y="0" type="line"/>
      <point x="186" y="150" type="line"/>
      <point x="318" y="150" type="line" smooth="yes"/>
      <point x="426" y="150"/>
      <point x="524" y="200"/>
      <point x="524" y="350" type="curve" smooth="yes"/>
      <point x="524" y="500"/>
      <point x="426" y="550"/>
      <point x="318" y="550" type="curve" smooth="yes"/>
      <point x="186" y="550" type="line"/>
      <point x="186" y="700" type="line"/>
      <point x="324" y="700" type="line" smooth="yes"/>
      <point x="552" y="700"/>
      <point x="699" y="565"/>
      <point x="699" y="350" type="curve" smooth="yes"/>
      <point x="699" y="135"/>
      <point x="552" y="0"/>
    </contour>
    <contour>
      <point x="374" y="901" type="line"/>
      <point x="466" y="987" type="line"/>
      <point x="572" y="916" type="line"/>
      <point x="374" y="776" type="line"/>
      <point x="178" y="916" type="line"/>
      <point x="284" y="987" type="line"/>
    </contour>
  </outline>
</glyph>
<glyph name="dcaron" format="2">
  <advance width="616"/>
  <unicode hex="010F"/>
  <outline>
    <contour>
      <point x="408" y="780" type="line"/>
      <point x="559" y="780" type="line"/>
      <point x="559" y="0" type="line"/>
      <point x="408" y="0" type="line"/>
    </contour>
    <contour>
      <point x="32" y="230" type="curve" smooth="yes"/>
      <point x="32" y="385"/>
      <point x="138" y="470"/>
      <point x="250" y="470" type="curve" smooth="yes"/>
      <point x="365" y="470"/>
      <point x="450" y="379"/>
      <point x="450" y="230" type="curve" smooth="yes"/>
      <point x="450" y="81"/>
      <point x="365" y="-10"/>
      <point x="250" y="-10" type="curve" smooth="yes"/>
      <point x="138" y="-10"/>
      <point x="32" y="75"/>
    </contour>
    <contour>
      <point x="190" y="230" type="curve" smooth="yes"/>
      <point x="190" y="158"/>
      <point x="240" y="111"/>
      <point x="300" y="111" type="curve" smooth="yes"/>
      <point x="352" y="111"/>
      <point x="408" y="155"/>
      <point x="408" y="230" type="curve" smooth="yes"/>
      <point x="408" y="305"/>
      <point x="352" y="349"/>
      <point x="300" y="349" type="curve" smooth="yes"/>
      <point x="240" y="349"/>
      <point x="190" y="302"/>
    </contour>
    <contour>
      <point x="677" y="780" type="line"/>
      <point x="828" y="748" type="line"/>
      <point x="702" y="498" type="line"/>
      <point x="589" y="521" type="line"/>
    </contour>
  </outline>
</glyph>
<glyph name="emacron" format="2">
  <advance width="572"/>
  <unicode hex="0113"/>
  <outline>
    <contour>
      <point x="117" y="198" type="line"/>
      <point x="117" y="282" type="line"/>
      <point x="377" y="282" type="line"/>
      <point x="370" y="337"/>
      <point x="342" y="369"/>
      <point x="288" y="369" type="curve" smooth="yes"/>
      <point x="226" y="369"/>
      <point x="186" y="328"/>
      <point x="186" y="254" type="curve"/>
      <point x="184" y="230" type="line"/>
      <point x="184" y="136"/>
      <point x="231" y="99"/>
      <point x="290" y="99" type="curve" smooth="yes"/>
      <point x="344" y="99"/>
      <point x="384" y="120"/>
      <point x="406" y="158" type="curve"/>
      <point x="540" y="126" type="line"/>
      <point x="494" y="44"/>
      <point x="425" y="-10"/>
      <point x="293" y="-10" type="curve" smooth="yes"/>
      <point x="125" y="-10"/>
      <point x="32" y="91"/>
      <point x="32" y="230" type="curve" smooth="yes"/>
      <point x="32" y="247"/>
      <point x="33" y="263"/>
      <point x="36" y="279" type="curve" smooth="yes"/>
      <point x="55" y="392"/>
      <point x="140" y="470"/>
      <point x="290" y="470" type="curve" smooth="yes"/>
      <point x="451" y="470"/>
      <point x="539" y="382"/>
      <point x="539" y="237" type="curve" smooth="yes"/>
      <point x="539" y="229"/>
      <point x="540" y="214"/>
      <point x="538" y="198" type="curve"/>
    </contour>
    <contour>
      <point x="105" y="530" type="line"/>
      <point x="105" y="661" type="line"/>
      <point x="476" y="661" type="line"/>
      <point x="476" y="530" type="line"/>
    </contour>
  </outline>
</glyph>
<glyph name="Edotaccent" format="2">
  <advance width="602"/>
  <unicode hex="0116"/>
  <outline>
    <contour>
      <point x="186" y="0" type="line"/>
      <point x="186" y="139" type="line"/>
      <point x="539" y="139" type="line"/>
      <point x="539" y="0" type="line"/>
    </contour>
    <contour>
      <point x="186" y="561" type="line"/>
      <point x="186" y="700" type="line"/>
      <point x="539" y="700" type="line"/>
      <point x="539" y="561" type="line"/>
    </contour>
    <contour>
      <point x="186" y="300" type="line"/>
      <point x="186" y="436" type="line"/>
      <point x="519" y="436" type="line"/>
      <point x="519" y="300" type="line"/>
    </contour>
    <contour>
      <point x="74" y="700" type="line"/>
      <point x="236" y="700" type="line"/>
      <point x="236" y="0" type="line"/>
      <point x="74" y="0" type="line"/>
    </contour>
    <contour>
      <point x="218" y="858" type="curve" smooth="yes"/>
      <point x="218" y="906"/>
      <point x="258" y="940"/>
      <point x="306" y="940" type="curve" smooth="yes"/>
      <point x="354" y="940"/>
      <point x="394" y="906"/>
      <point x="394" y="858" type="curve" smooth="yes"/>
      <point x="394" y="810"/>
      <point x="354" y="776"/>
      <point x="306" y="776" type="curve" smooth="yes"/>
      <point x="258" y="776"/>
      <point x="218" y="810"/>
    </contour>
  </outline>
</glyph>
<glyph name="Eogonek" format="1">
  <advance width="602"/>
  <unicode hex="0118"/>
  <outline>
    <contour>
      <point x="186" y="0" type="line"/>
      <point x="186" y="139" type="line"/>
      <point x="539" y="139" type="line"/>
      <point x="539" y="0" type="line"/>
    </contour>
    <contour>
      <point x="186" y="561" type="line"/>
      <point x="186" y="700" type="line"/>
      <point x="539" y="700" type="line"/>
      <point x="539" y="561" type="line"/>
    </contour>
    <contour>
      <point x="186" y="300" type="line"/>
      <point x="186" y="436" type="line"/>
      <point x="519" y="436" type="line"/>
      <point x="519" y="300" type="line"/>
    </contour>
    <contour>
      <point x="74" y="700" type="line"/>
      <point x="236" y="700" type="line"/>
      <point x="236" y="0" type="line"/>
      <point x="74" y="0" type="line"/>
    </contour>
    <contour>
      <point x="399" y="-111" type="curve"/>
      <point x="432" y="-180" type="line"/>
      <point x="417" y="-200"/>
      <point x="387" y="-220"/>
      <point x="332" y="-220" type="curve" smooth="yes"/>
      <point x="267" y="-220"/>
      <point x="215" y="-185"/>
      <point x="215" y="-120" type="curve" smooth="yes"/>
      <point x="215" y="-55"/>
      <point x="283" y="-11"/>
      <point x="353" y="25" type="curve"/>
      <point x="394" y="0" type="line"/>
      <point x="342" y="-28"/>
      <point x="314" y="-63"/>
      <point x="314" y="-94" type="curve" smooth="yes"/>
      <point x="314" y="-119"/>
      <point x="325" y="-131"/>
      <point x="349" y="-131" type="curve" smooth="yes"/>
      <point x="369" y="-131"/>
      <point x="385" y="-124"/>
    </contour>
  </outline>
</glyph>
<glyph name="Gcircumflex" format="1">
  <advance width="814"/>
  <unicode hex="011C"/>
  <outline>
    <contour>
      <point x="420" y="253" type="line"/>
      <point x="420" y="383" type="line"/>
      <point x="775" y="383" type="line"/>
      <point x="787" y="161"/>
      <point x="656" y="-22"/>
      <point x="417" y="-22" type="curve" smooth="yes"/>
      <point x="194" y="-22"/>
      <point x="34" y="129"/>
      <point x="34" y="350" type="curve" smooth="yes"/>
      <point x="34" y="571"/>
      <point x="200" y="716"/>
      <point x="423" y="716" type="curve" smooth="yes"/>
      <point x="571" y="716"/>
      <point x="673" y="647"/>
      <point x="739" y="550" type="curve"/>
      <point x="589" y="473" type="line"/>
      <point x="557" y="528"/>
      <point x="505" y="569"/>
      <point x="423" y="569" type="curve" smooth="yes"/>
      <point x="306" y="569"/>
      <point x="211" y="488"/>
      <point x="211" y="350" type="curve" smooth="yes"/>
      <point x="211" y="212"/>
      <point x="300" y="125"/>
      <point x="423" y="125" type="curve" smooth="yes"/>
      <point x="526" y="125"/>
      <point x="584" y="179"/>
      <point x="607" y="253" type="curve"/>
    </contour>
    <contour>
      <point x="423" y="862" type="line"/>
      <point x="332" y="776" type="line"/>
      <point x="226" y="847" type="line"/>
      <point x="423" y="987" type="line"/>
      <point x="620" y="847" type="line"/>
      <point x="514" y="776" type="line"/>
    </contour>
  </outline>
</glyph>
<glyph name="gcircumflex" format="1">
  <advance width="610"/>
  <unicode hex="011D"/>
  <outline>
    <contour>
      <point x="42" y="-33" type="curve"/>
      <point x="188" y="-33" type="line"/>
      <point x="193" y="-90"/>
      <point x="234" y="-118"/>
      <point x="293" y="-118" type="curve" smooth="yes"/>
      <point x="357" y="-118"/>
      <point x="408" y="-75"/>
      <point x="408" y="10" type="curve" smooth="yes"/>
      <point x="408" y="460" type="line"/>
      <point x="553" y="460" type="line"/>
      <point x="553" y="10" type="line" smooth="yes"/>
      <point x="553" y="-168"/>
      <point x="439" y="-239"/>
      <point x="299" y="-239" type="curve" smooth="yes"/>
      <point x="127" y="-239"/>
      <point x="53" y="-155"/>
    </contour>
    <contour>
      <point x="32" y="236" type="curve" smooth="yes"/>
      <point x="32" y="391"/>
      <point x="138" y="470"/>
      <point x="251" y="470" type="curve" smooth="yes"/>
      <point x="366" y="470"/>
      <point x="450" y="385"/>
      <point x="450" y="236" type="curve" smooth="yes"/>
      <point x="450" y="87"/>
      <point x="366" y="2"/>
      <point x="251" y="2" type="curve" smooth="yes"/>
      <point x="138" y="2"/>
      <point x="32" y="81"/>
    </contour>
    <contour>
      <point x="190" y="236" type="curve" smooth="yes"/>
      <point x="190" y="164"/>
      <point x="241" y="124"/>
      <point x="301" y="124" type="curve" smooth="yes"/>
      <point x="352" y="124"/>
      <point x="408" y="161"/>
      <point x="408" y="236" type="curve" smooth="yes"/>
      <point x="408" y="311"/>
      <point x="352" y="348"/>
      <point x="301" y="348" type="curve" smooth="yes"/>
      <point x="241" y="348"/>
      <point x="190" y="308"/>
    </contour>
    <contour>
      <point x="319" y="616" type="line"/>
      <point x="227" y="531" type="line"/>
      <point x="122" y="602" type="line"/>
      <point x="319" y="742" type="line"/>
      <point x="516" y="602" type="line"/>
      <point x="410" y="531" type="line"/>
    </contour>
  </outline>
</glyph>
<glyph name="Gbreve" format="1">
  <advance width="814"/>
  <unicode hex="011E"/>
  <outline>
    <contour>
      <point x="420" y="253" type="line"/>
      <point x="420" y="383" type="line"/>
      <point x="775" y="383" type="line"/>
      <point x="787" y="161"/>
      <point x="656" y="-22"/>
      <point x="417" y="-22" type="curve" smooth="yes"/>
      <point x="194" y="-22"/>
      <point x="34" y="129"/>
      <point x="34" y="350" type="curve" smooth="yes"/>
      <point x="34" y="571"/>
      <point x="200" y="716"/>
      <point x="423" y="716" type="curve" smooth="yes"/>
      <point x="571" y="716"/>
      <point x="673" y="647"/>
      <point x="739" y="550" type="curve"/>
      <point x="589" y="473" type="line"/>
      <point x="557" y="528"/>
      <point x="505" y="569"/>
      <point x="423" y="569" type="curve" smooth="yes"/>
      <point x="306" y="569"/>
      <point x="211" y="488"/>
      <point x="211" y="350" type="curve" smooth="yes"/>
      <point x="211" y="212"/>
      <point x="300" y="125"/>
      <point x="423" y="125" type="curve" smooth="yes"/>
      <point x="526" y="125"/>
      <point x="584" y="179"/>
      <point x="607" y="253" type="curve"/>
    </contour>
    <contour>
      <point x="259" y="922" type="curve"/>
      <point x="358" y="922" type="line"/>
      <point x="358" y="887"/>
      <point x="384" y="863"/>
      <point x="423" y="863" type="curve" smooth="yes"/>
      <point x="462" y="863"/>
      <point x="488" y="887"/>
      <point x="488" y="922" type="curve"/>
      <point x="587" y="922" type="line"/>
      <point x="587" y="841"/>
      <point x="528" y="776"/>
      <point x="423" y="776" type="curve" smooth="yes"/>
      <point x="318" y="776"/>
      <point x="259" y="841"/>
    </contour>
  </outline>
</glyph>
<glyph name="gbreve" format="1">
  <advance width="610"/>
  <unicode hex="011F"/>
  <outline>
    <contour>
      <point x="42" y="-33" type="curve"/>
      <point x="188" y="-33" type="line"/>
      <point x="193" y="-90"/>
      <point x="234" y="-118"/>
      <point x="293" y="-118" type="curve" smooth="yes"/>
      <point x="357" y="-118"/>
      <point x="408" y="-75"/>
      <point x="408" y="10" type="curve" smooth="yes"/>
      <point x="408" y="460" type="line"/>
      <point x="553" y="460" type="line"/>
      <point x="553" y="10" type="line" smooth="yes"/>
      <point x="553" y="-168"/>
      <point x="439" y="-239"/>
      <point x="299" y="-239" type="curve" smooth="yes"/>
      <point x="127" y="-239"/>
      <point x="53" y="-155"/>
    </contour>
    <contour>
      <point x="32" y="236" type="curve" smooth="yes"/>
      <point x="32" y="391"/>
      <point x="138" y="470"/>
      <point x="251" y="470" type="curve" smooth="yes"/>
      <point x="366" y="470"/>
      <point x="450" y="385"/>
      <point x="450" y="236" type="curve" smooth="yes"/>
      <point x="450" y="87"/>
      <point x="366" y="2"/>
      <point x="251" y="2" type="curve" smooth="yes"/>
      <point x="138" y="2"/>
      <point x="32" y="81"/>
    </contour>
    <contour>
      <point x="190" y="236" type="curve" smooth="yes"/>
      <point x="190" y="164"/>
      <point x="241" y="124"/>
      <point x="301" y="124" type="curve" smooth="yes"/>
      <point x="352" y="124"/>
      <point x="408" y="161"/>
      <point x="408" y="236" type="curve" smooth="yes"/>
      <point x="408" y="311"/>
      <point x="352" y="348"/>
      <point x="301" y="348" type="curve" smooth="yes"/>
      <point x="241" y="348"/>
      <point x="190" y="308"/>
    </contour>
    <contour>
      <point x="155" y="677" type="curve"/>
      <point x="254" y="677" type="line"/>
      <point x="254" y="642"/>
      <point x="280" y="617"/>
      <point x="319" y="617" type="curve" smooth="yes"/>
      <point x="358" y="617"/>
      <point x="384" y="642"/>
      <point x="384" y="677" type="curve"/>
      <point x="483" y="677" type="line"/>
      <point x="483" y="596"/>
      <point x="424" y="531"/>
      <point x="319" y="531" type="curve" smooth="yes"/>
      <point x="214" y="531"/>
      <point x="155" y="596"/>
    </contour>
  </outline>
</glyph>
<glyph name="gdotaccent" format="1">
  <advance width="610"/>
  <unicode hex="0121"/>
  <outline>
    <contour>
      <point x="42" y="-33" type="curve"/>
      <point x="188" y="-33" type="line"/>
      <point x="193" y="-90"/>
      <point x="234" y="-118"/>
      <point x="293" y="-118" type="curve" smooth="yes"/>
      <point x="357" y="-118"/>
      <point x="408" y="-75"/>
      <point x="408" y="10" type="curve" smooth="yes"/>
      <point x="408" y="460" type="line"/>
      <point x="553" y="460" type="line"/>
      <point x="553" y="10" type="line" smooth="yes"/>
      <point x="553" y="-168"/>
      <point x="439" y="-239"/>
      <point x="299" y="-239" type="curve" smooth="yes"/>
      <point x="127" y="-239"/>
      <point x="53" y="-155"/>
    </contour>
    <contour>
      <point x="32" y="236" type="curve" smooth="yes"/>
      <point x="32" y="391"/>
      <point x="138" y="470"/>
      <point x="251" y="470" type="curve" smooth="yes"/>
      <point x="366" y="470"/>
      <point x="450" y="385"/>
      <point x="450" y="236" type="curve" smooth="yes"/>
      <point x="450" y="87"/>
      <point x="366" y="2"/>
      <point x="251" y="2" type="curve" smooth="yes"/>
      <point x="138" y="2"/>
      <point x="32" y="81"/>
    </contour>
    <contour>
      <point x="190" y="236" type="curve" smooth="yes"/>
      <point x="190" y="164"/>
      <point x="241" y="124"/>
      <point x="301" y="124" type="curve" smooth="yes"/>
      <point x="352" y="124"/>
      <point x="408" y="161"/>
      <point x="408" y="236" type="curve" smooth="yes"/>
      <point x="408" y="311"/>
      <point x="352" y="348"/>
      <point x="301" y="348" type="curve" smooth="yes"/>
      <point x="241" y="348"/>
      <point x="190" y="308"/>
    </contour>
    <contour>
      <point x="220" y="627" type="curve" smooth="yes"/>
      <point x="220" y="675"/>
      <point x="259" y="709"/>
      <point x="308" y="709" type="curve" smooth="yes"/>
      <point x="357" y="709"/>
      <point x="396" y="675"/>
      <point x="396" y="627" type="curve" smooth="yes"/>
      <point x="396" y="579"/>
      <point x="357" y="546"/>
      <point x="308" y="546" type="curve" smooth="yes"/>
      <point x="259" y="546"/>
      <point x="220" y="579"/>
    </contour>
  </outline>
</glyph>
<glyph name="uni0122" format="1">
  <advance width="814"/>
  <unicode hex="0122"/>
  <outline>
    <contour>
      <point x="420" y="253" type="line"/>
      <point x="420" y="383" type="line"/>
      <point x="775" y="383" type="line"/>
      <point x="787" y="161"/>
      <point x="656" y="-22"/>
      <point x="417" y="-22" type="curve" smooth="yes"/>
      <point x="194" y="-22"/>
      <point x="34" y="129"/>
      <point x="34" y="350" type="curve" smooth="yes"/>
      <point x="34" y="571"/>
      <point x="200" y="716"/>
      <point x="423" y="716" type="curve" smooth="yes"/>
      <point x="571" y="716"/>
      <point x="673" y="647"/>
      <point x="739" y="550" type="curve"/>
      <point x="589" y="473" type="line"/>
      <point x="557" y="528"/>
      <point x="505" y="569"/>
      <point x="423" y="569" type="curve" smooth="yes"/>
      <point x="306" y="569"/>
      <point x="211" y="488"/>
      <point x="211" y="350" type="curve" smooth="yes"/>
      <point x="211" y="212"/>
      <point x="300" y="125"/>
      <point x="423" y="125" type="curve" smooth="yes"/>
      <point x="526" y="125"/>
      <point x="584" y="179"/>
      <point x="607" y="253" type="curve"/>
    </contour>
    <contour>
      <point x="354" y="-82" type="line"/>
      <point x="505" y="-115" type="line"/>
      <point x="380" y="-365" type="line"/>
      <point x="266" y="-341" type="line"/>
    </contour>
  </outline>
</glyph>
<glyph name="itilde" format="1">
  <advance width="276"/>
  <unicode hex="0129"/>
  <outline>
    <contour>
      <point x="65" y="460" type="line"/>
      <point x="211" y="460" type="line"/>
      <point x="211" y="0" type="line"/>
      <point x="65" y="0" type="line"/>
    </contour>
    <contour>
      <point x="-58" y="596" type="line"/>
      <point x="-48" y="645"/>
      <point x="-3" y="691"/>
      <point x="61" y="691" type="curve" smooth="yes"/>
      <point x="127" y="691"/>
      <point x="141" y="639"/>
      <point x="197" y="639" type="curve" smooth="yes"/>
      <point x="222" y="639"/>
      <point x="243" y="660"/>
      <point x="263" y="692" type="curve"/>
      <point x="334" y="618" type="line"/>
      <point x="318" y="581"/>
      <point x="262" y="532"/>
      <point x="200" y="532" type="curve" smooth="yes"/>
      <point x="145" y="532"/>
      <point x="110" y="585"/>
      <point x="61" y="585" type="curve" smooth="yes"/>
      <point x="23" y="585"/>
      <point x="13" y="549"/>
      <point x="13" y="534" type="curve"/>
    </contour>
  </outline>
</glyph>
<glyph name="Imacron" format="2">
  <advance width="318"/>
  <unicode hex="012A"/>
  <outline>
    <contour>
      <point x="74" y="700" type="line"/>
      <point x="246" y="700" type="line"/>
      <point x="246" y="0" type="line"/>
      <point x="74" y="0" type="line"/>
    </contour>
    <contour>
      <point x="-26" y="776" type="line"/>
      <point x="-26" y="907" type="line"/>
      <point x="346" y="907" type="line"/>
      <point x="346" y="776" type="line"/>
    </contour>
  </outline>
</glyph>
<glyph name="imacron" format="2">
  <advance width="275"/>
  <unicode hex="012B"/>
  <outline>
    <contour>
      <point x="64" y="460" type="line"/>
      <point x="211" y="460" type="line"/>
      <point x="211" y="0" type="line"/>
      <point x="64" y="0" type="line"/>
    </contour>
    <contour>
      <point x="-48" y="530" type="line"/>
      <point x="-48" y="661" type="line"/>
      <point x="324" y="661" type="line"/>
      <point x="324" y="530" type="line"/>
    </contour>
  </outline>
</glyph>
<glyph name="Ibreve" format="1">
  <advance width="319"/>
  <unicode hex="012C"/>
  <outline>
    <contour>
      <point x="74" y="700" type="line"/>
      <point x="246" y="700" type="line"/>
      <point x="246" y="0" type="line"/>
      <point x="74" y="0" type="line"/>
    </contour>
    <contour>
      <point x="-5" y="922" type="curve"/>
      <point x="94" y="922" type="line"/>
      <point x="94" y="887"/>
      <point x="121" y="863"/>
      <point x="160" y="863" type="curve" smooth="yes"/>
      <point x="199" y="863"/>
      <point x="225" y="887"/>
      <point x="225" y="922" type="curve"/>
      <point x="324" y="922" type="line"/>
      <point x="324" y="841"/>
      <point x="265" y="776"/>
      <point x="160" y="776" type="curve" smooth="yes"/>
      <point x="55" y="776"/>
      <point x="-5" y="841"/>
    </contour>
  </outline>
</glyph>
<glyph name="ibreve" format="2">
  <advance width="275"/>
  <unicode hex="012D"/>
  <outline>
    <contour>
      <point x="64" y="460" type="line"/>
      <point x="211" y="460" type="line"/>
      <point x="211" y="0" type="line"/>
      <point x="64" y="0" type="line"/>
    </contour>
    <contour>
      <point x="-26" y="677" type="curve"/>
      <point x="72" y="677" type="line"/>
      <point x="72" y="642"/>
      <point x="99" y="618"/>
      <point x="138" y="618" type="curve" smooth="yes"/>
      <point x="177" y="618"/>
      <point x="202" y="642"/>
      <point x="202" y="677" type="curve"/>
      <point x="302" y="677" type="line"/>
      <point x="302" y="595"/>
      <point x="243" y="530"/>
      <point x="138" y="530" type="curve" smooth="yes"/>
      <point x="33" y="530"/>
      <point x="-26" y="595"/>
    </contour>
  </outline>
</glyph>
<glyph name="Iogonek" format="1">
  <advance width="319"/>
  <unicode hex="012E"/>
  <outline>
    <contour>
      <point x="74" y="700" type="line"/>
      <point x="246" y="700" type="line"/>
      <point x="246" y="0" type="line"/>
      <point x="74" y="0" type="line"/>
    </contour>
    <contour>
      <point x="225" y="-110" type="curve"/>
      <point x="258" y="-178" type="line"/>
      <point x="243" y="-198"/>
      <point x="213" y="-218"/>
      <point x="158" y="-218" type="curve" smooth="yes"/>
      <point x="93" y="-218"/>
      <point x="40" y="-183"/>
      <point x="40" y="-118" type="curve" smooth="yes"/>
      <point x="40" y="-53"/>
      <point x="109" y="-9"/>
      <point x="179" y="27" type="curve"/>
      <point x="220" y="2" type="line"/>
      <point x="168" y="-26"/>
      <point x="139" y="-61"/>
      <point x="139" y="-92" type="curve" smooth="yes"/>
      <point x="139" y="-117"/>
      <point x="151" y="-130"/>
      <point x="175" y="-130" type="curve" smooth="yes"/>
      <point x="195" y="-130"/>
      <point x="211" y="-123"/>
    </contour>
  </outline>
</glyph>
<glyph name="iogonek" format="1">
  <advance width="276"/>
  <unicode hex="012F"/>
  <outline>
    <contour>
      <point x="50" y="632" type="curve" smooth="yes"/>
      <point x="50" y="680"/>
      <point x="89" y="714"/>
      <point x="138" y="714" type="curve" smooth="yes"/>
      <point x="187" y="714"/>
      <point x="226" y="680"/>
      <point x="226" y="632" type="curve" smooth="yes"/>
      <point x="226" y="584"/>
      <point x="187" y="550"/>
      <point x="138" y="550" type="curve" smooth="yes"/>
      <point x="89" y="550"/>
      <point x="50" y="584"/>
    </contour>
    <contour>
      <point x="64" y="460" type="line"/>
      <point x="211" y="460" type="line"/>
      <point x="211" y="0" type="line"/>
      <point x="64" y="0" type="line"/>
    </contour>
    <contour>
      <point x="196" y="-111" type="curve"/>
      <point x="229" y="-180" type="line"/>
      <point x="214" y="-200"/>
      <point x="184" y="-220"/>
      <point x="129" y="-220" type="curve" smooth="yes"/>
      <point x="64" y="-220"/>
      <point x="12" y="-185"/>
      <point x="12" y="-120" type="curve" smooth="yes"/>
      <point x="12" y="-55"/>
      <point x="80" y="-11"/>
      <point x="150" y="25" type="curve"/>
      <point x="191" y="0" type="line"/>
      <point x="139" y="-28"/>
      <point x="110" y="-63"/>
      <point x="110" y="-94" type="curve" smooth="yes"/>
      <point x="110" y="-119"/>
      <point x="122" y="-131"/>
      <point x="146" y="-131" type="curve" smooth="yes"/>
      <point x="166" y="-131"/>
      <point x="182" y="-124"/>
    </contour>
  </outline>
</glyph>
<glyph name="Idotaccent" format="2">
  <advance width="318"/>
  <unicode hex="0130"/>
  <outline>
    <contour>
      <point x="74" y="700" type="line"/>
      <point x="246" y="700" type="line"/>
      <point x="246" y="0" type="line"/>
      <point x="74" y="0" type="line"/>
    </contour>
    <contour>
      <point x="72" y="858" type="curve" smooth="yes"/>
      <point x="72" y="906"/>
      <point x="111" y="940"/>
      <point x="159" y="940" type="curve" smooth="yes"/>
      <point x="207" y="940"/>
      <point x="247" y="906"/>
      <point x="247" y="858" type="curve" smooth="yes"/>
      <point x="247" y="810"/>
      <point x="207" y="776"/>
      <point x="159" y="776" type="curve" smooth="yes"/>
      <point x="111" y="776"/>
      <point x="72" y="810"/>
    </contour>
  </outline>
</glyph>
<glyph name="dotlessi" format="1">
  <advance width="276"/>
  <unicode hex="0131"/>
  <outline>
    <contour>
      <point x="65" y="460" type="line"/>
      <point x="211" y="460" type="line"/>
      <point x="211" y="0" type="line"/>
      <point x="65" y="0" type="line"/>
    </contour>
  </outline>
</glyph>
<glyph name="IJ" format="2">
  <advance width="623"/>
  <unicode hex="0132"/>
  <outline>
    <contour>
      <point x="222" y="-64" type="line"/>
      <point x="242" y="-82"/>
      <point x="272" y="-97"/>
      <point x="302" y="-97" type="curve" smooth="yes"/>
      <point x="332" y="-97"/>
      <point x="367" y="-76"/>
      <point x="367" y="-16" type="curve" smooth="yes"/>
      <point x="367" y="700" type="line"/>
      <point x="549" y="700" type="line"/>
      <point x="549" y="-54" type="line" smooth="yes"/>
      <point x="549" y="-188"/>
      <point x="444" y="-238"/>
      <point x="319" y="-238" type="curve" smooth="yes"/>
      <point x="241" y="-238"/>
      <point x="170" y="-208"/>
      <point x="130" y="-182" type="curve"/>
    </contour>
    <contour>
      <point x="74" y="700" type="line"/>
      <point x="246" y="700" type="line"/>
      <point x="246" y="0" type="line"/>
      <point x="74" y="0" type="line"/>
    </contour>
  </outline>
</glyph>
<glyph name="ij" format="1">
  <advance width="544"/>
  <unicode hex="0133"/>
  <outline>
    <contour>
      <point x="319" y="633" type="curve" smooth="yes"/>
      <point x="319" y="681"/>
      <point x="358" y="714"/>
      <point x="407" y="714" type="curve" smooth="yes"/>
      <point x="456" y="714"/>
      <point x="495" y="681"/>
      <point x="495" y="633" type="curve" smooth="yes"/>
      <point x="495" y="585"/>
      <point x="456" y="551"/>
      <point x="407" y="551" type="curve" smooth="yes"/>
      <point x="358" y="551"/>
      <point x="319" y="585"/>
    </contour>
    <contour>
      <point x="239" y="-77" type="line"/>
      <point x="252" y="-95"/>
      <point x="268" y="-103"/>
      <point x="286" y="-103" type="curve" smooth="yes"/>
      <point x="316" y="-103"/>
      <point x="334" y="-81"/>
      <point x="334" y="-34" type="curve" smooth="yes"/>
      <point x="334" y="460" type="line"/>
      <point x="479" y="460" type="line"/>
      <point x="479" y="-72" type="line" smooth="yes"/>
      <point x="479" y="-175"/>
      <point x="421" y="-239"/>
      <point x="306" y="-239" type="curve" smooth="yes"/>
      <point x="238" y="-239"/>
      <point x="200" y="-208"/>
      <point x="179" y="-188" type="curve"/>
    </contour>
    <contour>
      <point x="50" y="633" type="curve" smooth="yes"/>
      <point x="50" y="681"/>
      <point x="89" y="714"/>
      <point x="138" y="714" type="curve" smooth="yes"/>
      <point x="187" y="714"/>
      <point x="226" y="681"/>
      <point x="226" y="633" type="curve" smooth="yes"/>
      <point x="226" y="585"/>
      <point x="187" y="551"/>
      <point x="138" y="551" type="curve" smooth="yes"/>
      <point x="89" y="551"/>
      <point x="50" y="585"/>
    </contour>
    <contour>
      <point x="65" y="460" type="line"/>
      <point x="211" y="460" type="line"/>
      <point x="211" y="0" type="line"/>
      <point x="65" y="0" type="line"/>
    </contour>
  </outline>
</glyph>
<glyph name="Jcircumflex" format="1">
  <advance width="329"/>
  <unicode hex="0134"/>
  <outline>
    <contour>
      <point x="-72" y="-64" type="line"/>
      <point x="-52" y="-82"/>
      <point x="-21" y="-97"/>
      <point x="9" y="-97" type="curve" smooth="yes"/>
      <point x="39" y="-97"/>
      <point x="74" y="-76"/>
      <point x="74" y="-16" type="curve" smooth="yes"/>
      <point x="74" y="700" type="line"/>
      <point x="256" y="700" type="line"/>
      <point x="256" y="-54" type="line" smooth="yes"/>
      <point x="256" y="-188"/>
      <point x="151" y="-239"/>
      <point x="26" y="-239" type="curve" smooth="yes"/>
      <point x="-52" y="-239"/>
      <point x="-124" y="-208"/>
      <point x="-164" y="-182" type="curve"/>
    </contour>
    <contour>
      <point x="165" y="862" type="line"/>
      <point x="73" y="776" type="line"/>
      <point x="-33" y="847" type="line"/>
      <point x="165" y="987" type="line"/>
      <point x="362" y="847" type="line"/>
      <point x="256" y="776" type="line"/>
    </contour>
  </outline>
</glyph>
<glyph name="jcircumflex" format="1">
  <advance width="271"/>
  <unicode hex="0135"/>
  <outline>
    <contour>
      <point x="-33" y="-77" type="line"/>
      <point x="-20" y="-95"/>
      <point x="-5" y="-103"/>
      <point x="13" y="-103" type="curve" smooth="yes"/>
      <point x="43" y="-103"/>
      <point x="61" y="-81"/>
      <point x="61" y="-34" type="curve" smooth="yes"/>
      <point x="61" y="460" type="line"/>
      <point x="206" y="460" type="line"/>
      <point x="206" y="-72" type="line" smooth="yes"/>
      <point x="206" y="-175"/>
      <point x="148" y="-239"/>
      <point x="33" y="-239" type="curve" smooth="yes"/>
      <point x="-35" y="-239"/>
      <point x="-73" y="-208"/>
      <point x="-94" y="-188" type="curve"/>
    </contour>
    <contour>
      <point x="134" y="616" type="line"/>
      <point x="42" y="531" type="line"/>
      <point x="-64" y="602" type="line"/>
      <point x="134" y="742" type="line"/>
      <point x="331" y="602" type="line"/>
      <point x="225" y="531" type="line"/>
    </contour>
  </outline>
</glyph>
<glyph name="uni0137" format="1">
  <advance width="576"/>
  <unicode hex="0137"/>
  <outline>
    <contour>
      <point x="58" y="780" type="line"/>
      <point x="203" y="780" type="line"/>
      <point x="203" y="0" type="line"/>
      <point x="58" y="0" type="line"/>
    </contour>
    <contour>
      <point x="370" y="460" type="line"/>
      <point x="550" y="460" type="line"/>
      <point x="353" y="270" type="line"/>
      <point x="570" y="0" type="line"/>
      <point x="393" y="0" type="line"/>
      <point x="173" y="270" type="line"/>
    </contour>
    <contour>
      <point x="257" y="-60" type="line"/>
      <point x="409" y="-92" type="line"/>
      <point x="283" y="-342" type="line"/>
      <point x="169" y="-319" type="line"/>
    </contour>
  </outline>
</glyph>
<glyph name="Lacute" format="1">
  <advance width="527"/>
  <unicode hex="0139"/>
  <outline>
    <contour>
      <point x="74" y="700" type="line"/>
      <point x="242" y="700" type="line"/>
      <point x="242" y="145" type="line"/>
      <point x="524" y="145" type="line"/>
      <point x="524" y="0" type="line"/>
      <point x="74" y="0" type="line"/>
    </contour>
    <contour>
      <point x="460" y="926" type="line"/>
      <point x="280" y="776" type="line"/>
      <point x="194" y="819" type="line"/>
      <point x="344" y="979" type="line"/>
    </contour>
  </outline>
</glyph>
<glyph name="uni013B" format="2">
  <advance width="527"/>
  <unicode hex="013B"/>
  <outline>
    <contour>
      <point x="74" y="700" type="line"/>
      <point x="242" y="700" type="line"/>
      <point x="242" y="145" type="line"/>
      <point x="524" y="145" type="line"/>
      <point x="524" y="0" type="line"/>
      <point x="74" y="0" type="line"/>
    </contour>
    <contour>
      <point x="267" y="-60" type="line"/>
      <point x="418" y="-92" type="line"/>
      <point x="293" y="-342" type="line"/>
      <point x="179" y="-319" type="line"/>
    </contour>
  </outline>
</glyph>
<glyph name="uni013C" format="1">
  <advance width="270"/>
  <unicode hex="013C"/>
  <outline>
    <contour>
      <point x="60" y="780" type="line"/>
      <point x="211" y="780" type="line"/>
      <point x="211" y="0" type="line"/>
      <point x="60" y="0" type="line"/>
    </contour>
    <contour>
      <point x="104" y="-60" type="line"/>
      <point x="255" y="-92" type="line"/>
      <point x="129" y="-342" type="line"/>
      <point x="16" y="-319" type="line"/>
    </contour>
  </outline>
</glyph>
<glyph name="Lcaron" format="1">
  <advance width="527"/>
  <unicode hex="013D"/>
  <outline>
    <contour>
      <point x="74" y="700" type="line"/>
      <point x="242" y="700" type="line"/>
      <point x="242" y="145" type="line"/>
      <point x="524" y="145" type="line"/>
      <point x="524" y="0" type="line"/>
      <point x="74" y="0" type="line"/>
    </contour>
    <contour>
      <point x="412" y="716" type="line"/>
      <point x="563" y="684" type="line"/>
      <point x="438" y="434" type="line"/>
      <point x="324" y="457" type="line"/>
    </contour>
  </outline>
</glyph>
<glyph name="ldot" format="1">
  <advance width="476"/>
  <unicode hex="0140"/>
  <outline>
    <contour>
      <point x="60" y="780" type="line"/>
      <point x="211" y="780" type="line"/>
      <point x="211" y="0" type="line"/>
      <point x="60" y="0" type="line"/>
    </contour>
    <contour>
      <point x="252" y="409" type="curve" smooth="yes"/>
      <point x="252" y="459"/>
      <point x="291" y="501"/>
      <point x="346" y="501" type="curve" smooth="yes"/>
      <point x="401" y="501"/>
      <point x="440" y="459"/>
      <point x="440" y="409" type="curve" smooth="yes"/>
      <point x="440" y="359"/>
      <point x="401" y="317"/>
      <point x="346" y="317" type="curve" smooth="yes"/>
      <point x="291" y="317"/>
      <point x="252" y="359"/>
    </contour>
  </outline>
</glyph>
<glyph name="Lslash" format="1">
  <advance width="533"/>
  <unicode hex="0141"/>
  <outline>
    <contour>
      <point x="5" y="309" type="line"/>
      <point x="-34" y="383" type="line"/>
      <point x="329" y="627" type="line"/>
      <point x="368" y="553" type="line"/>
    </contour>
    <contour>
      <point x="74" y="700" type="line"/>
      <point x="242" y="700" type="line"/>
      <point x="242" y="145" type="line"/>
      <point x="524" y="145" type="line"/>
      <point x="524" y="0" type="line"/>
      <point x="74" y="0" type="line"/>
    </contour>
  </outline>
</glyph>
<glyph name="lslash" format="1">
  <advance width="270"/>
  <unicode hex="0142"/>
  <outline>
    <contour>
      <point x="-7" y="309" type="line"/>
      <point x="-46" y="383" type="line"/>
      <point x="285" y="601" type="line"/>
      <point x="323" y="527" type="line"/>
    </contour>
    <contour>
      <point x="60" y="780" type="line"/>
      <point x="211" y="780" type="line"/>
      <point x="211" y="0" type="line"/>
      <point x="60" y="0" type="line"/>
    </contour>
  </outline>
</glyph>
<glyph name="nacute" format="1">
  <advance width="574"/>
  <unicode hex="0144"/>
  <outline>
    <contour>
      <point x="211" y="460" type="line"/>
      <point x="211" y="0" type="line"/>
      <point x="60" y="0" type="line"/>
      <point x="60" y="460" type="line"/>
    </contour>
    <contour>
      <point x="358" y="280" type="line" smooth="yes"/>
      <point x="358" y="334"/>
      <point x="341" y="365"/>
      <point x="291" y="365" type="curve" smooth="yes"/>
      <point x="243" y="365"/>
      <point x="211" y="334"/>
      <point x="211" y="280" type="curve"/>
      <point x="185" y="274" type="line"/>
      <point x="185" y="383"/>
      <point x="237" y="471"/>
      <point x="351" y="471" type="curve" smooth="yes"/>
      <point x="465" y="471"/>
      <point x="515" y="409"/>
      <point x="515" y="296" type="curve" smooth="yes"/>
      <point x="515" y="0" type="line"/>
      <point x="358" y="0" type="line"/>
    </contour>
    <contour>
      <point x="452" y="681" type="line"/>
      <point x="272" y="531" type="line"/>
      <point x="187" y="573" type="line"/>
      <point x="337" y="733" type="line"/>
    </contour>
  </outline>
</glyph>
<glyph name="uni0146" format="1">
  <advance width="574"/>
  <unicode hex="0146"/>
  <outline>
    <contour>
      <point x="211" y="460" type="line"/>
      <point x="211" y="0" type="line"/>
      <point x="60" y="0" type="line"/>
      <point x="60" y="460" type="line"/>
    </contour>
    <contour>
      <point x="358" y="280" type="line" smooth="yes"/>
      <point x="358" y="334"/>
      <point x="341" y="365"/>
      <point x="291" y="365" type="curve" smooth="yes"/>
      <point x="243" y="365"/>
      <point x="211" y="334"/>
      <point x="211" y="280" type="curve"/>
      <point x="181" y="274" type="line"/>
      <point x="181" y="383"/>
      <point x="237" y="471"/>
      <point x="351" y="471" type="curve" smooth="yes"/>
      <point x="465" y="471"/>
      <point x="515" y="409"/>
      <point x="515" y="296" type="curve" smooth="yes"/>
      <point x="515" y="0" type="line"/>
      <point x="358" y="0" type="line"/>
    </contour>
    <contour>
      <point x="255" y="-60" type="line"/>
      <point x="407" y="-92" type="line"/>
      <point x="281" y="-342" type="line"/>
      <point x="167" y="-319" type="line"/>
    </contour>
  </outline>
</glyph>
<glyph name="ncaron" format="1">
  <advance width="574"/>
  <unicode hex="0148"/>
  <outline>
    <contour>
      <point x="211" y="460" type="line"/>
      <point x="211" y="0" type="line"/>
      <point x="60" y="0" type="line"/>
      <point x="60" y="460" type="line"/>
    </contour>
    <contour>
      <point x="358" y="280" type="line" smooth="yes"/>
      <point x="358" y="334"/>
      <point x="341" y="365"/>
      <point x="291" y="365" type="curve" smooth="yes"/>
      <point x="243" y="365"/>
      <point x="211" y="334"/>
      <point x="211" y="280" type="curve"/>
      <point x="181" y="274" type="line"/>
      <point x="181" y="383"/>
      <point x="237" y="471"/>
      <point x="351" y="471" type="curve" smooth="yes"/>
      <point x="465" y="471"/>
      <point x="515" y="409"/>
      <point x="515" y="296" type="curve" smooth="yes"/>
      <point x="515" y="0" type="line"/>
      <point x="358" y="0" type="line"/>
    </contour>
    <contour>
      <point x="287" y="656" type="line"/>
      <point x="378" y="742" type="line"/>
      <point x="484" y="671" type="line"/>
      <point x="287" y="531" type="line"/>
      <point x="90" y="671" type="line"/>
      <point x="195" y="742" type="line"/>
    </contour>
  </outline>
</glyph>
<glyph name="napostrophe" format="2">
  <advance width="745"/>
  <unicode hex="0149"/>
  <outline>
    <contour>
      <point x="382" y="460" type="line"/>
      <point x="382" y="0" type="line"/>
      <point x="231" y="0" type="line"/>
      <point x="231" y="460" type="line"/>
    </contour>
    <contour>
      <point x="530" y="280" type="line" smooth="yes"/>
      <point x="530" y="334"/>
      <point x="512" y="365"/>
      <point x="462" y="365" type="curve" smooth="yes"/>
      <point x="414" y="365"/>
      <point x="382" y="334"/>
      <point x="382" y="280" type="curve"/>
      <point x="354" y="274" type="line"/>
      <point x="354" y="383"/>
      <point x="408" y="470"/>
      <point x="522" y="470" type="curve" smooth="yes"/>
      <point x="636" y="470"/>
      <point x="688" y="409"/>
      <point x="688" y="296" type="curve" smooth="yes"/>
      <point x="688" y="0" type="line"/>
      <point x="530" y="0" type="line"/>
    </contour>
    <contour>
      <point x="112" y="700" type="line"/>
      <point x="268" y="700" type="line"/>
      <point x="165" y="446" type="line"/>
      <point x="58" y="446" type="line"/>
    </contour>
  </outline>
</glyph>
<glyph name="omacron" format="1">
  <advance width="589"/>
  <unicode hex="014D"/>
  <outline>
    <contour>
      <point x="32" y="230" type="curve" smooth="yes"/>
      <point x="32" y="375"/>
      <point x="145" y="471"/>
      <point x="295" y="471" type="curve" smooth="yes"/>
      <point x="445" y="471"/>
      <point x="558" y="375"/>
      <point x="558" y="230" type="curve" smooth="yes"/>
      <point x="558" y="85"/>
      <point x="445" y="-10"/>
      <point x="295" y="-10" type="curve" smooth="yes"/>
      <point x="145" y="-10"/>
      <point x="32" y="85"/>
    </contour>
    <contour>
      <point x="187" y="230" type="curve" smooth="yes"/>
      <point x="187" y="159"/>
      <point x="236" y="115"/>
      <point x="295" y="115" type="curve" smooth="yes"/>
      <point x="354" y="115"/>
      <point x="402" y="159"/>
      <point x="402" y="230" type="curve" smooth="yes"/>
      <point x="402" y="301"/>
      <point x="354" y="346"/>
      <point x="295" y="346" type="curve" smooth="yes"/>
      <point x="236" y="346"/>
      <point x="187" y="301"/>
    </contour>
    <contour>
      <point x="109" y="531" type="line"/>
      <point x="109" y="661" type="line"/>
      <point x="480" y="661" type="line"/>
      <point x="480" y="531" type="line"/>
    </contour>
  </outline>
</glyph>
<glyph name="Obreve" format="2">
  <advance width="820"/>
  <unicode hex="014E"/>
  <outline>
    <contour>
      <point x="213" y="350" type="curve" smooth="yes"/>
      <point x="213" y="226"/>
      <point x="291" y="139"/>
      <point x="410" y="139" type="curve" smooth="yes"/>
      <point x="529" y="139"/>
      <point x="608" y="226"/>
      <point x="608" y="350" type="curve" smooth="yes"/>
      <point x="608" y="474"/>
      <point x="532" y="561"/>
      <point x="410" y="561" type="curve" smooth="yes"/>
      <point x="291" y="561"/>
      <point x="213" y="474"/>
    </contour>
    <contour>
      <point x="34" y="350" type="curve" smooth="yes"/>
      <point x="34" y="566"/>
      <point x="197" y="716"/>
      <point x="410" y="716" type="curve" smooth="yes"/>
      <point x="626" y="716"/>
      <point x="787" y="566"/>
      <point x="787" y="350" type="curve" smooth="yes"/>
      <point x="787" y="134"/>
      <point x="630" y="-22"/>
      <point x="410" y="-22" type="curve" smooth="yes"/>
      <point x="190" y="-22"/>
      <point x="34" y="134"/>
    </contour>
    <contour>
      <point x="246" y="922" type="curve"/>
      <point x="345" y="922" type="line"/>
      <point x="345" y="887"/>
      <point x="371" y="862"/>
      <point x="410" y="862" type="curve" smooth="yes"/>
      <point x="449" y="862"/>
      <point x="476" y="887"/>
      <point x="476" y="922" type="curve"/>
      <point x="574" y="922" type="line"/>
      <point x="574" y="840"/>
      <point x="515" y="776"/>
      <point x="410" y="776" type="curve" smooth="yes"/>
      <point x="305" y="776"/>
      <point x="246" y="840"/>
    </contour>
  </outline>
</glyph>
